<svg xmlns="http://www.w3.org/2000/svg" xmlns:xlink="http://www.w3.org/1999/xlink" width="500" zoomAndPan="magnify" viewBox="0 0 375 374.999991" height="500" preserveAspectRatio="xMidYMid meet" version="1.0"><defs><clipPath id="id1"><path d="M 50.179688 37.5 L 324.679688 37.5 L 324.679688 202.5 L 50.179688 202.5 Z M 50.179688 37.5 " clip-rule="nonzero"/></clipPath><clipPath id="id2"><path d="M 50.179688 144.507812 L 324.679688 144.507812 L 324.679688 309.507812 L 50.179688 309.507812 Z M 50.179688 144.507812 " clip-rule="nonzero"/></clipPath></defs><path fill="rgb(74.899292%, 79.219055%, 95.689392%)" d="M 187.351562 374.699219 C 137.332031 374.699219 90.230469 355.230469 54.886719 319.8125 C 19.46875 284.46875 0 237.371094 0 187.351562 C 0 137.332031 19.46875 90.230469 54.886719 54.886719 C 90.230469 19.46875 137.332031 0 187.351562 0 C 237.371094 0 284.46875 19.46875 319.8125 54.886719 C 355.230469 90.304688 374.699219 137.332031 374.699219 187.351562 C 374.699219 237.371094 355.230469 284.46875 319.8125 319.8125 C 284.46875 355.230469 237.371094 374.699219 187.351562 374.699219 Z M 187.351562 11.230469 C 140.324219 11.230469 96.070312 29.578125 62.824219 62.824219 C 29.578125 96.070312 11.230469 140.324219 11.230469 187.351562 C 11.230469 234.375 29.578125 278.628906 62.824219 311.875 C 96.070312 345.121094 140.324219 363.46875 187.351562 363.46875 C 234.375 363.46875 278.628906 345.121094 311.875 311.875 C 345.121094 278.628906 363.46875 234.375 363.46875 187.351562 C 363.46875 140.324219 345.121094 96.070312 311.875 62.824219 C 278.628906 29.578125 234.375 11.230469 187.351562 11.230469 Z M 187.351562 11.230469 " fill-opacity="1" fill-rule="nonzero"/><g clip-path="url(#id1)"><path fill="rgb(74.899292%, 79.219055%, 95.689392%)" d="M 50.484375 173.703125 L 186.976562 37.523438 L 324.417969 174.648438 L 296.472656 202.53125 L 186.976562 93.289062 L 78.429688 201.585938 L 50.484375 173.703125 " fill-opacity="1" fill-rule="nonzero"/></g><g clip-path="url(#id2)"><path fill="rgb(74.899292%, 79.219055%, 95.689392%)" d="M 50.484375 280.710938 L 186.976562 144.53125 L 324.417969 281.65625 L 296.472656 309.539062 L 186.976562 200.296875 L 78.429688 308.59375 L 50.484375 280.710938 " fill-opacity="1" fill-rule="nonzero"/></g></svg>