<svg xmlns="http://www.w3.org/2000/svg" xmlns:xlink="http://www.w3.org/1999/xlink" width="500" zoomAndPan="magnify" viewBox="0 0 375 374.999991" height="500" preserveAspectRatio="xMidYMid meet" version="1.0"><defs><clipPath id="id1"><path d="M 173.308594 0 L 201.808594 0 L 201.808594 27 L 173.308594 27 Z M 173.308594 0 " clip-rule="nonzero"/></clipPath></defs><g clip-path="url(#id1)"><path fill="rgb(0%, 7.449341%, 57.249451%)" d="M 201.128906 7.8125 C 200.640625 6.347656 199.957031 5.078125 199.078125 4.148438 C 198.636719 3.660156 198.101562 3.171875 197.515625 2.78125 C 197.027344 2.441406 196.441406 2.148438 195.902344 1.902344 C 195.515625 1.757812 195.125 1.609375 194.78125 1.464844 C 194.539062 1.367188 194.292969 1.269531 194.050781 1.171875 L 193.757812 1.023438 C 193.316406 0.828125 192.828125 0.632812 192.339844 0.488281 C 191.609375 0.339844 190.875 0.242188 190.191406 0.144531 C 189.558594 0.046875 188.925781 0.046875 188.191406 0 C 188.046875 0 187.851562 0 187.703125 0 C 186.628906 0 185.507812 0.0976562 184.1875 0.292969 C 183.066406 0.4375 181.894531 0.730469 180.773438 1.171875 C 180.1875 1.367188 179.601562 1.609375 179.113281 1.902344 C 178.574219 2.195312 178.039062 2.636719 177.550781 3.171875 C 177.0625 3.757812 176.621094 4.199219 176.28125 4.6875 C 176.136719 4.929688 175.941406 5.175781 175.792969 5.417969 C 175.695312 5.566406 175.597656 5.710938 175.5 5.859375 C 175.257812 6.25 175.011719 6.589844 174.867188 6.980469 C 174.671875 7.371094 174.476562 7.859375 174.328125 8.398438 C 174.230469 8.789062 174.132812 9.179688 174.085938 9.570312 C 174.035156 9.667969 174.035156 9.8125 173.988281 9.910156 C 173.839844 10.546875 173.742188 11.179688 173.644531 12.058594 C 173.5 13.28125 173.449219 14.550781 173.546875 15.964844 C 173.597656 16.601562 173.644531 17.382812 173.839844 18.113281 C 174.035156 18.796875 174.28125 19.480469 174.621094 20.117188 C 174.914062 20.652344 175.304688 21.238281 175.84375 21.875 C 176.136719 22.265625 176.523438 22.605469 176.867188 22.949219 L 177.160156 23.242188 C 178.085938 24.167969 179.210938 24.949219 180.578125 25.632812 C 181.210938 25.925781 181.894531 26.171875 182.726562 26.414062 C 183.503906 26.609375 184.335938 26.757812 184.96875 26.855469 C 185.554688 26.949219 186.191406 26.949219 187.019531 27 C 187.214844 27 187.363281 27 187.558594 27 C 187.703125 27 187.851562 27 187.996094 27 C 188.484375 27 188.925781 26.902344 189.265625 26.855469 C 189.898438 26.757812 190.535156 26.609375 191.21875 26.367188 C 191.902344 26.171875 192.585938 25.828125 193.21875 25.535156 C 193.511719 25.390625 193.855469 25.242188 194.195312 25.046875 C 194.441406 24.902344 194.683594 24.753906 194.878906 24.609375 L 195.027344 24.511719 C 195.5625 24.121094 196.097656 23.679688 196.78125 23.046875 C 197.367188 22.507812 197.808594 22.019531 198.199219 21.582031 C 198.734375 20.996094 199.125 20.261719 199.515625 19.628906 C 199.90625 18.945312 200.199219 18.210938 200.492188 17.527344 C 200.738281 16.941406 200.980469 16.308594 201.128906 15.722656 C 201.324219 15.039062 201.421875 14.304688 201.519531 13.621094 C 201.566406 13.035156 201.617188 12.402344 201.664062 11.667969 C 201.664062 10.886719 201.566406 10.105469 201.46875 9.472656 C 201.46875 8.984375 201.324219 8.445312 201.128906 7.8125 Z M 201.128906 7.8125 " fill-opacity="1" fill-rule="nonzero"/></g></svg>