<svg xmlns="http://www.w3.org/2000/svg" xmlns:xlink="http://www.w3.org/1999/xlink" width="500" zoomAndPan="magnify" viewBox="0 0 375 374.999991" height="500" preserveAspectRatio="xMidYMid meet" version="1.0"><defs><clipPath id="id1"><path d="M 0 11.25 L 375 11.25 L 375 247 L 0 247 Z M 0 11.25 " clip-rule="nonzero"/></clipPath><clipPath id="id2"><path d="M 0 129 L 188 129 L 188 363.75 L 0 363.75 Z M 0 129 " clip-rule="nonzero"/></clipPath><clipPath id="id3"><path d="M 187 129 L 375 129 L 375 363.75 L 187 363.75 Z M 187 129 " clip-rule="nonzero"/></clipPath><clipPath id="id4"><path d="M 0 246 L 375 246 L 375 363.75 L 0 363.75 Z M 0 246 " clip-rule="nonzero"/></clipPath></defs><g clip-path="url(#id1)"><path fill="rgb(87.059021%, 55.288696%, 16.468811%)" d="M 187.5 11.976562 L 0 129.304688 L 187.5 246.070312 L 375 129.304688 Z M 187.5 11.976562 " fill-opacity="1" fill-rule="nonzero"/></g><path fill="rgb(95.689392%, 95.689392%, 95.689392%)" d="M 289.109375 26.574219 L 24.703125 26.574219 L 24.703125 260.105469 L 345.808594 260.105469 L 345.808594 83.273438 Z M 289.109375 26.574219 " fill-opacity="1" fill-rule="nonzero"/><path fill="rgb(86.669922%, 30.589294%, 30.589294%)" d="M 187.5 159.054688 C 183.007812 159.054688 179.640625 160.738281 176.273438 164.671875 C 173.464844 168.601562 171.78125 173.652344 171.78125 179.828125 C 171.78125 184.878906 172.902344 189.371094 175.148438 192.738281 C 177.394531 196.105469 180.199219 197.789062 184.128906 197.789062 C 188.621094 197.789062 192.550781 195.542969 196.476562 191.054688 C 200.40625 186.5625 202.089844 180.949219 202.089844 173.652344 C 202.089844 169.722656 200.40625 165.792969 197.597656 162.984375 C 195.359375 160.738281 191.992188 159.054688 187.5 159.054688 Z M 187.5 159.054688 " fill-opacity="1" fill-rule="nonzero"/><path fill="rgb(86.669922%, 30.589294%, 30.589294%)" d="M 187.5 75.414062 C 131.363281 75.414062 85.890625 120.886719 85.890625 177.023438 C 85.890625 233.160156 131.363281 278.628906 187.5 278.628906 C 243.636719 278.628906 289.109375 233.15625 289.109375 177.019531 C 289.109375 120.882812 243.636719 75.414062 187.5 75.414062 Z M 238.585938 198.914062 C 232.410156 207.894531 224.550781 211.828125 215.570312 211.828125 C 208.269531 211.828125 203.777344 209.015625 200.972656 202.84375 C 195.921875 209.019531 190.308594 211.828125 183.011719 211.828125 C 175.714844 211.828125 169.539062 209.015625 164.484375 202.84375 C 159.433594 196.667969 156.625 188.808594 156.625 178.707031 C 156.625 168.605469 159.433594 160.179688 165.609375 154.003906 C 171.222656 147.828125 178.519531 144.460938 186.378906 144.460938 C 194.238281 144.460938 199.851562 146.707031 203.21875 151.757812 L 203.21875 150.636719 C 203.21875 149.515625 203.78125 148.390625 204.902344 147.269531 C 206.023438 146.148438 207.148438 146.148438 208.269531 146.148438 L 213.886719 146.148438 C 215.007812 146.148438 216.132812 146.710938 216.695312 147.269531 C 217.257812 147.832031 217.816406 148.953125 217.816406 150.078125 L 213.324219 186.007812 C 212.761719 188.816406 212.761719 191.621094 212.761719 193.867188 C 212.761719 197.796875 213.882812 199.480469 216.691406 199.480469 C 221.183594 199.480469 225.113281 196.671875 229.601562 190.5 C 233.53125 184.324219 235.777344 177.027344 235.777344 168.609375 C 235.777344 156.257812 231.285156 146.152344 222.304688 138.292969 C 213.324219 130.433594 202.652344 126.503906 189.742188 126.503906 C 175.707031 126.503906 163.921875 131.554688 154.375 141.097656 C 144.832031 150.640625 140.339844 162.429688 140.339844 176.464844 C 140.339844 189.375 144.832031 201.164062 153.8125 210.707031 C 162.796875 220.253906 175.148438 225.304688 191.425781 225.304688 C 201.53125 225.304688 211.636719 223.058594 221.742188 219.128906 L 225.109375 217.445312 C 226.230469 216.882812 227.917969 216.882812 229.039062 217.445312 C 230.160156 218.007812 231.285156 219.128906 231.847656 220.253906 L 232.96875 222.5 C 233.53125 223.621094 233.53125 225.308594 232.96875 226.429688 C 232.40625 227.550781 231.285156 228.675781 230.160156 229.238281 L 226.230469 230.921875 C 215.003906 235.414062 203.210938 237.65625 191.425781 237.65625 C 171.21875 237.65625 155.496094 231.480469 143.707031 219.695312 C 131.917969 207.902344 126.304688 193.308594 126.304688 176.46875 C 126.304688 159.0625 132.480469 144.46875 144.828125 132.679688 C 157.175781 120.890625 172.335938 115.273438 189.738281 115.273438 C 206.015625 115.273438 220.054688 120.328125 231.28125 130.433594 C 242.507812 140.539062 248.121094 153.449219 248.121094 168.609375 C 248.128906 180.390625 245.320312 189.933594 238.585938 198.914062 Z M 238.585938 198.914062 " fill-opacity="1" fill-rule="nonzero"/><path fill="rgb(98.039246%, 45.878601%, 39.219666%)" d="M 289.109375 26.574219 L 289.109375 83.273438 L 345.808594 83.273438 Z M 289.109375 26.574219 " fill-opacity="1" fill-rule="nonzero"/><g clip-path="url(#id2)"><path fill="rgb(98.81897%, 75.689697%, 32.548523%)" d="M 187.5 246.070312 L 0 363.398438 L 0 129.304688 Z M 187.5 246.070312 " fill-opacity="1" fill-rule="nonzero"/></g><g clip-path="url(#id3)"><path fill="rgb(98.81897%, 75.689697%, 32.548523%)" d="M 375 129.304688 L 375 363.398438 L 187.5 246.070312 Z M 375 129.304688 " fill-opacity="1" fill-rule="nonzero"/></g><g clip-path="url(#id4)"><path fill="rgb(87.059021%, 55.288696%, 16.468811%)" d="M 375 363.398438 L 0 363.398438 L 187.5 246.070312 Z M 375 363.398438 " fill-opacity="1" fill-rule="nonzero"/></g></svg>