<svg xmlns="http://www.w3.org/2000/svg" width="375" viewBox="0 0 375 375" height="375" version="1.0"><path fill="#001392" d="M 195 219.394531 L 195 190.933594 L 37.5 190.933594 L 37.5 279.535156 L 195 279.535156 L 195 219.394531 M 37.5 279.535156 L 195 375 L 195 279.535156 L 37.5 279.535156 M 37.5 95.464844 L 195 95.464844 L 195 190.933594 L 37.5 190.933594 L 37.5 95.464844"/><path fill="#5271FF" d="M 195 190.933594 L 195 279.535156 L 352.5 279.535156 L 352.5 190.933594 L 195 190.933594 M 195 95.464844 L 352.5 95.464844 L 352.5 190.933594 L 195 190.933594 L 195 95.464844 M 195 375 L 352.5 279.535156 L 195 279.535156 L 195 375"/><path fill="#BFCAF4" d="M 195 190.933594 L 37.5 95.464844 L 195 0 L 352.5 95.464844 L 195 190.933594"/></svg>