<svg xmlns="http://www.w3.org/2000/svg" width="375" viewBox="0 0 375 375" height="375" version="1.0"><defs><clipPath id="a"><path d="M 53.671875 17 L 320 17 L 320 372 L 53.671875 372 Z M 53.671875 17"/></clipPath></defs><g clip-path="url(#a)"><path fill="#001392" d="M 230.859375 194.136719 C 230.859375 133.761719 264.800781 81.382812 314.734375 54.9375 C 316.171875 54.015625 317.402344 52.683594 318.222656 51.144531 C 320.785156 46.328125 319.042969 40.382812 314.222656 37.820312 C 288.792969 24.1875 260.289062 17.011719 230.859375 17.011719 C 133.039062 17.011719 53.671875 96.347656 53.671875 194.136719 C 53.671875 291.925781 133.039062 371.261719 230.859375 371.261719 C 260.390625 371.261719 288.792969 364.085938 314.324219 350.453125 C 319.042969 347.890625 320.890625 341.945312 318.324219 337.128906 C 317.195312 335.078125 315.554688 333.542969 313.503906 332.722656 C 264.289062 306.070312 230.859375 254 230.859375 194.136719 Z M 230.859375 194.136719" fill-rule="evenodd"/></g></svg>