<svg xmlns="http://www.w3.org/2000/svg" width="375" viewBox="0 0 375 375" height="375" version="1.0"><path fill="#DBE8FF" d="M 291.027344 187.652344 C 291.027344 189.351562 290.984375 191.050781 290.902344 192.746094 C 290.820312 194.441406 290.695312 196.136719 290.527344 197.828125 C 290.363281 199.519531 290.152344 201.203125 289.902344 202.886719 C 289.65625 204.566406 289.363281 206.238281 289.03125 207.90625 C 288.703125 209.574219 288.328125 211.230469 287.917969 212.878906 C 287.503906 214.527344 287.050781 216.164062 286.558594 217.789062 C 286.0625 219.414062 285.53125 221.027344 284.960938 222.628906 C 284.386719 224.226562 283.773438 225.8125 283.125 227.382812 C 282.476562 228.953125 281.785156 230.503906 281.058594 232.039062 C 280.332031 233.578125 279.570312 235.09375 278.769531 236.59375 C 277.96875 238.089844 277.132812 239.570312 276.257812 241.027344 C 275.382812 242.484375 274.476562 243.917969 273.53125 245.332031 C 272.585938 246.742188 271.609375 248.132812 270.597656 249.496094 C 269.585938 250.863281 268.539062 252.203125 267.460938 253.515625 C 266.382812 254.828125 265.273438 256.113281 264.132812 257.375 C 262.992188 258.632812 261.820312 259.863281 260.621094 261.0625 C 259.417969 262.265625 258.1875 263.4375 256.929688 264.578125 C 255.671875 265.71875 254.382812 266.828125 253.070312 267.90625 C 251.757812 268.984375 250.417969 270.027344 249.054688 271.039062 C 247.6875 272.054688 246.300781 273.03125 244.886719 273.976562 C 243.472656 274.917969 242.039062 275.828125 240.582031 276.703125 C 239.125 277.574219 237.648438 278.410156 236.148438 279.214844 C 234.648438 280.015625 233.132812 280.777344 231.597656 281.503906 C 230.0625 282.230469 228.507812 282.917969 226.9375 283.570312 C 225.367188 284.21875 223.785156 284.832031 222.183594 285.402344 C 220.585938 285.976562 218.972656 286.507812 217.34375 287 C 215.71875 287.496094 214.082031 287.949219 212.433594 288.359375 C 210.785156 288.773438 209.128906 289.144531 207.460938 289.476562 C 205.796875 289.808594 204.121094 290.097656 202.441406 290.347656 C 200.761719 290.597656 199.074219 290.804688 197.382812 290.972656 C 195.691406 291.136719 194 291.261719 192.300781 291.347656 C 190.605469 291.429688 188.90625 291.472656 187.207031 291.472656 C 185.507812 291.472656 183.8125 291.429688 182.113281 291.347656 C 180.417969 291.261719 178.722656 291.136719 177.03125 290.972656 C 175.339844 290.804688 173.65625 290.597656 171.972656 290.347656 C 170.292969 290.097656 168.621094 289.808594 166.953125 289.476562 C 165.289062 289.144531 163.628906 288.773438 161.980469 288.359375 C 160.332031 287.949219 158.695312 287.496094 157.070312 287 C 155.445312 286.507812 153.832031 285.976562 152.230469 285.402344 C 150.632812 284.832031 149.046875 284.21875 147.476562 283.570312 C 145.90625 282.917969 144.355469 282.230469 142.820312 281.503906 C 141.28125 280.777344 139.765625 280.015625 138.265625 279.214844 C 136.769531 278.410156 135.292969 277.574219 133.832031 276.703125 C 132.375 275.828125 130.941406 274.917969 129.527344 273.976562 C 128.117188 273.03125 126.726562 272.054688 125.363281 271.039062 C 123.996094 270.027344 122.660156 268.984375 121.34375 267.90625 C 120.03125 266.828125 118.746094 265.71875 117.488281 264.578125 C 116.226562 263.4375 114.996094 262.265625 113.796875 261.0625 C 112.59375 259.863281 111.421875 258.632812 110.28125 257.375 C 109.140625 256.113281 108.03125 254.828125 106.953125 253.515625 C 105.875 252.203125 104.832031 250.863281 103.820312 249.496094 C 102.808594 248.132812 101.828125 246.742188 100.882812 245.332031 C 99.941406 243.917969 99.03125 242.484375 98.160156 241.027344 C 97.285156 239.570312 96.449219 238.089844 95.648438 236.59375 C 94.847656 235.09375 94.082031 233.578125 93.355469 232.039062 C 92.628906 230.503906 91.941406 228.953125 91.289062 227.382812 C 90.640625 225.8125 90.027344 224.226562 89.457031 222.628906 C 88.882812 221.027344 88.351562 219.414062 87.859375 217.789062 C 87.363281 216.164062 86.910156 214.527344 86.5 212.878906 C 86.085938 211.230469 85.714844 209.574219 85.382812 207.90625 C 85.050781 206.238281 84.761719 204.566406 84.511719 202.886719 C 84.261719 201.203125 84.054688 199.519531 83.886719 197.828125 C 83.722656 196.136719 83.597656 194.441406 83.511719 192.746094 C 83.429688 191.050781 83.386719 189.351562 83.386719 187.652344 C 83.386719 185.953125 83.429688 184.253906 83.511719 182.558594 C 83.597656 180.859375 83.722656 179.167969 83.886719 177.476562 C 84.054688 175.785156 84.261719 174.097656 84.511719 172.417969 C 84.761719 170.738281 85.050781 169.0625 85.382812 167.398438 C 85.714844 165.730469 86.085938 164.074219 86.5 162.425781 C 86.910156 160.777344 87.363281 159.140625 87.859375 157.515625 C 88.351562 155.886719 88.882812 154.277344 89.457031 152.675781 C 90.027344 151.074219 90.640625 149.492188 91.289062 147.921875 C 91.941406 146.351562 92.628906 144.800781 93.355469 143.261719 C 94.082031 141.726562 94.847656 140.210938 95.648438 138.710938 C 96.449219 137.214844 97.285156 135.734375 98.160156 134.277344 C 99.03125 132.820312 99.941406 131.386719 100.882812 129.972656 C 101.828125 128.558594 102.808594 127.171875 103.820312 125.804688 C 104.832031 124.441406 105.875 123.101562 106.953125 121.789062 C 108.03125 120.476562 109.140625 119.191406 110.28125 117.929688 C 111.421875 116.671875 112.59375 115.441406 113.796875 114.238281 C 114.996094 113.039062 116.226562 111.867188 117.488281 110.726562 C 118.746094 109.585938 120.03125 108.476562 121.34375 107.398438 C 122.660156 106.320312 123.996094 105.273438 125.363281 104.261719 C 126.726562 103.25 128.117188 102.273438 129.527344 101.328125 C 130.941406 100.382812 132.375 99.476562 133.832031 98.601562 C 135.292969 97.730469 136.769531 96.890625 138.265625 96.089844 C 139.765625 95.289062 141.28125 94.527344 142.820312 93.800781 C 144.355469 93.074219 145.90625 92.386719 147.476562 91.734375 C 149.046875 91.085938 150.632812 90.472656 152.230469 89.902344 C 153.832031 89.328125 155.445312 88.796875 157.070312 88.300781 C 158.695312 87.808594 160.332031 87.355469 161.980469 86.941406 C 163.628906 86.53125 165.289062 86.15625 166.953125 85.828125 C 168.621094 85.496094 170.292969 85.203125 171.972656 84.957031 C 173.65625 84.707031 175.339844 84.5 177.03125 84.332031 C 178.722656 84.164062 180.417969 84.039062 182.113281 83.957031 C 183.8125 83.875 185.507812 83.832031 187.207031 83.832031 C 188.90625 83.832031 190.605469 83.875 192.300781 83.957031 C 194 84.039062 195.691406 84.164062 197.382812 84.332031 C 199.074219 84.5 200.761719 84.707031 202.441406 84.957031 C 204.121094 85.203125 205.796875 85.496094 207.460938 85.828125 C 209.128906 86.15625 210.785156 86.53125 212.433594 86.941406 C 214.082031 87.355469 215.71875 87.808594 217.34375 88.300781 C 218.972656 88.796875 220.585938 89.328125 222.183594 89.902344 C 223.785156 90.472656 225.367188 91.085938 226.9375 91.734375 C 228.507812 92.386719 230.0625 93.074219 231.597656 93.800781 C 233.132812 94.527344 234.648438 95.289062 236.148438 96.089844 C 237.648438 96.890625 239.125 97.730469 240.582031 98.601562 C 242.039062 99.476562 243.472656 100.382812 244.886719 101.328125 C 246.300781 102.273438 247.6875 103.25 249.054688 104.261719 C 250.417969 105.273438 251.757812 106.320312 253.070312 107.398438 C 254.382812 108.476562 255.671875 109.585938 256.929688 110.726562 C 258.1875 111.867188 259.417969 113.039062 260.621094 114.238281 C 261.820312 115.441406 262.992188 116.671875 264.132812 117.929688 C 265.273438 119.191406 266.382812 120.476562 267.460938 121.789062 C 268.539062 123.101562 269.585938 124.441406 270.597656 125.804688 C 271.609375 127.171875 272.585938 128.558594 273.53125 129.972656 C 274.476562 131.386719 275.382812 132.820312 276.257812 134.277344 C 277.128906 135.734375 277.96875 137.214844 278.769531 138.710938 C 279.570312 140.210938 280.332031 141.726562 281.058594 143.261719 C 281.785156 144.800781 282.476562 146.351562 283.125 147.921875 C 283.773438 149.492188 284.386719 151.074219 284.960938 152.675781 C 285.53125 154.277344 286.0625 155.886719 286.558594 157.515625 C 287.050781 159.140625 287.503906 160.777344 287.917969 162.425781 C 288.328125 164.074219 288.703125 165.730469 289.03125 167.398438 C 289.363281 169.0625 289.65625 170.738281 289.902344 172.417969 C 290.152344 174.097656 290.363281 175.785156 290.527344 177.476562 C 290.695312 179.167969 290.820312 180.859375 290.902344 182.558594 C 290.984375 184.253906 291.027344 185.953125 291.027344 187.652344 Z M 291.027344 187.652344"/><path fill="#DBE8FF" d="M 235.527344 63.429688 L 297.519531 35.835938 L 290.425781 103.324219 Z M 235.527344 63.429688"/><path fill="#DBE8FF" d="M 299.3125 115.542969 L 365.675781 129.65625 L 320.28125 180.09375 Z M 299.3125 115.542969"/><path fill="#DBE8FF" d="M 320.28125 195.199219 L 365.675781 245.625 L 299.3125 259.734375 Z M 320.28125 195.199219"/><path fill="#DBE8FF" d="M 290.425781 271.964844 L 297.519531 339.445312 L 235.527344 311.847656 Z M 290.425781 271.964844"/><path fill="#DBE8FF" d="M 221.152344 316.515625 L 187.222656 375.28125 L 153.285156 316.515625 Z M 221.152344 316.515625"/><path fill="#DBE8FF" d="M 138.921875 311.847656 L 76.925781 339.445312 L 84.023438 271.964844 Z M 138.921875 311.847656"/><path fill="#DBE8FF" d="M 75.136719 259.734375 L 8.761719 245.625 L 54.179688 195.199219 Z M 75.136719 259.734375"/><path fill="#DBE8FF" d="M 54.179688 180.09375 L 8.761719 129.65625 L 75.136719 115.542969 Z M 54.179688 180.09375"/><path fill="#DBE8FF" d="M 84.023438 103.324219 L 76.925781 35.835938 L 138.921875 63.429688 Z M 84.023438 103.324219"/><path fill="#DBE8FF" d="M 153.285156 58.765625 L 187.222656 0 L 221.152344 58.765625 Z M 153.285156 58.765625"/></svg>