<svg xmlns="http://www.w3.org/2000/svg" xmlns:xlink="http://www.w3.org/1999/xlink" width="500" zoomAndPan="magnify" viewBox="0 0 375 374.999991" height="500" preserveAspectRatio="xMidYMid meet" version="1.0"><path fill="rgb(52.159119%, 52.159119%, 79.998779%)" d="M 291.117188 370.066406 C 334.71875 370.066406 370.066406 334.71875 370.066406 291.117188 L 370.066406 83.882812 C 370.066406 40.28125 334.71875 4.933594 291.117188 4.933594 L 83.882812 4.933594 C 40.28125 4.933594 4.933594 40.28125 4.933594 83.882812 L 4.933594 291.117188 C 4.933594 334.71875 40.28125 370.066406 83.882812 370.066406 Z M 291.117188 370.066406 " fill-opacity="1" fill-rule="nonzero"/><path fill="rgb(55.288696%, 55.288696%, 84.709167%)" d="M 23.683594 32.871094 C 12.011719 46.636719 4.933594 64.421875 4.933594 83.882812 L 4.933594 291.117188 C 4.933594 334.71875 40.28125 370.066406 83.882812 370.066406 L 291.117188 370.066406 C 334.71875 370.066406 370.066406 334.71875 370.066406 291.117188 L 370.066406 83.882812 C 370.066406 78.917969 369.550781 74.09375 368.675781 69.386719 C 307.253906 31.777344 235.183594 9.867188 157.894531 9.867188 C 110.8125 9.867188 65.695312 18.078125 23.683594 32.871094 Z M 23.683594 32.871094 " fill-opacity="1" fill-rule="nonzero"/><path fill="rgb(74.119568%, 50.979614%, 95.689392%)" d="M 4.984375 82.933594 C 4.972656 83.261719 4.933594 83.566406 4.933594 83.882812 L 4.933594 291.117188 C 4.933594 334.71875 40.28125 370.066406 83.882812 370.066406 L 291.117188 370.066406 C 334.71875 370.066406 370.066406 334.71875 370.066406 291.117188 L 370.066406 117.40625 C 310.253906 74.605469 237.050781 49.34375 157.894531 49.34375 C 103.273438 49.34375 51.511719 61.441406 4.984375 82.933594 Z M 4.984375 82.933594 " fill-opacity="1" fill-rule="nonzero"/><path fill="rgb(92.939758%, 45.098877%, 95.689392%)" d="M 4.933594 127.105469 L 4.933594 291.117188 C 4.933594 334.71875 40.28125 370.066406 83.882812 370.066406 L 291.117188 370.066406 C 334.71875 370.066406 370.066406 334.71875 370.066406 291.117188 L 370.066406 167.574219 C 313.066406 118.550781 238.984375 88.816406 157.894531 88.816406 C 102.574219 88.816406 50.566406 102.769531 4.933594 127.105469 Z M 4.933594 127.105469 " fill-opacity="1" fill-rule="nonzero"/><path fill="rgb(97.648621%, 49.01886%, 80.389404%)" d="M 157.894531 128.289062 C 101.59375 128.289062 49.203125 144.710938 4.933594 172.785156 L 4.933594 291.117188 C 4.933594 334.71875 40.28125 370.066406 83.882812 370.066406 L 291.117188 370.066406 C 334.71875 370.066406 370.066406 334.71875 370.066406 291.117188 L 370.066406 222.679688 C 317.703125 164.78125 242.113281 128.289062 157.894531 128.289062 Z M 157.894531 128.289062 " fill-opacity="1" fill-rule="nonzero"/><path fill="rgb(98.81897%, 61.178589%, 58.428955%)" d="M 157.894531 167.761719 C 100.054688 167.761719 47.003906 187.824219 4.933594 221.160156 L 4.933594 291.117188 C 4.933594 334.71875 40.28125 370.066406 83.882812 370.066406 L 291.117188 370.066406 C 334.71875 370.066406 370.066406 334.71875 370.066406 291.117188 L 370.066406 288.769531 C 327.070312 216.363281 248.210938 167.761719 157.894531 167.761719 Z M 157.894531 167.761719 " fill-opacity="1" fill-rule="nonzero"/><path fill="rgb(100%, 67.449951%, 59.999084%)" d="M 157.894531 207.238281 C 97.253906 207.238281 42.828125 233.398438 4.933594 274.925781 L 4.933594 291.117188 C 4.933594 334.71875 40.28125 370.066406 83.882812 370.066406 L 291.117188 370.066406 C 315.445312 370.066406 337.183594 359.042969 351.671875 341.742188 C 322.183594 263.230469 246.699219 207.238281 157.894531 207.238281 Z M 157.894531 207.238281 " fill-opacity="1" fill-rule="nonzero"/><path fill="rgb(100%, 76.858521%, 61.178589%)" d="M 291.117188 370.066406 C 300.5625 370.066406 309.574219 368.320312 317.96875 365.28125 C 296.910156 296.695312 233.378906 246.710938 157.894531 246.710938 C 96.847656 246.710938 43.5 279.363281 14.152344 328.105469 C 27.414062 353.0625 53.65625 370.066406 83.882812 370.066406 Z M 291.117188 370.066406 " fill-opacity="1" fill-rule="nonzero"/><path fill="rgb(100%, 87.059021%, 55.288696%)" d="M 157.894531 286.183594 C 107.199219 286.183594 63.425781 315.632812 42.59375 358.3125 C 54.621094 365.722656 68.722656 370.066406 83.882812 370.066406 L 278.121094 370.066406 C 260.03125 321.136719 213.109375 286.183594 157.894531 286.183594 Z M 157.894531 286.183594 " fill-opacity="1" fill-rule="nonzero"/><path fill="rgb(100%, 96.469116%, 62.348938%)" d="M 157.894531 325.65625 C 125.140625 325.65625 96.78125 343.550781 81.386719 369.9375 C 82.222656 369.96875 83.042969 370.066406 83.882812 370.066406 L 234.472656 370.066406 C 219.109375 343.597656 190.699219 325.65625 157.894531 325.65625 Z M 157.894531 325.65625 " fill-opacity="1" fill-rule="nonzero"/><path fill="rgb(54.508972%, 45.878601%, 63.139343%)" d="M 296.050781 9.867188 C 334.144531 9.867188 365.132812 40.855469 365.132812 78.949219 L 365.132812 296.050781 C 365.132812 334.144531 334.144531 365.132812 296.050781 365.132812 L 78.949219 365.132812 C 40.855469 365.132812 9.867188 334.144531 9.867188 296.050781 L 9.867188 78.949219 C 9.867188 40.855469 40.855469 9.867188 78.949219 9.867188 L 296.050781 9.867188 M 296.050781 0 L 78.949219 0 C 35.347656 0 0 35.347656 0 78.949219 L 0 296.050781 C 0 339.652344 35.347656 375 78.949219 375 L 296.050781 375 C 339.652344 375 375 339.652344 375 296.050781 L 375 78.949219 C 375 35.347656 339.652344 0 296.050781 0 Z M 296.050781 0 " fill-opacity="1" fill-rule="nonzero"/><path fill="rgb(100%, 100%, 100%)" d="M 261.511719 98.683594 C 260.542969 98.683594 259.578125 98.777344 258.625 98.96875 C 257.671875 99.160156 256.746094 99.4375 255.847656 99.8125 C 254.949219 100.183594 254.097656 100.640625 253.289062 101.179688 C 252.480469 101.71875 251.734375 102.332031 251.046875 103.019531 C 250.359375 103.707031 249.746094 104.453125 249.207031 105.261719 C 248.664062 106.070312 248.210938 106.925781 247.835938 107.820312 C 247.464844 108.71875 247.183594 109.644531 246.996094 110.597656 C 246.804688 111.550781 246.710938 112.515625 246.710938 113.488281 C 246.710938 114.457031 246.804688 115.421875 246.996094 116.375 C 247.183594 117.328125 247.464844 118.253906 247.835938 119.152344 C 248.210938 120.050781 248.664062 120.902344 249.207031 121.710938 C 249.746094 122.519531 250.359375 123.265625 251.046875 123.953125 C 251.734375 124.640625 252.480469 125.253906 253.289062 125.792969 C 254.097656 126.335938 254.949219 126.789062 255.847656 127.164062 C 256.746094 127.535156 257.671875 127.816406 258.625 128.003906 C 259.578125 128.195312 260.542969 128.289062 261.511719 128.289062 C 262.484375 128.289062 263.449219 128.195312 264.402344 128.003906 C 265.355469 127.816406 266.28125 127.535156 267.179688 127.164062 C 268.074219 126.789062 268.929688 126.335938 269.738281 125.792969 C 270.546875 125.253906 271.292969 124.640625 271.980469 123.953125 C 272.667969 123.265625 273.28125 122.519531 273.820312 121.710938 C 274.359375 120.902344 274.816406 120.050781 275.1875 119.152344 C 275.5625 118.253906 275.839844 117.328125 276.03125 116.375 C 276.222656 115.421875 276.316406 114.457031 276.316406 113.488281 C 276.316406 112.515625 276.222656 111.550781 276.03125 110.597656 C 275.839844 109.644531 275.5625 108.71875 275.1875 107.820312 C 274.816406 106.925781 274.359375 106.070312 273.820312 105.261719 C 273.28125 104.453125 272.667969 103.707031 271.980469 103.019531 C 271.292969 102.332031 270.546875 101.71875 269.738281 101.179688 C 268.929688 100.640625 268.074219 100.183594 267.179688 99.8125 C 266.28125 99.4375 265.355469 99.160156 264.402344 98.96875 C 263.449219 98.777344 262.484375 98.683594 261.511719 98.683594 Z M 261.511719 98.683594 " fill-opacity="1" fill-rule="nonzero"/><path stroke-linecap="butt" transform="matrix(9.868421, 0, 0, 9.868421, -9.868416, -9.868421)" fill="none" stroke-linejoin="miter" d="M 20 13.999959 C 19.803667 13.999959 19.607333 14.009459 19.411792 14.028854 C 19.21625 14.04825 19.022292 14.077146 18.829521 14.115146 C 18.63675 14.153542 18.446354 14.201438 18.258333 14.258438 C 18.070312 14.315438 17.885458 14.381542 17.703771 14.45675 C 17.522479 14.531959 17.34475 14.615875 17.171771 14.7085 C 16.998396 14.801125 16.829771 14.902063 16.666687 15.011313 C 16.503208 15.120167 16.345666 15.237334 16.193666 15.362021 C 16.041666 15.486709 15.896396 15.618521 15.757458 15.757459 C 15.618521 15.896396 15.486708 16.041667 15.362021 16.193667 C 15.237333 16.345667 15.120166 16.503209 15.011312 16.666688 C 14.902062 16.829771 14.801125 16.998396 14.7085 17.171771 C 14.615875 17.34475 14.531958 17.522479 14.45675 17.703771 C 14.381541 17.885459 14.315437 18.070313 14.258437 18.258334 C 14.201437 18.446354 14.153541 18.63675 14.115146 18.829521 C 14.077146 19.022292 14.04825 19.21625 14.028854 19.411792 C 14.009458 19.607334 13.999958 19.803667 13.999958 20 C 13.999958 20.196334 14.009458 20.392667 14.028854 20.588209 C 14.04825 20.78375 14.077146 20.977709 14.115146 21.17048 C 14.153541 21.36325 14.201437 21.553646 14.258437 21.741667 C 14.315437 21.929688 14.381541 22.114542 14.45675 22.29623 C 14.531958 22.477521 14.615875 22.65525 14.7085 22.82823 C 14.801125 23.001605 14.902062 23.169834 15.011312 23.333313 C 15.120166 23.496792 15.237333 23.654334 15.362021 23.806334 C 15.486708 23.958334 15.618521 24.103605 15.757458 24.242542 C 15.896396 24.38148 16.041666 24.513292 16.193666 24.63798 C 16.345666 24.762667 16.503208 24.879834 16.666687 24.988688 C 16.829771 25.097938 16.998396 25.198875 17.171771 25.2915 C 17.34475 25.384125 17.522479 25.468042 17.703771 25.54325 C 17.885458 25.618459 18.070312 25.684563 18.258333 25.741563 C 18.446354 25.798563 18.63675 25.846459 18.829521 25.884855 C 19.022292 25.922855 19.21625 25.95175 19.411792 25.971146 C 19.607333 25.990542 19.803667 26.000042 20 26.000042 C 20.196333 26.000042 20.392667 25.990542 20.588208 25.971146 C 20.78375 25.95175 20.977708 25.922855 21.170479 25.884855 C 21.36325 25.846459 21.553646 25.798563 21.741667 25.741563 C 21.929687 25.684563 22.114542 25.618459 22.296229 25.54325 C 22.477521 25.468042 22.65525 25.384125 22.828229 25.2915 C 23.001604 25.198875 23.169833 25.097938 23.333312 24.988688 C 23.496792 24.879834 23.654333 24.762667 23.806333 24.63798 C 23.958333 24.513292 24.103604 24.38148 24.242542 24.242542 C 24.381479 24.103605 24.513292 23.958334 24.637979 23.806334 C 24.762667 23.654334 24.879833 23.496792 24.988687 23.333313 C 25.097937 23.169834 25.198875 23.001605 25.2915 22.82823 C 25.384125 22.65525 25.468042 22.477521 25.54325 22.29623 C 25.618458 22.114542 25.684562 21.929688 25.741562 21.741667 C 25.798562 21.553646 25.846458 21.36325 25.884854 21.17048 C 25.922854 20.977709 25.95175 20.78375 25.971146 20.588209 C 25.990542 20.392667 26.000042 20.196334 26.000042 20 C 26.000042 19.803667 25.990542 19.607334 25.971146 19.411792 C 25.95175 19.21625 25.922854 19.022292 25.884854 18.829521 C 25.846458 18.63675 25.798562 18.446354 25.741562 18.258334 C 25.684562 18.070313 25.618458 17.885459 25.54325 17.703771 C 25.468042 17.522479 25.384125 17.34475 25.2915 17.171771 C 25.198875 16.998396 25.097937 16.829771 24.988687 16.666688 C 24.879833 16.503209 24.762667 16.345667 24.637979 16.193667 C 24.513292 16.041667 24.381479 15.896396 24.242542 15.757459 C 24.103604 15.618521 23.958333 15.486709 23.806333 15.362021 C 23.654333 15.237334 23.496792 15.120167 23.333312 15.011313 C 23.169833 14.902063 23.001604 14.801125 22.828229 14.7085 C 22.65525 14.615875 22.477521 14.531959 22.296229 14.45675 C 22.114542 14.381542 21.929687 14.315438 21.741667 14.258438 C 21.553646 14.201438 21.36325 14.153542 21.170479 14.115146 C 20.977708 14.077146 20.78375 14.04825 20.588208 14.028854 C 20.392667 14.009459 20.196333 13.999959 20 13.999959 Z M 20 13.999959 " stroke="rgb(100%, 100%, 100%)" stroke-width="2" stroke-opacity="1" stroke-miterlimit="10"/><path stroke-linecap="butt" transform="matrix(9.868421, 0, 0, 9.868421, -9.868416, -9.868421)" fill="none" stroke-linejoin="miter" d="M 32.999958 14.499896 C 32.999958 10.357896 29.642104 7.000042 25.500104 7.000042 C 23.323812 7.000042 16.676187 7.000042 14.499896 7.000042 C 10.357896 7.000042 7.000041 10.357896 7.000041 14.499896 C 7.000041 16.676188 7.000041 23.323813 7.000041 25.500105 C 7.000041 29.642105 10.357896 32.999959 14.499896 32.999959 C 16.676187 32.999959 23.323812 32.999959 25.500104 32.999959 C 29.642104 32.999959 32.999958 29.642105 32.999958 25.500105 C 32.999958 23.323813 32.999958 16.676188 32.999958 14.499896 Z M 32.999958 14.499896 " stroke="rgb(100%, 100%, 100%)" stroke-width="2" stroke-opacity="1" stroke-miterlimit="10"/></svg>