<svg xmlns="http://www.w3.org/2000/svg" width="375" viewBox="0 0 375 375" height="375" version="1.0"><path fill="#78A0D4" d="M 6.046875 151.210938 L 368.953125 151.210938 L 368.953125 368.953125 L 6.046875 368.953125 Z M 6.046875 151.210938"/><path fill="#5E87CA" d="M 314.515625 114.917969 L 368.953125 151.210938 L 211.695312 260.082031 L 163.304688 260.082031 L 6.046875 151.210938 L 60.484375 114.917969 Z M 314.515625 114.917969"/><path fill="#E2E7F6" d="M 163.304688 260.082031 L 60.484375 188.898438 L 60.484375 6.046875 L 314.515625 6.046875 L 314.515625 188.898438 L 211.695312 260.082031 Z M 163.304688 260.082031"/><path fill="#F2F2F2" d="M 296.371094 201.460938 L 296.371094 6.046875 L 60.484375 6.046875 L 60.484375 188.898438 C 60.484375 188.898438 107.992188 221.789062 137.097656 241.933594 L 237.90625 241.933594 C 260.109375 226.558594 279.375 213.222656 296.371094 201.460938 Z M 296.371094 201.460938"/><path fill="#93BEE5" d="M 6.046875 368.953125 L 187.5 241.933594 L 368.953125 368.953125"/><path fill="#78A0D4" d="M 84.675781 30.242188 L 290.324219 30.242188 L 290.324219 114.917969 L 84.675781 114.917969 Z M 84.675781 30.242188"/><path fill="#93BEE5" d="M 84.675781 30.242188 L 84.675781 96.773438 L 254.03125 96.773438 C 260.714844 96.773438 266.128906 91.359375 266.128906 84.675781 L 266.128906 30.242188 Z M 84.675781 30.242188"/><path fill="#E2E7F6" d="M 151.210938 84.675781 L 139.113281 84.675781 L 139.113281 72.582031 L 127.015625 72.582031 L 127.015625 90.726562 C 127.015625 94.066406 129.71875 96.773438 133.066406 96.773438 L 157.257812 96.773438 C 160.601562 96.773438 163.304688 94.066406 163.304688 90.726562 L 163.304688 48.386719 L 151.210938 48.386719 Z M 151.210938 84.675781"/><path fill="#E2E7F6" d="M 199.597656 48.386719 L 175.402344 48.386719 C 172.058594 48.386719 169.355469 51.097656 169.355469 54.433594 L 169.355469 90.726562 C 169.355469 94.066406 172.058594 96.773438 175.402344 96.773438 L 199.597656 96.773438 C 202.941406 96.773438 205.644531 94.066406 205.644531 90.726562 L 205.644531 54.433594 C 205.644531 51.097656 202.941406 48.386719 199.597656 48.386719 Z M 193.546875 84.675781 L 181.453125 84.675781 L 181.453125 60.484375 L 193.546875 60.484375 Z M 193.546875 84.675781"/><path fill="#E2E7F6" d="M 247.984375 63.507812 C 247.984375 55.171875 241.203125 48.386719 232.863281 48.386719 L 217.742188 48.386719 C 214.398438 48.386719 211.695312 51.097656 211.695312 54.433594 L 211.695312 90.726562 C 211.695312 94.066406 214.398438 96.773438 217.742188 96.773438 L 232.863281 96.773438 C 241.203125 96.773438 247.984375 89.988281 247.984375 81.652344 C 247.984375 78.253906 246.851562 75.109375 244.953125 72.582031 C 246.851562 70.050781 247.984375 66.90625 247.984375 63.507812 Z M 232.863281 84.675781 L 223.789062 84.675781 L 223.789062 78.628906 L 232.863281 78.628906 C 234.527344 78.628906 235.886719 79.984375 235.886719 81.652344 C 235.886719 83.324219 234.527344 84.675781 232.863281 84.675781 Z M 232.863281 66.53125 L 223.789062 66.53125 L 223.789062 60.484375 L 232.863281 60.484375 C 234.527344 60.484375 235.886719 61.839844 235.886719 63.507812 C 235.886719 65.175781 234.527344 66.53125 232.863281 66.53125 Z M 232.863281 66.53125"/><path fill="#78A0D4" d="M 84.675781 139.113281 L 120.96875 139.113281 L 120.96875 175.402344 L 84.675781 175.402344 Z M 84.675781 139.113281"/><path fill="#93BEE5" d="M 84.675781 139.113281 L 84.675781 163.304688 L 102.824219 163.304688 C 106.160156 163.304688 108.871094 160.597656 108.871094 157.257812 L 108.871094 139.113281 Z M 84.675781 139.113281"/><path fill="#C8CDED" d="M 139.113281 163.304688 L 296.371094 163.304688 L 296.371094 175.402344 L 139.113281 175.402344 Z M 139.113281 163.304688"/><path fill="#C8CDED" d="M 163.304688 139.113281 L 260.082031 139.113281 L 260.082031 151.210938 L 163.304688 151.210938 Z M 163.304688 139.113281"/><path fill="#C8CDED" d="M 272.175781 139.113281 L 296.371094 139.113281 L 296.371094 151.210938 L 272.175781 151.210938 Z M 272.175781 139.113281"/><path d="M 372.308594 146.175781 L 320.566406 111.683594 L 320.566406 6.046875 C 320.566406 2.710938 317.859375 0 314.515625 0 L 60.484375 0 C 57.140625 0 54.433594 2.710938 54.433594 6.046875 L 54.433594 111.683594 L 2.691406 146.175781 C 1.011719 147.300781 0 149.191406 0 151.210938 L 0 368.953125 C 0 372.289062 2.703125 375 6.046875 375 L 368.953125 375 C 372.296875 375 375 372.289062 375 368.953125 L 375 151.210938 C 375 149.191406 373.988281 147.300781 372.308594 146.175781 Z M 151.851562 259.507812 L 12.097656 357.332031 L 12.097656 162.757812 Z M 187.5 249.320312 L 349.765625 362.902344 L 25.234375 362.902344 Z M 223.148438 259.507812 L 362.902344 162.757812 L 362.902344 357.339844 Z M 358.191406 151.304688 L 320.566406 177.351562 L 320.566406 126.21875 Z M 308.46875 12.097656 L 308.46875 185.726562 L 212.582031 252.109375 L 190.972656 236.980469 C 188.890625 235.523438 186.113281 235.523438 184.039062 236.980469 L 162.429688 252.109375 L 66.53125 185.726562 L 66.53125 12.097656 Z M 54.433594 177.351562 L 16.808594 151.300781 L 54.433594 126.21875 Z M 54.433594 177.351562"/><path d="M 84.675781 120.96875 L 290.324219 120.96875 C 293.667969 120.96875 296.371094 118.257812 296.371094 114.917969 L 296.371094 30.242188 C 296.371094 26.902344 293.667969 24.195312 290.324219 24.195312 L 84.675781 24.195312 C 81.332031 24.195312 78.628906 26.902344 78.628906 30.242188 L 78.628906 114.917969 C 78.628906 118.257812 81.332031 120.96875 84.675781 120.96875 Z M 90.726562 36.289062 L 284.273438 36.289062 L 284.273438 108.871094 L 90.726562 108.871094 Z M 90.726562 36.289062"/><path d="M 151.210938 84.675781 L 139.113281 84.675781 L 139.113281 72.582031 L 127.015625 72.582031 L 127.015625 90.726562 C 127.015625 94.066406 129.71875 96.773438 133.066406 96.773438 L 157.257812 96.773438 C 160.601562 96.773438 163.304688 94.066406 163.304688 90.726562 L 163.304688 48.386719 L 151.210938 48.386719 Z M 151.210938 84.675781"/><path d="M 199.597656 48.386719 L 175.402344 48.386719 C 172.058594 48.386719 169.355469 51.097656 169.355469 54.433594 L 169.355469 90.726562 C 169.355469 94.066406 172.058594 96.773438 175.402344 96.773438 L 199.597656 96.773438 C 202.941406 96.773438 205.644531 94.066406 205.644531 90.726562 L 205.644531 54.433594 C 205.644531 51.097656 202.941406 48.386719 199.597656 48.386719 Z M 193.546875 84.675781 L 181.453125 84.675781 L 181.453125 60.484375 L 193.546875 60.484375 Z M 193.546875 84.675781"/><path d="M 232.863281 48.386719 L 217.742188 48.386719 C 214.398438 48.386719 211.695312 51.097656 211.695312 54.433594 L 211.695312 90.726562 C 211.695312 94.066406 214.398438 96.773438 217.742188 96.773438 L 232.863281 96.773438 C 241.203125 96.773438 247.984375 89.988281 247.984375 81.652344 C 247.984375 78.253906 246.851562 75.109375 244.953125 72.582031 C 246.851562 70.050781 247.984375 66.90625 247.984375 63.507812 C 247.984375 55.171875 241.203125 48.386719 232.863281 48.386719 Z M 232.863281 84.675781 L 223.789062 84.675781 L 223.789062 78.628906 L 232.863281 78.628906 C 234.527344 78.628906 235.886719 79.984375 235.886719 81.652344 C 235.886719 83.324219 234.527344 84.675781 232.863281 84.675781 Z M 232.863281 66.53125 L 223.789062 66.53125 L 223.789062 60.484375 L 232.863281 60.484375 C 234.527344 60.484375 235.886719 61.839844 235.886719 63.507812 C 235.886719 65.175781 234.527344 66.53125 232.863281 66.53125 Z M 232.863281 66.53125"/><path d="M 84.675781 181.453125 L 120.96875 181.453125 C 124.3125 181.453125 127.015625 178.742188 127.015625 175.402344 L 127.015625 139.113281 C 127.015625 135.773438 124.3125 133.066406 120.96875 133.066406 L 84.675781 133.066406 C 81.332031 133.066406 78.628906 135.773438 78.628906 139.113281 L 78.628906 175.402344 C 78.628906 178.742188 81.332031 181.453125 84.675781 181.453125 Z M 90.726562 145.160156 L 114.917969 145.160156 L 114.917969 169.355469 L 90.726562 169.355469 Z M 90.726562 145.160156"/><path d="M 139.113281 163.304688 L 296.371094 163.304688 L 296.371094 175.402344 L 139.113281 175.402344 Z M 139.113281 163.304688"/><path d="M 163.304688 139.113281 L 260.082031 139.113281 L 260.082031 151.210938 L 163.304688 151.210938 Z M 163.304688 139.113281"/><path d="M 272.175781 139.113281 L 296.371094 139.113281 L 296.371094 151.210938 L 272.175781 151.210938 Z M 272.175781 139.113281"/></svg>