<svg xmlns="http://www.w3.org/2000/svg" width="37.5" viewBox="0 0 37.5 225" height="225" version="1.0"><defs><clipPath id="a"><path d="M 0.609375 1.480469 L 36.609375 1.480469 L 36.609375 223.519531 L 0.609375 223.519531 Z M 0.609375 1.480469"/></clipPath></defs><g clip-path="url(#a)"><path fill="#BFCAF4" d="M 4.460938 1.703125 C 6.007812 1.703125 7.417969 2.730469 7.828125 4.285156 C 17.367188 40.359375 26.867188 76.472656 36.054688 111.394531 L 36.449219 112.902344 C 36.597656 113.472656 36.597656 114.074219 36.449219 114.648438 L 36.121094 115.898438 C 26.910156 150.90625 17.386719 187.105469 7.828125 223.265625 C 7.34375 225.109375 5.4375 226.21875 3.574219 225.730469 C 1.714844 225.246094 0.601562 223.355469 1.089844 221.511719 C 10.648438 185.355469 20.167969 149.15625 29.378906 114.152344 L 29.476562 113.773438 L 29.3125 113.144531 C 20.125 78.222656 10.625 42.109375 1.089844 6.039062 C 0.601562 4.191406 1.714844 2.304688 3.574219 1.816406 C 3.871094 1.742188 4.167969 1.703125 4.460938 1.703125"/></g></svg>