<svg xmlns="http://www.w3.org/2000/svg" width="37.5" viewBox="0 0 37.5 225" height="225" version="1.0"><defs><clipPath id="a"><path d="M 0.890625 2 L 36.890625 2 L 36.890625 223.519531 L 0.890625 223.519531 Z M 0.890625 2"/></clipPath></defs><g clip-path="url(#a)"><path fill="#001392" d="M 33.039062 226.253906 C 31.492188 226.253906 30.082031 225.226562 29.671875 223.675781 C 20.132812 187.601562 10.632812 151.488281 1.445312 116.5625 L 1.050781 115.058594 C 0.902344 114.488281 0.902344 113.886719 1.050781 113.3125 L 1.378906 112.0625 C 10.589844 77.054688 20.113281 40.855469 29.671875 4.695312 C 30.15625 2.847656 32.0625 1.742188 33.925781 2.230469 C 35.785156 2.714844 36.898438 4.601562 36.410156 6.449219 C 26.851562 42.605469 17.332031 78.804688 8.121094 113.808594 L 8.023438 114.1875 L 8.1875 114.816406 C 17.375 149.738281 26.875 185.851562 36.410156 221.921875 C 36.898438 223.769531 35.785156 225.65625 33.925781 226.140625 C 33.628906 226.21875 33.332031 226.253906 33.039062 226.253906"/></g></svg>