<svg xmlns="http://www.w3.org/2000/svg" width="375" viewBox="0 0 375 375" height="375" version="1.0"><defs><clipPath id="a"><path d="M 3.984375 0 L 370 0 L 370 375 L 3.984375 375 Z M 3.984375 0"/></clipPath></defs><g clip-path="url(#a)"><path fill="#4F5D73" d="M 125.964844 0.320312 C 122.726562 0.320312 119.785156 2.246094 118.5 5.21875 C 117.207031 8.195312 117.828125 11.65625 120.039062 14.023438 L 211.523438 111.679688 C 213.058594 113.324219 215.203125 114.257812 217.449219 114.257812 L 337.394531 114.257812 L 337.394531 220.050781 L 353.65625 220.050781 L 353.65625 114.257812 L 361.789062 114.257812 C 365.074219 114.257812 368.050781 112.269531 369.300781 109.234375 C 370.5625 106.191406 369.863281 102.691406 367.539062 100.363281 L 269.957031 2.707031 C 268.433594 1.175781 266.371094 0.320312 264.207031 0.320312 Z M 137.527344 56.496094 L 119.101562 85.472656 C 117.167969 88.523438 117.457031 92.472656 119.832031 95.199219 L 183.871094 168.441406 C 185.417969 170.199219 187.660156 171.222656 190.003906 171.222656 L 304.867188 171.222656 C 309.363281 171.222656 312.996094 167.578125 312.996094 163.085938 L 312.996094 130.53125 L 217.449219 130.53125 C 210.738281 130.53125 204.253906 127.730469 199.644531 122.824219 Z M 25.332031 89.84375 C 13.5625 89.84375 3.984375 99.476562 3.984375 111.300781 L 3.984375 304.390625 C 3.984375 316.214844 13.5625 325.847656 25.332031 325.847656 L 291.652344 325.847656 C 303.417969 325.847656 312.996094 316.214844 312.996094 304.390625 L 312.996094 187.5 L 296.734375 187.5 L 296.734375 277.019531 L 20.25 277.019531 L 20.25 111.300781 C 20.25 108.453125 22.523438 106.117188 25.332031 106.117188 L 106.984375 106.117188 C 103.210938 101.414062 101.464844 95.613281 101.710938 89.84375 Z M 345.523438 236.328125 C 336.539062 236.328125 329.261719 243.613281 329.261719 252.605469 C 329.261719 261.597656 345.523438 285.15625 345.523438 285.15625 C 345.523438 285.15625 361.789062 261.597656 361.789062 252.605469 C 361.789062 243.613281 354.511719 236.328125 345.523438 236.328125 Z M 158.492188 293.296875 C 162.980469 293.296875 166.621094 296.941406 166.621094 301.433594 C 166.621094 305.925781 162.980469 309.574219 158.492188 309.574219 C 154.003906 309.574219 150.359375 305.925781 150.359375 301.433594 C 150.359375 296.941406 154.003906 293.296875 158.492188 293.296875 Z M 124.40625 342.125 C 120.957031 351.484375 111.945312 358.402344 101.566406 358.402344 C 97.070312 358.402344 93.4375 362.046875 93.4375 366.539062 C 93.4375 371.03125 97.070312 374.679688 101.566406 374.679688 L 215.414062 374.679688 C 219.910156 374.679688 223.546875 371.03125 223.546875 366.539062 C 223.546875 362.046875 219.910156 358.402344 215.414062 358.402344 C 205.039062 358.402344 196.023438 351.484375 192.574219 342.125 Z M 124.40625 342.125"/></g></svg>