<svg xmlns="http://www.w3.org/2000/svg" xmlns:xlink="http://www.w3.org/1999/xlink" width="500" zoomAndPan="magnify" viewBox="0 0 375 374.999991" height="500" preserveAspectRatio="xMidYMid meet" version="1.0"><path fill="rgb(31.759644%, 68.238831%, 89.7995%)" d="M 218.652344 245.613281 C 299.890625 250.828125 361.523438 276.195312 361.523438 306.707031 C 361.523438 341 283.660156 368.792969 187.59375 368.792969 C 91.527344 368.792969 13.664062 341 13.664062 306.707031 C 13.664062 276.195312 75.296875 250.828125 156.535156 245.613281 " fill-opacity="1" fill-rule="nonzero"/><path fill="rgb(92.549133%, 11.369324%, 15.289307%)" d="M 109.628906 170.40625 L 187.59375 281.871094 L 265.558594 170.40625 C 279.535156 150.445312 286.984375 126.972656 286.984375 102.984375 C 286.984375 65.128906 262.789062 31.101562 225.933594 17.035156 L 221.394531 15.3125 C 199.605469 6.996094 175.386719 6.507812 153.234375 13.882812 C 114.289062 26.882812 88.203125 61.925781 88.203125 101.238281 L 88.203125 102.984375 C 88.203125 126.972656 95.652344 150.445312 109.628906 170.40625 " fill-opacity="1" fill-rule="nonzero"/><path fill="rgb(96.078491%, 96.469116%, 96.078491%)" d="M 240.5625 101.191406 C 240.5625 130.4375 216.832031 154.132812 187.59375 154.132812 C 158.355469 154.132812 134.625 130.4375 134.625 101.191406 C 134.625 71.964844 158.355469 48.273438 187.59375 48.273438 C 216.832031 48.273438 240.5625 71.964844 240.5625 101.191406 " fill-opacity="1" fill-rule="nonzero"/><path fill="rgb(6.269836%, 5.879211%, 5.099487%)" d="M 140.835938 101.191406 C 140.835938 75.433594 161.824219 54.480469 187.59375 54.480469 C 213.363281 54.480469 234.351562 75.433594 234.351562 101.191406 C 234.351562 126.972656 213.363281 147.925781 187.59375 147.925781 C 161.824219 147.925781 140.835938 126.972656 140.835938 101.191406 Z M 246.777344 101.191406 C 246.777344 68.59375 220.230469 42.0625 187.59375 42.0625 C 154.957031 42.0625 128.410156 68.59375 128.410156 101.191406 C 128.410156 133.808594 154.957031 160.34375 187.59375 160.34375 C 220.230469 160.34375 246.777344 133.808594 246.777344 101.191406 " fill-opacity="1" fill-rule="nonzero"/><path fill="rgb(6.269836%, 5.879211%, 5.099487%)" d="M 156.945312 251.796875 C 157.554688 251.773438 158.113281 251.53125 158.671875 251.335938 L 182.5 285.4375 C 183.664062 287.085938 185.554688 288.078125 187.59375 288.078125 C 189.632812 288.078125 191.523438 287.085938 192.6875 285.4375 L 216.515625 251.335938 C 217.074219 251.53125 217.632812 251.773438 218.242188 251.796875 C 304.042969 257.328125 355.3125 284.054688 355.3125 306.707031 C 355.3125 333.140625 286.425781 362.582031 187.59375 362.582031 C 88.761719 362.582031 19.875 333.140625 19.875 306.707031 C 19.875 284.054688 71.144531 257.328125 156.945312 251.796875 Z M 94.417969 102.984375 L 94.417969 101.238281 C 94.417969 64.640625 118.851562 31.902344 155.199219 19.773438 C 164.953125 16.527344 175.144531 14.902344 185.3125 14.902344 C 196.8125 14.902344 208.316406 16.988281 219.1875 21.109375 L 223.722656 22.855469 C 258.375 36.046875 280.769531 67.503906 280.769531 102.984375 C 280.769531 125.78125 273.757812 147.851562 260.484375 166.84375 L 187.59375 271.03125 L 114.703125 166.84375 C 101.429688 147.851562 94.417969 125.78125 94.417969 102.984375 Z M 187.59375 375 C 288.609375 375 367.738281 345 367.738281 306.707031 C 367.738281 273.429688 309.160156 246.242188 224.597656 239.816406 L 270.652344 173.949219 C 285.40625 152.871094 293.195312 128.328125 293.195312 102.984375 C 293.195312 62.3125 267.667969 26.300781 228.140625 11.238281 L 223.601562 9.515625 C 200.476562 0.6875 174.78125 0.15625 151.269531 7.988281 C 109.824219 21.8125 81.992188 59.308594 81.992188 101.238281 L 81.992188 102.984375 C 81.992188 128.328125 89.78125 152.871094 104.535156 173.949219 L 150.589844 239.816406 C 66.027344 246.242188 7.449219 273.429688 7.449219 306.707031 C 7.449219 345 86.578125 375 187.59375 375 " fill-opacity="1" fill-rule="nonzero"/></svg>