<svg xmlns="http://www.w3.org/2000/svg" width="375" viewBox="0 0 375 93.75" height="93.75" version="1.0"><defs><clipPath id="a"><path d="M 0.5 0 L 374.5 0 L 374.5 93.5 L 0.5 93.5 Z M 0.5 0"/></clipPath><clipPath id="b"><path d="M 97.953125 0 L 374.320312 0 L 374.320312 93.5 L 97.953125 93.5 Z M 97.953125 0"/></clipPath><clipPath id="c"><path d="M 0.5 0 L 94 0 L 94 93.5 L 0.5 93.5 Z M 0.5 0"/></clipPath><clipPath id="d"><path d="M 26.792969 20.335938 L 67.1875 20.335938 L 67.1875 72.617188 L 26.792969 72.617188 Z M 26.792969 20.335938"/></clipPath></defs><g clip-path="url(#a)"><path fill="#FFF" d="M 0.5 0 L 374.5 0 L 374.5 93.5 L 0.5 93.5 Z M 0.5 0"/></g><g clip-path="url(#b)"><path fill="#BFCAF4" d="M 97.953125 0 L 374.320312 0 L 374.320312 93.566406 L 97.953125 93.566406 Z M 97.953125 0"/></g><g fill="#001392"><g><g><path d="M 11.5 -19.015625 C 13.863281 -18.734375 15.765625 -17.828125 17.203125 -16.296875 C 18.648438 -14.765625 19.375 -12.601562 19.375 -9.8125 C 19.375 -7 18.632812 -4.75 17.15625 -3.0625 C 15.675781 -1.375 13.773438 -0.390625 11.453125 -0.109375 C 10.804688 -0.0351562 9.992188 0 9.015625 0 L 2.46875 0 L 2.46875 -19.125 L 9.0625 -19.125 C 10.039062 -19.125 10.851562 -19.085938 11.5 -19.015625 Z M 10.59375 -3.109375 C 12.050781 -3.285156 13.203125 -3.957031 14.046875 -5.125 C 14.898438 -6.289062 15.328125 -7.832031 15.328125 -9.75 C 15.328125 -11.601562 14.910156 -13.066406 14.078125 -14.140625 C 13.242188 -15.210938 12.109375 -15.835938 10.671875 -16.015625 C 10.097656 -16.085938 9.414062 -16.125 8.625 -16.125 L 6.296875 -16.125 L 6.296875 -3.015625 L 8.5625 -3.015625 C 9.507812 -3.015625 10.1875 -3.046875 10.59375 -3.109375 Z M 10.59375 -3.109375" transform="translate(118.404 46.55)"/></g></g></g><g fill="#001392"><g><g><path d="M 15.140625 -7.671875 C 15.140625 -7.140625 15.117188 -6.707031 15.078125 -6.375 L 4.59375 -6.375 C 4.820312 -3.65625 5.960938 -2.296875 8.015625 -2.296875 C 8.847656 -2.296875 9.535156 -2.515625 10.078125 -2.953125 C 10.617188 -3.398438 10.957031 -4.015625 11.09375 -4.796875 L 14.90625 -4.796875 C 14.539062 -3.109375 13.734375 -1.820312 12.484375 -0.9375 C 11.234375 -0.0507812 9.710938 0.390625 7.921875 0.390625 C 5.796875 0.390625 4.066406 -0.269531 2.734375 -1.59375 C 1.410156 -2.914062 0.75 -4.820312 0.75 -7.3125 C 0.75 -9.601562 1.4375 -11.476562 2.8125 -12.9375 C 4.1875 -14.40625 5.992188 -15.140625 8.234375 -15.140625 C 10.390625 -15.140625 12.078125 -14.425781 13.296875 -13 C 14.523438 -11.570312 15.140625 -9.796875 15.140625 -7.671875 Z M 8.0625 -12.453125 C 6.164062 -12.453125 5.050781 -11.257812 4.71875 -8.875 L 11.203125 -8.875 C 10.941406 -11.257812 9.894531 -12.453125 8.0625 -12.453125 Z M 8.0625 -12.453125" transform="translate(139.78 46.55)"/></g></g></g><g fill="#001392"><g><g><path d="M 15.140625 -7.671875 C 15.140625 -7.140625 15.117188 -6.707031 15.078125 -6.375 L 4.59375 -6.375 C 4.820312 -3.65625 5.960938 -2.296875 8.015625 -2.296875 C 8.847656 -2.296875 9.535156 -2.515625 10.078125 -2.953125 C 10.617188 -3.398438 10.957031 -4.015625 11.09375 -4.796875 L 14.90625 -4.796875 C 14.539062 -3.109375 13.734375 -1.820312 12.484375 -0.9375 C 11.234375 -0.0507812 9.710938 0.390625 7.921875 0.390625 C 5.796875 0.390625 4.066406 -0.269531 2.734375 -1.59375 C 1.410156 -2.914062 0.75 -4.820312 0.75 -7.3125 C 0.75 -9.601562 1.4375 -11.476562 2.8125 -12.9375 C 4.1875 -14.40625 5.992188 -15.140625 8.234375 -15.140625 C 10.390625 -15.140625 12.078125 -14.425781 13.296875 -13 C 14.523438 -11.570312 15.140625 -9.796875 15.140625 -7.671875 Z M 8.0625 -12.453125 C 6.164062 -12.453125 5.050781 -11.257812 4.71875 -8.875 L 11.203125 -8.875 C 10.941406 -11.257812 9.894531 -12.453125 8.0625 -12.453125 Z M 8.0625 -12.453125" transform="translate(156.912 46.55)"/></g></g></g><g fill="#001392"><g><g><path d="M 15.71875 -14.75 L 10 0 L 5.734375 0 L 0 -14.75 L 4.234375 -14.75 L 7.953125 -2.875 L 11.59375 -14.75 Z M 15.71875 -14.75" transform="translate(174.045 46.55)"/></g></g></g><g fill="#001392"><g><g><path d="M 11.5 -19.015625 C 13.863281 -18.734375 15.765625 -17.828125 17.203125 -16.296875 C 18.648438 -14.765625 19.375 -12.601562 19.375 -9.8125 C 19.375 -7 18.632812 -4.75 17.15625 -3.0625 C 15.675781 -1.375 13.773438 -0.390625 11.453125 -0.109375 C 10.804688 -0.0351562 9.992188 0 9.015625 0 L 2.46875 0 L 2.46875 -19.125 L 9.0625 -19.125 C 10.039062 -19.125 10.851562 -19.085938 11.5 -19.015625 Z M 10.59375 -3.109375 C 12.050781 -3.285156 13.203125 -3.957031 14.046875 -5.125 C 14.898438 -6.289062 15.328125 -7.832031 15.328125 -9.75 C 15.328125 -11.601562 14.910156 -13.066406 14.078125 -14.140625 C 13.242188 -15.210938 12.109375 -15.835938 10.671875 -16.015625 C 10.097656 -16.085938 9.414062 -16.125 8.625 -16.125 L 6.296875 -16.125 L 6.296875 -3.015625 L 8.5625 -3.015625 C 9.507812 -3.015625 10.1875 -3.046875 10.59375 -3.109375 Z M 10.59375 -3.109375" transform="translate(190.845 46.55)"/></g></g></g><g fill="#001392"><g><g><path d="M 15.140625 -7.671875 C 15.140625 -7.140625 15.117188 -6.707031 15.078125 -6.375 L 4.59375 -6.375 C 4.820312 -3.65625 5.960938 -2.296875 8.015625 -2.296875 C 8.847656 -2.296875 9.535156 -2.515625 10.078125 -2.953125 C 10.617188 -3.398438 10.957031 -4.015625 11.09375 -4.796875 L 14.90625 -4.796875 C 14.539062 -3.109375 13.734375 -1.820312 12.484375 -0.9375 C 11.234375 -0.0507812 9.710938 0.390625 7.921875 0.390625 C 5.796875 0.390625 4.066406 -0.269531 2.734375 -1.59375 C 1.410156 -2.914062 0.75 -4.820312 0.75 -7.3125 C 0.75 -9.601562 1.4375 -11.476562 2.8125 -12.9375 C 4.1875 -14.40625 5.992188 -15.140625 8.234375 -15.140625 C 10.390625 -15.140625 12.078125 -14.425781 13.296875 -13 C 14.523438 -11.570312 15.140625 -9.796875 15.140625 -7.671875 Z M 8.0625 -12.453125 C 6.164062 -12.453125 5.050781 -11.257812 4.71875 -8.875 L 11.203125 -8.875 C 10.941406 -11.257812 9.894531 -12.453125 8.0625 -12.453125 Z M 8.0625 -12.453125" transform="translate(212.22 46.55)"/></g></g></g><g fill="#001392"><g><g><path d="M 15.71875 -14.75 L 10 0 L 5.734375 0 L 0 -14.75 L 4.234375 -14.75 L 7.953125 -2.875 L 11.59375 -14.75 Z M 15.71875 -14.75" transform="translate(229.353 46.55)"/></g></g></g><g fill="#001392"><g><g><path d="M 7.015625 -15.140625 C 8.710938 -15.140625 10.066406 -14.710938 11.078125 -13.859375 C 12.097656 -13.003906 12.691406 -11.878906 12.859375 -10.484375 L 9.03125 -10.484375 C 8.769531 -11.898438 8.015625 -12.609375 6.765625 -12.609375 C 6.210938 -12.609375 5.78125 -12.460938 5.46875 -12.171875 C 5.164062 -11.890625 5.015625 -11.507812 5.015625 -11.03125 C 5.015625 -10.476562 5.265625 -10.035156 5.765625 -9.703125 C 6.265625 -9.367188 7.132812 -9.046875 8.375 -8.734375 C 9.976562 -8.328125 11.175781 -7.757812 11.96875 -7.03125 C 12.769531 -6.3125 13.171875 -5.304688 13.171875 -4.015625 C 13.171875 -2.597656 12.597656 -1.507812 11.453125 -0.75 C 10.316406 0.0078125 8.863281 0.390625 7.09375 0.390625 C 5.25 0.390625 3.753906 -0.015625 2.609375 -0.828125 C 1.460938 -1.640625 0.785156 -2.859375 0.578125 -4.484375 L 4.40625 -4.484375 C 4.550781 -3.710938 4.867188 -3.128906 5.359375 -2.734375 C 5.847656 -2.335938 6.445312 -2.140625 7.15625 -2.140625 C 7.800781 -2.140625 8.320312 -2.273438 8.71875 -2.546875 C 9.113281 -2.828125 9.3125 -3.222656 9.3125 -3.734375 C 9.3125 -4.304688 9.039062 -4.773438 8.5 -5.140625 C 7.96875 -5.503906 7.066406 -5.84375 5.796875 -6.15625 C 4.296875 -6.519531 3.148438 -7.046875 2.359375 -7.734375 C 1.566406 -8.429688 1.171875 -9.382812 1.171875 -10.59375 C 1.171875 -11.988281 1.703125 -13.09375 2.765625 -13.90625 C 3.828125 -14.726562 5.242188 -15.140625 7.015625 -15.140625 Z M 7.015625 -15.140625" transform="translate(246.153 46.55)"/></g></g></g><g fill="#001392"><g><g><path d="M 2.148438 -7.160156 L 6.339844 -7.160156 L 6.339844 -7.96875 L 1.15625 -7.96875 L 1.15625 0 L 2.148438 0 L 2.148438 -3.578125 L 5.878906 -3.578125 L 5.878906 -4.386719 L 2.148438 -4.386719 Z M 2.148438 -7.160156" transform="translate(118.404 70.893)"/></g></g></g><g fill="#001392"><g><g><path d="M 7.066406 -7.96875 L 6.074219 -7.96875 L 6.074219 -3.039062 C 6.074219 -2.78125 6.074219 -2.539062 6.050781 -2.332031 C 5.957031 -1.328125 5.300781 -0.625 4.078125 -0.625 C 2.851562 -0.625 2.195312 -1.328125 2.101562 -2.332031 C 2.078125 -2.539062 2.078125 -2.78125 2.078125 -3.039062 L 2.078125 -7.96875 L 1.085938 -7.96875 L 1.085938 -2.945312 C 1.085938 -2.691406 1.085938 -2.460938 1.109375 -2.230469 C 1.222656 -0.902344 2.125 0.160156 4.078125 0.160156 C 6.027344 0.160156 6.929688 -0.902344 7.042969 -2.230469 C 7.066406 -2.460938 7.066406 -2.691406 7.066406 -2.945312 Z M 7.066406 -7.96875" transform="translate(125.183 70.893)"/></g></g></g><g fill="#001392"><g><g><path d="M 6.457031 -0.808594 L 2.148438 -0.808594 L 2.148438 -7.96875 L 1.15625 -7.96875 L 1.15625 0 L 6.457031 0 Z M 6.457031 -0.808594" transform="translate(133.288 70.893)"/></g></g></g><g fill="#001392"><g><g><path d="M 6.457031 -0.808594 L 2.148438 -0.808594 L 2.148438 -7.96875 L 1.15625 -7.96875 L 1.15625 0 L 6.457031 0 Z M 6.457031 -0.808594" transform="translate(140.159 70.893)"/></g></g></g><g fill="#001392"><g><g><path d="M 2.792969 -2.945312 L 2.792969 -3.589844 L 0.371094 -3.589844 L 0.371094 -2.945312 Z M 2.792969 -2.945312" transform="translate(147.03 70.893)"/></g></g></g><g fill="#001392"><g><g><path d="M 3.625 -8.128906 C 2.160156 -8.128906 0.96875 -7.265625 0.96875 -5.890625 C 0.96875 -4.574219 1.953125 -4.007812 3.359375 -3.683594 C 4.757812 -3.359375 5.3125 -2.921875 5.3125 -1.953125 C 5.3125 -1.121094 4.574219 -0.625 3.660156 -0.625 C 2.621094 -0.625 1.894531 -1.210938 1.664062 -2.261719 L 0.601562 -2.261719 C 0.773438 -0.726562 1.882812 0.160156 3.636719 0.160156 C 5.171875 0.160156 6.375 -0.738281 6.375 -2.136719 C 6.375 -3.488281 5.496094 -4.203125 3.742188 -4.609375 C 2.527344 -4.886719 2.03125 -5.253906 2.03125 -6.121094 C 2.03125 -6.953125 2.703125 -7.34375 3.546875 -7.34375 C 4.550781 -7.34375 5.140625 -6.765625 5.230469 -5.761719 L 6.292969 -5.761719 C 6.144531 -7.125 5.277344 -8.128906 3.625 -8.128906 Z M 3.625 -8.128906" transform="translate(150.424 70.893)"/></g></g></g><g fill="#001392"><g><g><path d="M 7.066406 -7.160156 L 7.066406 -7.96875 L 0.394531 -7.96875 L 0.394531 -7.160156 L 3.234375 -7.160156 L 3.234375 0 L 4.226562 0 L 4.226562 -7.160156 Z M 7.066406 -7.160156" transform="translate(157.41 70.893)"/></g></g></g><g fill="#001392"><g><g><path d="M 5.265625 -2.816406 L 6.214844 0 L 7.285156 0 L 4.539062 -7.96875 L 3.199219 -7.96875 L 0.335938 0 L 1.398438 0 L 2.332031 -2.816406 Z M 2.609375 -3.625 L 3.84375 -7.183594 L 5 -3.625 Z M 2.609375 -3.625" transform="translate(164.708 70.893)"/></g></g></g><g fill="#001392"><g><g><path d="M 4.308594 -8.128906 C 2.042969 -8.128906 0.542969 -6.375 0.542969 -3.949219 C 0.542969 -1.617188 1.835938 0.160156 4.15625 0.160156 C 6.257812 0.160156 7.332031 -1.097656 7.484375 -2.539062 L 7.496094 -2.65625 L 6.5 -2.65625 L 6.480469 -2.539062 C 6.246094 -1.398438 5.542969 -0.625 4.214844 -0.625 C 2.644531 -0.625 1.652344 -2.03125 1.652344 -3.996094 C 1.652344 -5.925781 2.65625 -7.34375 4.285156 -7.34375 C 5.613281 -7.34375 6.316406 -6.570312 6.546875 -5.429688 L 6.570312 -5.3125 L 7.5625 -5.3125 L 7.550781 -5.429688 C 7.390625 -6.988281 6.328125 -8.128906 4.308594 -8.128906 Z M 4.308594 -8.128906" transform="translate(172.317 70.893)"/></g></g></g><g fill="#001392"><g><g><path d="M 3.636719 -4.078125 L 7.253906 -7.96875 L 6.085938 -7.96875 L 2.148438 -3.730469 L 2.148438 -7.96875 L 1.15625 -7.96875 L 1.15625 0 L 2.148438 0 L 2.148438 -2.585938 L 2.910156 -3.40625 L 5.648438 0 L 7.042969 0 Z M 3.636719 -4.078125" transform="translate(180.62 70.893)"/></g></g></g><g fill="#001392"><g><g><path d="M 3.625 -8.128906 C 2.160156 -8.128906 0.96875 -7.265625 0.96875 -5.890625 C 0.96875 -4.574219 1.953125 -4.007812 3.359375 -3.683594 C 4.757812 -3.359375 5.3125 -2.921875 5.3125 -1.953125 C 5.3125 -1.121094 4.574219 -0.625 3.660156 -0.625 C 2.621094 -0.625 1.894531 -1.210938 1.664062 -2.261719 L 0.601562 -2.261719 C 0.773438 -0.726562 1.882812 0.160156 3.636719 0.160156 C 5.171875 0.160156 6.375 -0.738281 6.375 -2.136719 C 6.375 -3.488281 5.496094 -4.203125 3.742188 -4.609375 C 2.527344 -4.886719 2.03125 -5.253906 2.03125 -6.121094 C 2.03125 -6.953125 2.703125 -7.34375 3.546875 -7.34375 C 4.550781 -7.34375 5.140625 -6.765625 5.230469 -5.761719 L 6.292969 -5.761719 C 6.144531 -7.125 5.277344 -8.128906 3.625 -8.128906 Z M 3.625 -8.128906" transform="translate(190.607 70.893)"/></g></g></g><g fill="#001392"><g><g><path d="M 4.664062 -7.921875 C 4.308594 -7.96875 4.03125 -7.96875 3.625 -7.96875 L 1.15625 -7.96875 L 1.15625 0 L 2.148438 0 L 2.148438 -3.257812 L 3.625 -3.257812 C 4.03125 -3.257812 4.308594 -3.257812 4.664062 -3.304688 C 5.820312 -3.453125 6.734375 -4.261719 6.734375 -5.613281 C 6.734375 -6.964844 5.9375 -7.761719 4.664062 -7.921875 Z M 4.609375 -4.144531 C 4.386719 -4.101562 4.078125 -4.089844 3.71875 -4.089844 L 2.148438 -4.089844 L 2.148438 -7.136719 L 3.71875 -7.136719 C 4.078125 -7.136719 4.386719 -7.125 4.609375 -7.078125 C 5.171875 -6.953125 5.671875 -6.535156 5.671875 -5.613281 C 5.671875 -4.6875 5.171875 -4.273438 4.609375 -4.144531 Z M 4.609375 -4.144531" transform="translate(197.593 70.893)"/></g></g></g><g fill="#001392"><g><g><path d="M 6.457031 -0.808594 L 2.148438 -0.808594 L 2.148438 -3.578125 L 5.992188 -3.578125 L 5.992188 -4.386719 L 2.148438 -4.386719 L 2.148438 -7.160156 L 6.339844 -7.160156 L 6.339844 -7.96875 L 1.15625 -7.96875 L 1.15625 0 L 6.457031 0 Z M 6.457031 -0.808594" transform="translate(204.73 70.893)"/></g></g></g><g fill="#001392"><g><g><path d="M 4.308594 -8.128906 C 2.042969 -8.128906 0.542969 -6.375 0.542969 -3.949219 C 0.542969 -1.617188 1.835938 0.160156 4.15625 0.160156 C 6.257812 0.160156 7.332031 -1.097656 7.484375 -2.539062 L 7.496094 -2.65625 L 6.5 -2.65625 L 6.480469 -2.539062 C 6.246094 -1.398438 5.542969 -0.625 4.214844 -0.625 C 2.644531 -0.625 1.652344 -2.03125 1.652344 -3.996094 C 1.652344 -5.925781 2.65625 -7.34375 4.285156 -7.34375 C 5.613281 -7.34375 6.316406 -6.570312 6.546875 -5.429688 L 6.570312 -5.3125 L 7.5625 -5.3125 L 7.550781 -5.429688 C 7.390625 -6.988281 6.328125 -8.128906 4.308594 -8.128906 Z M 4.308594 -8.128906" transform="translate(211.738 70.893)"/></g></g></g><g fill="#001392"><g><g><path d="M 2.148438 0 L 2.148438 -7.96875 L 1.15625 -7.96875 L 1.15625 0 Z M 2.148438 0" transform="translate(220.04 70.893)"/></g></g></g><g fill="#001392"><g><g><path d="M 5.265625 -2.816406 L 6.214844 0 L 7.285156 0 L 4.539062 -7.96875 L 3.199219 -7.96875 L 0.335938 0 L 1.398438 0 L 2.332031 -2.816406 Z M 2.609375 -3.625 L 3.84375 -7.183594 L 5 -3.625 Z M 2.609375 -3.625" transform="translate(223.32 70.893)"/></g></g></g><g fill="#001392"><g><g><path d="M 6.457031 -0.808594 L 2.148438 -0.808594 L 2.148438 -7.96875 L 1.15625 -7.96875 L 1.15625 0 L 6.457031 0 Z M 6.457031 -0.808594" transform="translate(230.929 70.893)"/></g></g></g><g fill="#001392"><g><g><path d="M 2.148438 0 L 2.148438 -7.96875 L 1.15625 -7.96875 L 1.15625 0 Z M 2.148438 0" transform="translate(237.8 70.893)"/></g></g></g><g fill="#001392"><g><g><path d="M 3.625 -8.128906 C 2.160156 -8.128906 0.96875 -7.265625 0.96875 -5.890625 C 0.96875 -4.574219 1.953125 -4.007812 3.359375 -3.683594 C 4.757812 -3.359375 5.3125 -2.921875 5.3125 -1.953125 C 5.3125 -1.121094 4.574219 -0.625 3.660156 -0.625 C 2.621094 -0.625 1.894531 -1.210938 1.664062 -2.261719 L 0.601562 -2.261719 C 0.773438 -0.726562 1.882812 0.160156 3.636719 0.160156 C 5.171875 0.160156 6.375 -0.738281 6.375 -2.136719 C 6.375 -3.488281 5.496094 -4.203125 3.742188 -4.609375 C 2.527344 -4.886719 2.03125 -5.253906 2.03125 -6.121094 C 2.03125 -6.953125 2.703125 -7.34375 3.546875 -7.34375 C 4.550781 -7.34375 5.140625 -6.765625 5.230469 -5.761719 L 6.292969 -5.761719 C 6.144531 -7.125 5.277344 -8.128906 3.625 -8.128906 Z M 3.625 -8.128906" transform="translate(241.079 70.893)"/></g></g></g><g fill="#001392"><g><g><path d="M 7.066406 -7.160156 L 7.066406 -7.96875 L 0.394531 -7.96875 L 0.394531 -7.160156 L 3.234375 -7.160156 L 3.234375 0 L 4.226562 0 L 4.226562 -7.160156 Z M 7.066406 -7.160156" transform="translate(248.065 70.893)"/></g></g></g><g clip-path="url(#c)"><path fill="#BFCAF4" d="M 0.5 0 L 93.742188 0 L 93.742188 93.242188 L 0.5 93.242188 Z M 0.5 0"/></g><path fill="#001392" d="M 60.132812 39.042969 L 59.804688 39.042969 L 59.804688 46.199219 L 58.082031 46.199219 L 58.082031 38.179688 C 58.082031 37.132812 57.128906 36.742188 56.53125 36.742188 L 52.675781 36.742188 L 52.675781 43.808594 L 50.953125 43.808594 L 50.953125 35.878906 C 50.953125 35.1875 49.992188 34.308594 49.402344 34.308594 L 45.511719 34.308594 L 45.511719 43.808594 L 43.789062 43.808594 L 43.789062 22.441406 L 38.382812 22.335938 L 38.382812 48.613281 L 36.660156 48.613281 L 36.660156 47.929688 L 36.5625 47.835938 C 35.007812 46.320312 32.390625 43.984375 31.550781 43.753906 L 31.507812 43.742188 L 28.84375 43.753906 L 28.84375 47.324219 L 28.90625 47.410156 C 36.695312 58.03125 40.574219 67.625 41.578125 70.316406 L 41.660156 70.527344 L 59.285156 70.527344 L 59.335938 70.261719 C 60.160156 66.035156 64.292969 55.472656 65.113281 53.398438 L 65.136719 53.339844 L 65.136719 44.136719 C 65.136719 42.328125 61.910156 39.042969 60.132812 39.042969 Z M 60.132812 39.042969"/><g clip-path="url(#d)"><path fill="#FFF" d="M 60.132812 36.992188 L 59.910156 36.992188 C 59.386719 35.539062 57.949219 34.695312 56.53125 34.695312 L 52.730469 34.695312 C 52.160156 33.375 50.753906 32.261719 49.402344 32.261719 L 45.839844 32.261719 L 45.839844 22.765625 C 45.839844 21.265625 44.890625 20.296875 43.425781 20.296875 L 38.710938 20.296875 C 37.164062 20.296875 36.34375 21.5625 36.335938 22.820312 L 36.335938 44.804688 C 34.074219 42.753906 32.472656 41.703125 31.582031 41.703125 L 29.113281 41.703125 C 28.71875 41.707031 28.015625 41.691406 27.4375 42.257812 C 27.003906 42.683594 26.792969 43.300781 26.792969 44.136719 L 26.792969 47.996094 L 27.027344 48.308594 C 36.039062 60.5 39.886719 71.65625 39.925781 71.769531 L 40.199219 72.574219 L 61.246094 72.574219 L 61.246094 71.390625 C 61.246094 69.417969 64.835938 59.644531 67.101562 53.945312 L 67.1875 44.136719 C 67.1875 41.199219 63.03125 36.992188 60.132812 36.992188 Z M 64.808594 53.277344 C 63.992188 55.347656 59.847656 65.925781 59.015625 70.199219 L 41.886719 70.199219 C 40.839844 67.402344 36.957031 57.835938 29.167969 47.214844 L 29.167969 44.136719 C 29.167969 44.117188 29.167969 44.097656 29.167969 44.078125 L 31.464844 44.066406 C 32.125 44.25 34.433594 46.21875 36.335938 48.066406 L 36.335938 48.941406 L 38.710938 48.941406 L 38.710938 22.671875 L 43.464844 22.765625 L 43.464844 44.136719 L 45.839844 44.136719 L 45.839844 34.636719 L 49.402344 34.636719 C 49.828125 34.636719 50.628906 35.378906 50.628906 35.882812 L 50.628906 44.136719 L 53.003906 44.136719 L 53.003906 37.066406 L 56.53125 37.066406 C 56.871094 37.066406 57.757812 37.269531 57.757812 38.183594 L 57.757812 46.527344 L 60.132812 46.527344 L 60.132812 39.371094 C 61.75 39.371094 64.808594 42.488281 64.808594 44.136719 Z M 64.808594 53.277344"/></g></svg>