<svg xmlns="http://www.w3.org/2000/svg" width="375" viewBox="0 0 375 375" height="375" version="1.0"><defs><clipPath id="a"><path d="M 236.507812 19.117188 L 284 19.117188 L 284 57 L 236.507812 57 Z M 236.507812 19.117188"/></clipPath></defs><path fill="#BFCAF4" d="M-37.5 -37.5H412.5V412.5H-37.5z"/><path fill="#001392" d="M 285.261719 40.589844 C 301.644531 32.414062 321.957031 38.332031 331.226562 54.351562 L 337.800781 65.699219 C 334.628906 77.234375 327.296875 87.644531 316.464844 94.488281 L 313.316406 89.050781 C 315.097656 87.011719 315.484375 83.984375 314.0625 81.519531 L 299.683594 56.683594 C 298.257812 54.222656 295.433594 53.042969 292.773438 53.566406 Z M 312.84375 96.574219 C 301.484375 102.507812 288.78125 103.632812 277.175781 100.605469 L 270.609375 89.257812 C 261.335938 73.238281 266.351562 52.734375 281.640625 42.675781 L 289.152344 55.652344 C 287.371094 57.683594 286.984375 60.714844 288.40625 63.175781 L 302.785156 88.011719 C 304.210938 90.476562 307.035156 91.652344 309.695312 91.132812 Z M 340.636719 70.597656 L 348.824219 84.75 C 358.449219 101.375 352.6875 122.832031 336.015625 132.429688 C 319.34375 142.027344 297.828125 136.28125 288.207031 119.65625 L 280.015625 105.503906 C 292.191406 107.746094 305.203125 105.839844 316.769531 99.179688 C 328.332031 92.523438 336.492188 82.238281 340.636719 70.597656 Z M 340.636719 70.597656" fill-rule="evenodd"/><g clip-path="url(#a)"><path fill="#001392" d="M 279.671875 39.269531 C 278.449219 37.164062 277.175781 35.101562 276.007812 33.214844 C 274.878906 31.390625 273.835938 29.703125 273.273438 28.734375 C 271.015625 24.832031 268.117188 23.28125 265.597656 23.394531 C 264.648438 23.4375 263.746094 23.710938 262.957031 24.175781 C 262.160156 24.644531 261.46875 25.316406 260.941406 26.144531 C 259.472656 28.457031 259.320312 32.027344 261.699219 36.136719 C 265.152344 42.101562 264.714844 47.496094 262.300781 51.195312 C 261.339844 52.667969 260.058594 53.867188 258.570312 54.722656 C 257.082031 55.582031 255.402344 56.089844 253.640625 56.1875 C 249.234375 56.429688 244.347656 54.125 240.933594 48.226562 C 240.273438 47.089844 239.730469 46.203125 239.15625 45.261719 C 238.300781 43.863281 237.382812 42.363281 236.765625 41.292969 L 240.386719 39.210938 C 241.300781 40.792969 242.03125 41.984375 242.714844 43.097656 C 243.476562 44.347656 244.191406 45.511719 244.554688 46.140625 C 247.070312 50.484375 250.445312 52.195312 253.40625 52.03125 C 254.515625 51.972656 255.570312 51.65625 256.488281 51.125 C 257.40625 50.597656 258.207031 49.84375 258.816406 48.914062 C 260.4375 46.429688 260.628906 42.632812 258.074219 38.222656 C 254.816406 32.585938 255.195312 27.425781 257.425781 23.917969 C 258.308594 22.527344 259.484375 21.398438 260.847656 20.59375 C 262.21875 19.789062 263.769531 19.3125 265.394531 19.242188 C 269.359375 19.058594 273.742188 21.203125 276.894531 26.652344 C 277.6875 28.011719 278.585938 29.464844 279.558594 31.039062 C 280.871094 33.160156 282.300781 35.46875 283.292969 37.183594 Z M 279.671875 39.269531"/></g><path fill="#001392" d="M 295.785156 62.933594 C 297.402344 62.003906 299.488281 62.5625 300.421875 64.175781 L 307.925781 77.132812 C 308.859375 78.746094 308.300781 80.828125 306.683594 81.761719 C 305.0625 82.695312 302.976562 82.136719 302.042969 80.519531 L 294.542969 67.5625 C 293.605469 65.949219 294.167969 63.867188 295.785156 62.933594 Z M 295.785156 62.933594" fill-rule="evenodd"/><g fill="#001392" fill-opacity=".4"><g><g><path d="M 27.015625 -44.671875 C 32.578125 -44.015625 37.050781 -41.882812 40.4375 -38.28125 C 43.820312 -34.675781 45.515625 -29.597656 45.515625 -23.046875 C 45.515625 -16.453125 43.773438 -11.164062 40.296875 -7.1875 C 36.828125 -3.21875 32.359375 -0.910156 26.890625 -0.265625 C 25.367188 -0.0859375 23.457031 0 21.15625 0 L 5.796875 0 L 5.796875 -44.921875 L 21.296875 -44.921875 C 23.585938 -44.921875 25.492188 -44.835938 27.015625 -44.671875 Z M 24.875 -7.296875 C 28.300781 -7.722656 31.007812 -9.300781 33 -12.03125 C 35 -14.769531 36 -18.398438 36 -22.921875 C 36 -27.253906 35.019531 -30.679688 33.0625 -33.203125 C 31.113281 -35.722656 28.445312 -37.203125 25.0625 -37.640625 C 23.71875 -37.804688 22.113281 -37.890625 20.25 -37.890625 L 14.78125 -37.890625 L 14.78125 -7.09375 L 20.125 -7.09375 C 22.332031 -7.09375 23.914062 -7.160156 24.875 -7.296875 Z M 24.875 -7.296875" transform="translate(146.043 207.384)"/></g></g></g><g fill="#001392" fill-opacity=".4"><g><g><path d="M 35.546875 -18.03125 C 35.546875 -16.769531 35.503906 -15.75 35.421875 -14.96875 L 10.8125 -14.96875 C 11.332031 -8.59375 14 -5.40625 18.8125 -5.40625 C 20.769531 -5.40625 22.390625 -5.925781 23.671875 -6.96875 C 24.953125 -8.007812 25.742188 -9.441406 26.046875 -11.265625 L 35.03125 -11.265625 C 34.164062 -7.316406 32.265625 -4.300781 29.328125 -2.21875 C 26.398438 -0.132812 22.832031 0.90625 18.625 0.90625 C 13.632812 0.90625 9.578125 -0.644531 6.453125 -3.75 C 3.328125 -6.851562 1.765625 -11.332031 1.765625 -17.1875 C 1.765625 -22.570312 3.378906 -26.976562 6.609375 -30.40625 C 9.835938 -33.832031 14.082031 -35.546875 19.34375 -35.546875 C 24.414062 -35.546875 28.382812 -33.875 31.25 -30.53125 C 34.113281 -27.1875 35.546875 -23.019531 35.546875 -18.03125 Z M 18.953125 -29.234375 C 14.472656 -29.234375 11.84375 -26.429688 11.0625 -20.828125 L 26.296875 -20.828125 C 25.691406 -26.429688 23.242188 -29.234375 18.953125 -29.234375 Z M 18.953125 -29.234375" transform="translate(196.242 207.384)"/></g></g></g><g fill="#001392" fill-opacity=".4"><g><g><path d="M 36.921875 -34.640625 L 23.5 0 L 13.484375 0 L 0 -34.640625 L 9.96875 -34.640625 L 18.6875 -6.765625 L 27.21875 -34.640625 Z M 36.921875 -34.640625" transform="translate(236.48 207.384)"/></g></g></g><g fill="#001392" fill-opacity=".4"><g><g><path d="M 16.46875 -35.546875 C 20.46875 -35.546875 23.660156 -34.546875 26.046875 -32.546875 C 28.429688 -30.554688 29.816406 -27.910156 30.203125 -24.609375 L 21.21875 -24.609375 C 20.613281 -27.953125 18.835938 -29.625 15.890625 -29.625 C 14.585938 -29.625 13.578125 -29.285156 12.859375 -28.609375 C 12.140625 -27.941406 11.78125 -27.039062 11.78125 -25.90625 C 11.78125 -24.601562 12.363281 -23.5625 13.53125 -22.78125 C 14.707031 -22 16.75 -21.242188 19.65625 -20.515625 C 23.4375 -19.554688 26.257812 -18.226562 28.125 -16.53125 C 29.988281 -14.84375 30.921875 -12.476562 30.921875 -9.4375 C 30.921875 -6.09375 29.585938 -3.53125 26.921875 -1.75 C 24.253906 0.0195312 20.835938 0.90625 16.671875 0.90625 C 12.328125 0.90625 8.804688 -0.046875 6.109375 -1.953125 C 3.421875 -3.859375 1.84375 -6.722656 1.375 -10.546875 L 10.359375 -10.546875 C 10.703125 -8.722656 11.445312 -7.34375 12.59375 -6.40625 C 13.75 -5.476562 15.148438 -5.015625 16.796875 -5.015625 C 18.316406 -5.015625 19.539062 -5.335938 20.46875 -5.984375 C 21.40625 -6.640625 21.875 -7.578125 21.875 -8.796875 C 21.875 -10.140625 21.242188 -11.234375 19.984375 -12.078125 C 18.722656 -12.921875 16.597656 -13.710938 13.609375 -14.453125 C 10.085938 -15.316406 7.394531 -16.5625 5.53125 -18.1875 C 3.664062 -19.820312 2.734375 -22.050781 2.734375 -24.875 C 2.734375 -28.164062 3.976562 -30.765625 6.46875 -32.671875 C 8.96875 -34.585938 12.300781 -35.546875 16.46875 -35.546875 Z M 16.46875 -35.546875" transform="translate(275.937 207.384)"/></g></g></g><g fill="#001392"><g><g><path d="M 27.015625 -44.671875 C 32.578125 -44.015625 37.050781 -41.882812 40.4375 -38.28125 C 43.820312 -34.675781 45.515625 -29.597656 45.515625 -23.046875 C 45.515625 -16.453125 43.773438 -11.164062 40.296875 -7.1875 C 36.828125 -3.21875 32.359375 -0.910156 26.890625 -0.265625 C 25.367188 -0.0859375 23.457031 0 21.15625 0 L 5.796875 0 L 5.796875 -44.921875 L 21.296875 -44.921875 C 23.585938 -44.921875 25.492188 -44.835938 27.015625 -44.671875 Z M 24.875 -7.296875 C 28.300781 -7.722656 31.007812 -9.300781 33 -12.03125 C 35 -14.769531 36 -18.398438 36 -22.921875 C 36 -27.253906 35.019531 -30.679688 33.0625 -33.203125 C 31.113281 -35.722656 28.445312 -37.203125 25.0625 -37.640625 C 23.71875 -37.804688 22.113281 -37.890625 20.25 -37.890625 L 14.78125 -37.890625 L 14.78125 -7.09375 L 20.125 -7.09375 C 22.332031 -7.09375 23.914062 -7.160156 24.875 -7.296875 Z M 24.875 -7.296875" transform="translate(143.165 204.506)"/></g></g></g><g fill="#001392"><g><g><path d="M 35.546875 -18.03125 C 35.546875 -16.769531 35.503906 -15.75 35.421875 -14.96875 L 10.8125 -14.96875 C 11.332031 -8.59375 14 -5.40625 18.8125 -5.40625 C 20.769531 -5.40625 22.390625 -5.925781 23.671875 -6.96875 C 24.953125 -8.007812 25.742188 -9.441406 26.046875 -11.265625 L 35.03125 -11.265625 C 34.164062 -7.316406 32.265625 -4.300781 29.328125 -2.21875 C 26.398438 -0.132812 22.832031 0.90625 18.625 0.90625 C 13.632812 0.90625 9.578125 -0.644531 6.453125 -3.75 C 3.328125 -6.851562 1.765625 -11.332031 1.765625 -17.1875 C 1.765625 -22.570312 3.378906 -26.976562 6.609375 -30.40625 C 9.835938 -33.832031 14.082031 -35.546875 19.34375 -35.546875 C 24.414062 -35.546875 28.382812 -33.875 31.25 -30.53125 C 34.113281 -27.1875 35.546875 -23.019531 35.546875 -18.03125 Z M 18.953125 -29.234375 C 14.472656 -29.234375 11.84375 -26.429688 11.0625 -20.828125 L 26.296875 -20.828125 C 25.691406 -26.429688 23.242188 -29.234375 18.953125 -29.234375 Z M 18.953125 -29.234375" transform="translate(193.365 204.506)"/></g></g></g><g fill="#001392"><g><g><path d="M 36.921875 -34.640625 L 23.5 0 L 13.484375 0 L 0 -34.640625 L 9.96875 -34.640625 L 18.6875 -6.765625 L 27.21875 -34.640625 Z M 36.921875 -34.640625" transform="translate(233.602 204.506)"/></g></g></g><g fill="#001392"><g><g><path d="M 16.46875 -35.546875 C 20.46875 -35.546875 23.660156 -34.546875 26.046875 -32.546875 C 28.429688 -30.554688 29.816406 -27.910156 30.203125 -24.609375 L 21.21875 -24.609375 C 20.613281 -27.953125 18.835938 -29.625 15.890625 -29.625 C 14.585938 -29.625 13.578125 -29.285156 12.859375 -28.609375 C 12.140625 -27.941406 11.78125 -27.039062 11.78125 -25.90625 C 11.78125 -24.601562 12.363281 -23.5625 13.53125 -22.78125 C 14.707031 -22 16.75 -21.242188 19.65625 -20.515625 C 23.4375 -19.554688 26.257812 -18.226562 28.125 -16.53125 C 29.988281 -14.84375 30.921875 -12.476562 30.921875 -9.4375 C 30.921875 -6.09375 29.585938 -3.53125 26.921875 -1.75 C 24.253906 0.0195312 20.835938 0.90625 16.671875 0.90625 C 12.328125 0.90625 8.804688 -0.046875 6.109375 -1.953125 C 3.421875 -3.859375 1.84375 -6.722656 1.375 -10.546875 L 10.359375 -10.546875 C 10.703125 -8.722656 11.445312 -7.34375 12.59375 -6.40625 C 13.75 -5.476562 15.148438 -5.015625 16.796875 -5.015625 C 18.316406 -5.015625 19.539062 -5.335938 20.46875 -5.984375 C 21.40625 -6.640625 21.875 -7.578125 21.875 -8.796875 C 21.875 -10.140625 21.242188 -11.234375 19.984375 -12.078125 C 18.722656 -12.921875 16.597656 -13.710938 13.609375 -14.453125 C 10.085938 -15.316406 7.394531 -16.5625 5.53125 -18.1875 C 3.664062 -19.820312 2.734375 -22.050781 2.734375 -24.875 C 2.734375 -28.164062 3.976562 -30.765625 6.46875 -32.671875 C 8.96875 -34.585938 12.300781 -35.546875 16.46875 -35.546875 Z M 16.46875 -35.546875" transform="translate(273.06 204.506)"/></g></g></g><g fill="#001392" fill-opacity=".4"><g><g><path d="M 26.859375 -44.390625 C 32.378906 -43.742188 36.820312 -41.628906 40.1875 -38.046875 C 43.550781 -34.460938 45.234375 -29.414062 45.234375 -22.90625 C 45.234375 -16.34375 43.503906 -11.085938 40.046875 -7.140625 C 36.597656 -3.203125 32.15625 -0.910156 26.71875 -0.265625 C 25.207031 -0.0859375 23.3125 0 21.03125 0 L 5.765625 0 L 5.765625 -44.640625 L 21.15625 -44.640625 C 23.445312 -44.640625 25.347656 -44.554688 26.859375 -44.390625 Z M 24.71875 -7.25 C 28.125 -7.675781 30.816406 -9.25 32.796875 -11.96875 C 34.785156 -14.6875 35.78125 -18.289062 35.78125 -22.78125 C 35.78125 -27.09375 34.804688 -30.5 32.859375 -33 C 30.921875 -35.5 28.269531 -36.96875 24.90625 -37.40625 C 23.570312 -37.570312 21.976562 -37.65625 20.125 -37.65625 L 14.6875 -37.65625 L 14.6875 -7.046875 L 20 -7.046875 C 22.195312 -7.046875 23.769531 -7.113281 24.71875 -7.25 Z M 24.71875 -7.25" transform="translate(31.764 130.422)"/></g></g></g><g fill="#001392" fill-opacity=".4"><g><g><path d="M 35.328125 -17.921875 C 35.328125 -16.671875 35.285156 -15.65625 35.203125 -14.875 L 10.734375 -14.875 C 11.253906 -8.539062 13.910156 -5.375 18.703125 -5.375 C 20.640625 -5.375 22.242188 -5.890625 23.515625 -6.921875 C 24.785156 -7.953125 25.570312 -9.375 25.875 -11.1875 L 34.8125 -11.1875 C 33.945312 -7.269531 32.054688 -4.273438 29.140625 -2.203125 C 26.234375 -0.128906 22.6875 0.90625 18.5 0.90625 C 13.539062 0.90625 9.507812 -0.632812 6.40625 -3.71875 C 3.300781 -6.800781 1.75 -11.253906 1.75 -17.078125 C 1.75 -22.429688 3.351562 -26.8125 6.5625 -30.21875 C 9.78125 -33.625 14 -35.328125 19.21875 -35.328125 C 24.257812 -35.328125 28.203125 -33.664062 31.046875 -30.34375 C 33.898438 -27.019531 35.328125 -22.878906 35.328125 -17.921875 Z M 18.828125 -29.046875 C 14.390625 -29.046875 11.78125 -26.265625 11 -20.703125 L 26.140625 -20.703125 C 25.535156 -26.265625 23.097656 -29.046875 18.828125 -29.046875 Z M 18.828125 -29.046875" transform="translate(81.647 130.422)"/></g></g></g><g fill="#001392" fill-opacity=".4"><g><g><path d="M 35.328125 -17.921875 C 35.328125 -16.671875 35.285156 -15.65625 35.203125 -14.875 L 10.734375 -14.875 C 11.253906 -8.539062 13.910156 -5.375 18.703125 -5.375 C 20.640625 -5.375 22.242188 -5.890625 23.515625 -6.921875 C 24.785156 -7.953125 25.570312 -9.375 25.875 -11.1875 L 34.8125 -11.1875 C 33.945312 -7.269531 32.054688 -4.273438 29.140625 -2.203125 C 26.234375 -0.128906 22.6875 0.90625 18.5 0.90625 C 13.539062 0.90625 9.507812 -0.632812 6.40625 -3.71875 C 3.300781 -6.800781 1.75 -11.253906 1.75 -17.078125 C 1.75 -22.429688 3.351562 -26.8125 6.5625 -30.21875 C 9.78125 -33.625 14 -35.328125 19.21875 -35.328125 C 24.257812 -35.328125 28.203125 -33.664062 31.046875 -30.34375 C 33.898438 -27.019531 35.328125 -22.878906 35.328125 -17.921875 Z M 18.828125 -29.046875 C 14.390625 -29.046875 11.78125 -26.265625 11 -20.703125 L 26.140625 -20.703125 C 25.535156 -26.265625 23.097656 -29.046875 18.828125 -29.046875 Z M 18.828125 -29.046875" transform="translate(121.632 130.422)"/></g></g></g><g fill="#001392" fill-opacity=".4"><g><g><path d="M 36.6875 -34.421875 L 23.359375 0 L 13.390625 0 L 0 -34.421875 L 9.90625 -34.421875 L 18.5625 -6.734375 L 27.046875 -34.421875 Z M 36.6875 -34.421875" transform="translate(161.617 130.422)"/></g></g></g><g fill="#001392"><g><g><path d="M 26.859375 -44.390625 C 32.378906 -43.742188 36.820312 -41.628906 40.1875 -38.046875 C 43.550781 -34.460938 45.234375 -29.414062 45.234375 -22.90625 C 45.234375 -16.34375 43.503906 -11.085938 40.046875 -7.140625 C 36.597656 -3.203125 32.15625 -0.910156 26.71875 -0.265625 C 25.207031 -0.0859375 23.3125 0 21.03125 0 L 5.765625 0 L 5.765625 -44.640625 L 21.15625 -44.640625 C 23.445312 -44.640625 25.347656 -44.554688 26.859375 -44.390625 Z M 24.71875 -7.25 C 28.125 -7.675781 30.816406 -9.25 32.796875 -11.96875 C 34.785156 -14.6875 35.78125 -18.289062 35.78125 -22.78125 C 35.78125 -27.09375 34.804688 -30.5 32.859375 -33 C 30.921875 -35.5 28.269531 -36.96875 24.90625 -37.40625 C 23.570312 -37.570312 21.976562 -37.65625 20.125 -37.65625 L 14.6875 -37.65625 L 14.6875 -7.046875 L 20 -7.046875 C 22.195312 -7.046875 23.769531 -7.113281 24.71875 -7.25 Z M 24.71875 -7.25" transform="translate(28.904 127.562)"/></g></g></g><g fill="#001392"><g><g><path d="M 35.328125 -17.921875 C 35.328125 -16.671875 35.285156 -15.65625 35.203125 -14.875 L 10.734375 -14.875 C 11.253906 -8.539062 13.910156 -5.375 18.703125 -5.375 C 20.640625 -5.375 22.242188 -5.890625 23.515625 -6.921875 C 24.785156 -7.953125 25.570312 -9.375 25.875 -11.1875 L 34.8125 -11.1875 C 33.945312 -7.269531 32.054688 -4.273438 29.140625 -2.203125 C 26.234375 -0.128906 22.6875 0.90625 18.5 0.90625 C 13.539062 0.90625 9.507812 -0.632812 6.40625 -3.71875 C 3.300781 -6.800781 1.75 -11.253906 1.75 -17.078125 C 1.75 -22.429688 3.351562 -26.8125 6.5625 -30.21875 C 9.78125 -33.625 14 -35.328125 19.21875 -35.328125 C 24.257812 -35.328125 28.203125 -33.664062 31.046875 -30.34375 C 33.898438 -27.019531 35.328125 -22.878906 35.328125 -17.921875 Z M 18.828125 -29.046875 C 14.390625 -29.046875 11.78125 -26.265625 11 -20.703125 L 26.140625 -20.703125 C 25.535156 -26.265625 23.097656 -29.046875 18.828125 -29.046875 Z M 18.828125 -29.046875" transform="translate(78.787 127.562)"/></g></g></g><g fill="#001392"><g><g><path d="M 35.328125 -17.921875 C 35.328125 -16.671875 35.285156 -15.65625 35.203125 -14.875 L 10.734375 -14.875 C 11.253906 -8.539062 13.910156 -5.375 18.703125 -5.375 C 20.640625 -5.375 22.242188 -5.890625 23.515625 -6.921875 C 24.785156 -7.953125 25.570312 -9.375 25.875 -11.1875 L 34.8125 -11.1875 C 33.945312 -7.269531 32.054688 -4.273438 29.140625 -2.203125 C 26.234375 -0.128906 22.6875 0.90625 18.5 0.90625 C 13.539062 0.90625 9.507812 -0.632812 6.40625 -3.71875 C 3.300781 -6.800781 1.75 -11.253906 1.75 -17.078125 C 1.75 -22.429688 3.351562 -26.8125 6.5625 -30.21875 C 9.78125 -33.625 14 -35.328125 19.21875 -35.328125 C 24.257812 -35.328125 28.203125 -33.664062 31.046875 -30.34375 C 33.898438 -27.019531 35.328125 -22.878906 35.328125 -17.921875 Z M 18.828125 -29.046875 C 14.390625 -29.046875 11.78125 -26.265625 11 -20.703125 L 26.140625 -20.703125 C 25.535156 -26.265625 23.097656 -29.046875 18.828125 -29.046875 Z M 18.828125 -29.046875" transform="translate(118.772 127.562)"/></g></g></g><g fill="#001392"><g><g><path d="M 36.6875 -34.421875 L 23.359375 0 L 13.390625 0 L 0 -34.421875 L 9.90625 -34.421875 L 18.5625 -6.734375 L 27.046875 -34.421875 Z M 36.6875 -34.421875" transform="translate(158.757 127.562)"/></g></g></g><g fill="#001392" fill-opacity=".4"><g><g><path d="M 7.6875 -19.703125 L 7.6875 -13.546875 L 18.359375 -13.546875 L 18.359375 -9.859375 L 7.6875 -9.859375 L 7.6875 0 L 3.015625 0 L 3.015625 -23.359375 L 19.53125 -23.359375 L 19.53125 -19.703125 Z M 7.6875 -19.703125" transform="translate(17.461 310.083)"/></g></g></g><g fill="#001392" fill-opacity=".4"><g><g><path d="M 18.765625 -18.015625 L 18.765625 0 L 14.078125 0 L 14.078125 -3.046875 L 12.703125 -0.75 C 11.484375 0.0625 10.035156 0.46875 8.359375 0.46875 C 6.578125 0.46875 5.128906 0.0351562 4.015625 -0.828125 C 2.898438 -1.703125 2.226562 -2.789062 2 -4.09375 C 1.882812 -4.863281 1.828125 -5.957031 1.828125 -7.375 L 1.828125 -18.015625 L 6.5 -18.015625 L 6.5 -8.359375 C 6.5 -7.523438 6.546875 -6.703125 6.640625 -5.890625 C 6.890625 -3.859375 8.050781 -2.84375 10.125 -2.84375 C 11.34375 -2.84375 12.304688 -3.347656 13.015625 -4.359375 C 13.722656 -5.378906 14.078125 -6.875 14.078125 -8.84375 L 14.078125 -18.015625 Z M 18.765625 -18.015625" transform="translate(38.892 310.083)"/></g></g></g><g fill="#001392" fill-opacity=".4"><g><g><path d="M 6.671875 -24.890625 L 6.671875 -5.890625 C 6.671875 -5.097656 6.679688 -4.546875 6.703125 -4.234375 C 6.742188 -3.753906 6.910156 -3.4375 7.203125 -3.28125 C 7.503906 -3.125 8.035156 -3.066406 8.796875 -3.109375 L 8.796875 0.109375 C 7.984375 0.191406 7.023438 0.234375 5.921875 0.234375 C 3.441406 0.234375 2.15625 -0.828125 2.0625 -2.953125 C 2.019531 -3.492188 2 -4.441406 2 -5.796875 L 2 -24.890625 Z M 6.671875 -24.890625" transform="translate(61.17 310.083)"/></g></g></g><g fill="#001392" fill-opacity=".4"><g><g><path d="M 6.671875 -24.890625 L 6.671875 -5.890625 C 6.671875 -5.097656 6.679688 -4.546875 6.703125 -4.234375 C 6.742188 -3.753906 6.910156 -3.4375 7.203125 -3.28125 C 7.503906 -3.125 8.035156 -3.066406 8.796875 -3.109375 L 8.796875 0.109375 C 7.984375 0.191406 7.023438 0.234375 5.921875 0.234375 C 3.441406 0.234375 2.15625 -0.828125 2.0625 -2.953125 C 2.019531 -3.492188 2 -4.441406 2 -5.796875 L 2 -24.890625 Z M 6.671875 -24.890625" transform="translate(71.97 310.083)"/></g></g></g><g fill="#001392" fill-opacity=".4"><g><g><path d="M 8.9375 -8.265625 L 1.078125 -8.265625 L 1.078125 -10.90625 L 8.9375 -10.90625 Z M 8.9375 -8.265625" transform="translate(82.77 310.083)"/></g></g></g><g fill="#001392" fill-opacity=".4"><g><g><path d="M 8.5625 -18.484375 C 10.644531 -18.484375 12.304688 -17.960938 13.546875 -16.921875 C 14.785156 -15.890625 15.503906 -14.515625 15.703125 -12.796875 L 11.03125 -12.796875 C 10.71875 -14.535156 9.796875 -15.40625 8.265625 -15.40625 C 7.585938 -15.40625 7.0625 -15.226562 6.6875 -14.875 C 6.3125 -14.53125 6.125 -14.0625 6.125 -13.46875 C 6.125 -12.789062 6.425781 -12.25 7.03125 -11.84375 C 7.644531 -11.4375 8.707031 -11.046875 10.21875 -10.671875 C 12.1875 -10.171875 13.65625 -9.476562 14.625 -8.59375 C 15.59375 -7.71875 16.078125 -6.488281 16.078125 -4.90625 C 16.078125 -3.164062 15.382812 -1.832031 14 -0.90625 C 12.613281 0.0078125 10.835938 0.46875 8.671875 0.46875 C 6.410156 0.46875 4.578125 -0.0234375 3.171875 -1.015625 C 1.773438 -2.003906 0.957031 -3.492188 0.71875 -5.484375 L 5.390625 -5.484375 C 5.566406 -4.535156 5.953125 -3.816406 6.546875 -3.328125 C 7.148438 -2.847656 7.878906 -2.609375 8.734375 -2.609375 C 9.523438 -2.609375 10.160156 -2.773438 10.640625 -3.109375 C 11.128906 -3.453125 11.375 -3.941406 11.375 -4.578125 C 11.375 -5.273438 11.046875 -5.84375 10.390625 -6.28125 C 9.734375 -6.71875 8.628906 -7.128906 7.078125 -7.515625 C 5.242188 -7.960938 3.84375 -8.609375 2.875 -9.453125 C 1.90625 -10.304688 1.421875 -11.46875 1.421875 -12.9375 C 1.421875 -14.644531 2.066406 -15.992188 3.359375 -16.984375 C 4.660156 -17.984375 6.394531 -18.484375 8.5625 -18.484375 Z M 8.5625 -18.484375" transform="translate(94.146 310.083)"/></g></g></g><g fill="#001392" fill-opacity=".4"><g><g><path d="M 7.71875 -14.796875 L 7.71875 -6.46875 C 7.71875 -5.71875 7.726562 -5.1875 7.75 -4.875 C 7.820312 -4 8.082031 -3.429688 8.53125 -3.171875 C 8.976562 -2.910156 9.847656 -2.820312 11.140625 -2.90625 L 11.140625 0.140625 C 10.171875 0.296875 9.144531 0.375 8.0625 0.375 C 6.34375 0.375 5.113281 0.0859375 4.375 -0.484375 C 3.644531 -1.066406 3.222656 -2.007812 3.109375 -3.3125 C 3.066406 -3.851562 3.046875 -4.722656 3.046875 -5.921875 L 3.046875 -14.796875 L 0.40625 -14.796875 L 0.40625 -17.875 L 3.046875 -17.875 L 3.046875 -22.3125 L 7.71875 -22.3125 L 7.71875 -17.875 L 11.4375 -17.875 L 11.4375 -14.796875 Z M 7.71875 -14.796875" transform="translate(112.327 310.083)"/></g></g></g><g fill="#001392" fill-opacity=".4"><g><g><path d="M 12.59375 0 L 12.25 -2.640625 L 11.375 -0.71875 C 10.195312 0.0703125 8.707031 0.46875 6.90625 0.46875 C 5.257812 0.46875 3.882812 0.0078125 2.78125 -0.90625 C 1.675781 -1.832031 1.125 -3.125 1.125 -4.78125 C 1.125 -6.757812 1.960938 -8.285156 3.640625 -9.359375 C 5.316406 -10.429688 7.78125 -10.96875 11.03125 -10.96875 L 12.1875 -10.96875 L 12.1875 -11.34375 C 12.1875 -12.0625 12.164062 -12.625 12.125 -13.03125 C 11.96875 -14.476562 11.039062 -15.203125 9.34375 -15.203125 C 7.46875 -15.203125 6.460938 -14.1875 6.328125 -12.15625 L 1.796875 -12.125 C 1.859375 -14.101562 2.609375 -15.65625 4.046875 -16.78125 C 5.484375 -17.914062 7.304688 -18.484375 9.515625 -18.484375 C 14.003906 -18.484375 16.410156 -16.710938 16.734375 -13.171875 C 16.796875 -12.316406 16.828125 -11.390625 16.828125 -10.390625 L 16.828125 -4.578125 C 16.828125 -3.191406 16.941406 -1.664062 17.171875 0 Z M 8.703125 -2.8125 C 9.691406 -2.8125 10.519531 -3.148438 11.1875 -3.828125 C 11.851562 -4.503906 12.1875 -5.441406 12.1875 -6.640625 L 12.1875 -8.09375 C 8.03125 -8.382812 5.953125 -7.398438 5.953125 -5.140625 C 5.953125 -3.585938 6.867188 -2.8125 8.703125 -2.8125 Z M 8.703125 -2.8125" transform="translate(125.904 310.083)"/></g></g></g><g fill="#001392" fill-opacity=".4"><g><g><path d="M 9.921875 -18.484375 C 12.285156 -18.484375 14.203125 -17.832031 15.671875 -16.53125 C 17.140625 -15.238281 17.96875 -13.566406 18.15625 -11.515625 L 13.546875 -11.515625 C 13.140625 -13.972656 11.894531 -15.203125 9.8125 -15.203125 C 8.570312 -15.203125 7.582031 -14.691406 6.84375 -13.671875 C 6.113281 -12.660156 5.75 -11.160156 5.75 -9.171875 C 5.75 -7.023438 6.109375 -5.425781 6.828125 -4.375 C 7.554688 -3.332031 8.539062 -2.8125 9.78125 -2.8125 C 10.707031 -2.8125 11.492188 -3.101562 12.140625 -3.6875 C 12.785156 -4.28125 13.21875 -5.128906 13.4375 -6.234375 L 18.109375 -6.234375 C 17.734375 -4.066406 16.78125 -2.40625 15.25 -1.25 C 13.726562 -0.101562 11.816406 0.46875 9.515625 0.46875 C 6.960938 0.46875 4.890625 -0.335938 3.296875 -1.953125 C 1.710938 -3.566406 0.921875 -5.875 0.921875 -8.875 C 0.921875 -11.851562 1.773438 -14.195312 3.484375 -15.90625 C 5.203125 -17.625 7.347656 -18.484375 9.921875 -18.484375 Z M 9.921875 -18.484375" transform="translate(146.285 310.083)"/></g></g></g><g fill="#001392" fill-opacity=".4"><g><g><path d="M 8.296875 -7.109375 L 6.8125 -5.484375 L 6.8125 0 L 2.140625 0 L 2.140625 -24.890625 L 6.8125 -24.890625 L 6.8125 -9.78125 L 14.046875 -18.015625 L 19.671875 -18.015625 L 11.6875 -9.65625 L 19.78125 0 L 13.875 0 Z M 8.296875 -7.109375" transform="translate(166.633 310.083)"/></g></g></g><g fill="#001392" fill-opacity=".4"><g><g><path d="M 8.5625 -18.484375 C 10.644531 -18.484375 12.304688 -17.960938 13.546875 -16.921875 C 14.785156 -15.890625 15.503906 -14.515625 15.703125 -12.796875 L 11.03125 -12.796875 C 10.71875 -14.535156 9.796875 -15.40625 8.265625 -15.40625 C 7.585938 -15.40625 7.0625 -15.226562 6.6875 -14.875 C 6.3125 -14.53125 6.125 -14.0625 6.125 -13.46875 C 6.125 -12.789062 6.425781 -12.25 7.03125 -11.84375 C 7.644531 -11.4375 8.707031 -11.046875 10.21875 -10.671875 C 12.1875 -10.171875 13.65625 -9.476562 14.625 -8.59375 C 15.59375 -7.71875 16.078125 -6.488281 16.078125 -4.90625 C 16.078125 -3.164062 15.382812 -1.832031 14 -0.90625 C 12.613281 0.0078125 10.835938 0.46875 8.671875 0.46875 C 6.410156 0.46875 4.578125 -0.0234375 3.171875 -1.015625 C 1.773438 -2.003906 0.957031 -3.492188 0.71875 -5.484375 L 5.390625 -5.484375 C 5.566406 -4.535156 5.953125 -3.816406 6.546875 -3.328125 C 7.148438 -2.847656 7.878906 -2.609375 8.734375 -2.609375 C 9.523438 -2.609375 10.160156 -2.773438 10.640625 -3.109375 C 11.128906 -3.453125 11.375 -3.941406 11.375 -4.578125 C 11.375 -5.273438 11.046875 -5.84375 10.390625 -6.28125 C 9.734375 -6.71875 8.628906 -7.128906 7.078125 -7.515625 C 5.242188 -7.960938 3.84375 -8.609375 2.875 -9.453125 C 1.90625 -10.304688 1.421875 -11.46875 1.421875 -12.9375 C 1.421875 -14.644531 2.066406 -15.992188 3.359375 -16.984375 C 4.660156 -17.984375 6.394531 -18.484375 8.5625 -18.484375 Z M 8.5625 -18.484375" transform="translate(195.648 310.083)"/></g></g></g><g fill="#001392" fill-opacity=".4"><g><g><path d="M 12.828125 -18.484375 C 15.316406 -18.484375 17.273438 -17.632812 18.703125 -15.9375 C 20.140625 -14.25 20.859375 -12.050781 20.859375 -9.34375 C 20.859375 -6.226562 20.03125 -3.8125 18.375 -2.09375 C 16.726562 -0.382812 14.675781 0.46875 12.21875 0.46875 C 10.375 0.46875 8.960938 0.128906 7.984375 -0.546875 L 6.8125 -2.40625 L 6.8125 6.640625 L 2.140625 6.640625 L 2.140625 -18.015625 L 6.8125 -18.015625 L 6.8125 -15.265625 L 8.15625 -17.234375 C 9.195312 -18.066406 10.753906 -18.484375 12.828125 -18.484375 Z M 11.3125 -2.8125 C 12.707031 -2.8125 13.835938 -3.347656 14.703125 -4.421875 C 15.578125 -5.492188 16.015625 -7.035156 16.015625 -9.046875 C 16.015625 -10.890625 15.601562 -12.375 14.78125 -13.5 C 13.957031 -14.632812 12.859375 -15.203125 11.484375 -15.203125 C 10.078125 -15.203125 8.945312 -14.722656 8.09375 -13.765625 C 7.238281 -12.804688 6.8125 -11.285156 6.8125 -9.203125 L 6.8125 -8.359375 C 6.8125 -6.460938 7.25 -5.0625 8.125 -4.15625 C 9.007812 -3.257812 10.070312 -2.8125 11.3125 -2.8125 Z M 11.3125 -2.8125" transform="translate(213.83 310.083)"/></g></g></g><g fill="#001392" fill-opacity=".4"><g><g><path d="M 18.484375 -9.375 C 18.484375 -8.71875 18.460938 -8.1875 18.421875 -7.78125 L 5.625 -7.78125 C 5.894531 -4.46875 7.28125 -2.8125 9.78125 -2.8125 C 10.800781 -2.8125 11.644531 -3.082031 12.3125 -3.625 C 12.976562 -4.164062 13.390625 -4.910156 13.546875 -5.859375 L 18.21875 -5.859375 C 17.769531 -3.804688 16.78125 -2.238281 15.25 -1.15625 C 13.726562 -0.0703125 11.875 0.46875 9.6875 0.46875 C 7.09375 0.46875 4.984375 -0.335938 3.359375 -1.953125 C 1.734375 -3.566406 0.921875 -5.894531 0.921875 -8.9375 C 0.921875 -11.738281 1.757812 -14.03125 3.4375 -15.8125 C 5.113281 -17.59375 7.320312 -18.484375 10.0625 -18.484375 C 12.695312 -18.484375 14.757812 -17.613281 16.25 -15.875 C 17.738281 -14.132812 18.484375 -11.96875 18.484375 -9.375 Z M 9.859375 -15.203125 C 7.523438 -15.203125 6.15625 -13.742188 5.75 -10.828125 L 13.671875 -10.828125 C 13.359375 -13.742188 12.085938 -15.203125 9.859375 -15.203125 Z M 9.859375 -15.203125" transform="translate(236.953 310.083)"/></g></g></g><g fill="#001392" fill-opacity=".4"><g><g><path d="M 9.921875 -18.484375 C 12.285156 -18.484375 14.203125 -17.832031 15.671875 -16.53125 C 17.140625 -15.238281 17.96875 -13.566406 18.15625 -11.515625 L 13.546875 -11.515625 C 13.140625 -13.972656 11.894531 -15.203125 9.8125 -15.203125 C 8.570312 -15.203125 7.582031 -14.691406 6.84375 -13.671875 C 6.113281 -12.660156 5.75 -11.160156 5.75 -9.171875 C 5.75 -7.023438 6.109375 -5.425781 6.828125 -4.375 C 7.554688 -3.332031 8.539062 -2.8125 9.78125 -2.8125 C 10.707031 -2.8125 11.492188 -3.101562 12.140625 -3.6875 C 12.785156 -4.28125 13.21875 -5.128906 13.4375 -6.234375 L 18.109375 -6.234375 C 17.734375 -4.066406 16.78125 -2.40625 15.25 -1.25 C 13.726562 -0.101562 11.816406 0.46875 9.515625 0.46875 C 6.960938 0.46875 4.890625 -0.335938 3.296875 -1.953125 C 1.710938 -3.566406 0.921875 -5.875 0.921875 -8.875 C 0.921875 -11.851562 1.773438 -14.195312 3.484375 -15.90625 C 5.203125 -17.625 7.347656 -18.484375 9.921875 -18.484375 Z M 9.921875 -18.484375" transform="translate(257.876 310.083)"/></g></g></g><g fill="#001392" fill-opacity=".4"><g><g><path d="M 2.59375 -24.015625 C 3.070312 -24.484375 3.695312 -24.71875 4.46875 -24.71875 C 5.238281 -24.71875 5.859375 -24.484375 6.328125 -24.015625 C 6.804688 -23.554688 7.046875 -22.96875 7.046875 -22.25 C 7.046875 -21.5 6.804688 -20.898438 6.328125 -20.453125 C 5.859375 -20.003906 5.238281 -19.78125 4.46875 -19.78125 C 3.695312 -19.78125 3.070312 -20.003906 2.59375 -20.453125 C 2.125 -20.898438 1.890625 -21.5 1.890625 -22.25 C 1.890625 -22.96875 2.125 -23.554688 2.59375 -24.015625 Z M 6.8125 0 L 2.140625 0 L 2.140625 -18.015625 L 6.8125 -18.015625 Z M 6.8125 0" transform="translate(278.224 310.083)"/></g></g></g><g fill="#001392" fill-opacity=".4"><g><g><path d="M 12.59375 0 L 12.25 -2.640625 L 11.375 -0.71875 C 10.195312 0.0703125 8.707031 0.46875 6.90625 0.46875 C 5.257812 0.46875 3.882812 0.0078125 2.78125 -0.90625 C 1.675781 -1.832031 1.125 -3.125 1.125 -4.78125 C 1.125 -6.757812 1.960938 -8.285156 3.640625 -9.359375 C 5.316406 -10.429688 7.78125 -10.96875 11.03125 -10.96875 L 12.1875 -10.96875 L 12.1875 -11.34375 C 12.1875 -12.0625 12.164062 -12.625 12.125 -13.03125 C 11.96875 -14.476562 11.039062 -15.203125 9.34375 -15.203125 C 7.46875 -15.203125 6.460938 -14.1875 6.328125 -12.15625 L 1.796875 -12.125 C 1.859375 -14.101562 2.609375 -15.65625 4.046875 -16.78125 C 5.484375 -17.914062 7.304688 -18.484375 9.515625 -18.484375 C 14.003906 -18.484375 16.410156 -16.710938 16.734375 -13.171875 C 16.796875 -12.316406 16.828125 -11.390625 16.828125 -10.390625 L 16.828125 -4.578125 C 16.828125 -3.191406 16.941406 -1.664062 17.171875 0 Z M 8.703125 -2.8125 C 9.691406 -2.8125 10.519531 -3.148438 11.1875 -3.828125 C 11.851562 -4.503906 12.1875 -5.441406 12.1875 -6.640625 L 12.1875 -8.09375 C 8.03125 -8.382812 5.953125 -7.398438 5.953125 -5.140625 C 5.953125 -3.585938 6.867188 -2.8125 8.703125 -2.8125 Z M 8.703125 -2.8125" transform="translate(288.584 310.083)"/></g></g></g><g fill="#001392" fill-opacity=".4"><g><g><path d="M 6.671875 -24.890625 L 6.671875 -5.890625 C 6.671875 -5.097656 6.679688 -4.546875 6.703125 -4.234375 C 6.742188 -3.753906 6.910156 -3.4375 7.203125 -3.28125 C 7.503906 -3.125 8.035156 -3.066406 8.796875 -3.109375 L 8.796875 0.109375 C 7.984375 0.191406 7.023438 0.234375 5.921875 0.234375 C 3.441406 0.234375 2.15625 -0.828125 2.0625 -2.953125 C 2.019531 -3.492188 2 -4.441406 2 -5.796875 L 2 -24.890625 Z M 6.671875 -24.890625" transform="translate(308.966 310.083)"/></g></g></g><g fill="#001392" fill-opacity=".4"><g><g><path d="M 2.59375 -24.015625 C 3.070312 -24.484375 3.695312 -24.71875 4.46875 -24.71875 C 5.238281 -24.71875 5.859375 -24.484375 6.328125 -24.015625 C 6.804688 -23.554688 7.046875 -22.96875 7.046875 -22.25 C 7.046875 -21.5 6.804688 -20.898438 6.328125 -20.453125 C 5.859375 -20.003906 5.238281 -19.78125 4.46875 -19.78125 C 3.695312 -19.78125 3.070312 -20.003906 2.59375 -20.453125 C 2.125 -20.898438 1.890625 -21.5 1.890625 -22.25 C 1.890625 -22.96875 2.125 -23.554688 2.59375 -24.015625 Z M 6.8125 0 L 2.140625 0 L 2.140625 -18.015625 L 6.8125 -18.015625 Z M 6.8125 0" transform="translate(319.766 310.083)"/></g></g></g><g fill="#001392" fill-opacity=".4"><g><g><path d="M 8.5625 -18.484375 C 10.644531 -18.484375 12.304688 -17.960938 13.546875 -16.921875 C 14.785156 -15.890625 15.503906 -14.515625 15.703125 -12.796875 L 11.03125 -12.796875 C 10.71875 -14.535156 9.796875 -15.40625 8.265625 -15.40625 C 7.585938 -15.40625 7.0625 -15.226562 6.6875 -14.875 C 6.3125 -14.53125 6.125 -14.0625 6.125 -13.46875 C 6.125 -12.789062 6.425781 -12.25 7.03125 -11.84375 C 7.644531 -11.4375 8.707031 -11.046875 10.21875 -10.671875 C 12.1875 -10.171875 13.65625 -9.476562 14.625 -8.59375 C 15.59375 -7.71875 16.078125 -6.488281 16.078125 -4.90625 C 16.078125 -3.164062 15.382812 -1.832031 14 -0.90625 C 12.613281 0.0078125 10.835938 0.46875 8.671875 0.46875 C 6.410156 0.46875 4.578125 -0.0234375 3.171875 -1.015625 C 1.773438 -2.003906 0.957031 -3.492188 0.71875 -5.484375 L 5.390625 -5.484375 C 5.566406 -4.535156 5.953125 -3.816406 6.546875 -3.328125 C 7.148438 -2.847656 7.878906 -2.609375 8.734375 -2.609375 C 9.523438 -2.609375 10.160156 -2.773438 10.640625 -3.109375 C 11.128906 -3.453125 11.375 -3.941406 11.375 -4.578125 C 11.375 -5.273438 11.046875 -5.84375 10.390625 -6.28125 C 9.734375 -6.71875 8.628906 -7.128906 7.078125 -7.515625 C 5.242188 -7.960938 3.84375 -8.609375 2.875 -9.453125 C 1.90625 -10.304688 1.421875 -11.46875 1.421875 -12.9375 C 1.421875 -14.644531 2.066406 -15.992188 3.359375 -16.984375 C 4.660156 -17.984375 6.394531 -18.484375 8.5625 -18.484375 Z M 8.5625 -18.484375" transform="translate(330.126 310.083)"/></g></g></g><g fill="#001392" fill-opacity=".4"><g><g><path d="M 7.71875 -14.796875 L 7.71875 -6.46875 C 7.71875 -5.71875 7.726562 -5.1875 7.75 -4.875 C 7.820312 -4 8.082031 -3.429688 8.53125 -3.171875 C 8.976562 -2.910156 9.847656 -2.820312 11.140625 -2.90625 L 11.140625 0.140625 C 10.171875 0.296875 9.144531 0.375 8.0625 0.375 C 6.34375 0.375 5.113281 0.0859375 4.375 -0.484375 C 3.644531 -1.066406 3.222656 -2.007812 3.109375 -3.3125 C 3.066406 -3.851562 3.046875 -4.722656 3.046875 -5.921875 L 3.046875 -14.796875 L 0.40625 -14.796875 L 0.40625 -17.875 L 3.046875 -17.875 L 3.046875 -22.3125 L 7.71875 -22.3125 L 7.71875 -17.875 L 11.4375 -17.875 L 11.4375 -14.796875 Z M 7.71875 -14.796875" transform="translate(348.307 310.083)"/></g></g></g><g fill="#001392"><g><g><path d="M 7.6875 -19.703125 L 7.6875 -13.546875 L 18.359375 -13.546875 L 18.359375 -9.859375 L 7.6875 -9.859375 L 7.6875 0 L 3.015625 0 L 3.015625 -23.359375 L 19.53125 -23.359375 L 19.53125 -19.703125 Z M 7.6875 -19.703125" transform="translate(15.964 308.586)"/></g></g></g><g fill="#001392"><g><g><path d="M 18.765625 -18.015625 L 18.765625 0 L 14.078125 0 L 14.078125 -3.046875 L 12.703125 -0.75 C 11.484375 0.0625 10.035156 0.46875 8.359375 0.46875 C 6.578125 0.46875 5.128906 0.0351562 4.015625 -0.828125 C 2.898438 -1.703125 2.226562 -2.789062 2 -4.09375 C 1.882812 -4.863281 1.828125 -5.957031 1.828125 -7.375 L 1.828125 -18.015625 L 6.5 -18.015625 L 6.5 -8.359375 C 6.5 -7.523438 6.546875 -6.703125 6.640625 -5.890625 C 6.890625 -3.859375 8.050781 -2.84375 10.125 -2.84375 C 11.34375 -2.84375 12.304688 -3.347656 13.015625 -4.359375 C 13.722656 -5.378906 14.078125 -6.875 14.078125 -8.84375 L 14.078125 -18.015625 Z M 18.765625 -18.015625" transform="translate(37.396 308.586)"/></g></g></g><g fill="#001392"><g><g><path d="M 6.671875 -24.890625 L 6.671875 -5.890625 C 6.671875 -5.097656 6.679688 -4.546875 6.703125 -4.234375 C 6.742188 -3.753906 6.910156 -3.4375 7.203125 -3.28125 C 7.503906 -3.125 8.035156 -3.066406 8.796875 -3.109375 L 8.796875 0.109375 C 7.984375 0.191406 7.023438 0.234375 5.921875 0.234375 C 3.441406 0.234375 2.15625 -0.828125 2.0625 -2.953125 C 2.019531 -3.492188 2 -4.441406 2 -5.796875 L 2 -24.890625 Z M 6.671875 -24.890625" transform="translate(59.673 308.586)"/></g></g></g><g fill="#001392"><g><g><path d="M 6.671875 -24.890625 L 6.671875 -5.890625 C 6.671875 -5.097656 6.679688 -4.546875 6.703125 -4.234375 C 6.742188 -3.753906 6.910156 -3.4375 7.203125 -3.28125 C 7.503906 -3.125 8.035156 -3.066406 8.796875 -3.109375 L 8.796875 0.109375 C 7.984375 0.191406 7.023438 0.234375 5.921875 0.234375 C 3.441406 0.234375 2.15625 -0.828125 2.0625 -2.953125 C 2.019531 -3.492188 2 -4.441406 2 -5.796875 L 2 -24.890625 Z M 6.671875 -24.890625" transform="translate(70.473 308.586)"/></g></g></g><g fill="#001392"><g><g><path d="M 8.9375 -8.265625 L 1.078125 -8.265625 L 1.078125 -10.90625 L 8.9375 -10.90625 Z M 8.9375 -8.265625" transform="translate(81.274 308.586)"/></g></g></g><g fill="#001392"><g><g><path d="M 8.5625 -18.484375 C 10.644531 -18.484375 12.304688 -17.960938 13.546875 -16.921875 C 14.785156 -15.890625 15.503906 -14.515625 15.703125 -12.796875 L 11.03125 -12.796875 C 10.71875 -14.535156 9.796875 -15.40625 8.265625 -15.40625 C 7.585938 -15.40625 7.0625 -15.226562 6.6875 -14.875 C 6.3125 -14.53125 6.125 -14.0625 6.125 -13.46875 C 6.125 -12.789062 6.425781 -12.25 7.03125 -11.84375 C 7.644531 -11.4375 8.707031 -11.046875 10.21875 -10.671875 C 12.1875 -10.171875 13.65625 -9.476562 14.625 -8.59375 C 15.59375 -7.71875 16.078125 -6.488281 16.078125 -4.90625 C 16.078125 -3.164062 15.382812 -1.832031 14 -0.90625 C 12.613281 0.0078125 10.835938 0.46875 8.671875 0.46875 C 6.410156 0.46875 4.578125 -0.0234375 3.171875 -1.015625 C 1.773438 -2.003906 0.957031 -3.492188 0.71875 -5.484375 L 5.390625 -5.484375 C 5.566406 -4.535156 5.953125 -3.816406 6.546875 -3.328125 C 7.148438 -2.847656 7.878906 -2.609375 8.734375 -2.609375 C 9.523438 -2.609375 10.160156 -2.773438 10.640625 -3.109375 C 11.128906 -3.453125 11.375 -3.941406 11.375 -4.578125 C 11.375 -5.273438 11.046875 -5.84375 10.390625 -6.28125 C 9.734375 -6.71875 8.628906 -7.128906 7.078125 -7.515625 C 5.242188 -7.960938 3.84375 -8.609375 2.875 -9.453125 C 1.90625 -10.304688 1.421875 -11.46875 1.421875 -12.9375 C 1.421875 -14.644531 2.066406 -15.992188 3.359375 -16.984375 C 4.660156 -17.984375 6.394531 -18.484375 8.5625 -18.484375 Z M 8.5625 -18.484375" transform="translate(92.65 308.586)"/></g></g></g><g fill="#001392"><g><g><path d="M 7.71875 -14.796875 L 7.71875 -6.46875 C 7.71875 -5.71875 7.726562 -5.1875 7.75 -4.875 C 7.820312 -4 8.082031 -3.429688 8.53125 -3.171875 C 8.976562 -2.910156 9.847656 -2.820312 11.140625 -2.90625 L 11.140625 0.140625 C 10.171875 0.296875 9.144531 0.375 8.0625 0.375 C 6.34375 0.375 5.113281 0.0859375 4.375 -0.484375 C 3.644531 -1.066406 3.222656 -2.007812 3.109375 -3.3125 C 3.066406 -3.851562 3.046875 -4.722656 3.046875 -5.921875 L 3.046875 -14.796875 L 0.40625 -14.796875 L 0.40625 -17.875 L 3.046875 -17.875 L 3.046875 -22.3125 L 7.71875 -22.3125 L 7.71875 -17.875 L 11.4375 -17.875 L 11.4375 -14.796875 Z M 7.71875 -14.796875" transform="translate(110.83 308.586)"/></g></g></g><g fill="#001392"><g><g><path d="M 12.59375 0 L 12.25 -2.640625 L 11.375 -0.71875 C 10.195312 0.0703125 8.707031 0.46875 6.90625 0.46875 C 5.257812 0.46875 3.882812 0.0078125 2.78125 -0.90625 C 1.675781 -1.832031 1.125 -3.125 1.125 -4.78125 C 1.125 -6.757812 1.960938 -8.285156 3.640625 -9.359375 C 5.316406 -10.429688 7.78125 -10.96875 11.03125 -10.96875 L 12.1875 -10.96875 L 12.1875 -11.34375 C 12.1875 -12.0625 12.164062 -12.625 12.125 -13.03125 C 11.96875 -14.476562 11.039062 -15.203125 9.34375 -15.203125 C 7.46875 -15.203125 6.460938 -14.1875 6.328125 -12.15625 L 1.796875 -12.125 C 1.859375 -14.101562 2.609375 -15.65625 4.046875 -16.78125 C 5.484375 -17.914062 7.304688 -18.484375 9.515625 -18.484375 C 14.003906 -18.484375 16.410156 -16.710938 16.734375 -13.171875 C 16.796875 -12.316406 16.828125 -11.390625 16.828125 -10.390625 L 16.828125 -4.578125 C 16.828125 -3.191406 16.941406 -1.664062 17.171875 0 Z M 8.703125 -2.8125 C 9.691406 -2.8125 10.519531 -3.148438 11.1875 -3.828125 C 11.851562 -4.503906 12.1875 -5.441406 12.1875 -6.640625 L 12.1875 -8.09375 C 8.03125 -8.382812 5.953125 -7.398438 5.953125 -5.140625 C 5.953125 -3.585938 6.867188 -2.8125 8.703125 -2.8125 Z M 8.703125 -2.8125" transform="translate(124.407 308.586)"/></g></g></g><g fill="#001392"><g><g><path d="M 9.921875 -18.484375 C 12.285156 -18.484375 14.203125 -17.832031 15.671875 -16.53125 C 17.140625 -15.238281 17.96875 -13.566406 18.15625 -11.515625 L 13.546875 -11.515625 C 13.140625 -13.972656 11.894531 -15.203125 9.8125 -15.203125 C 8.570312 -15.203125 7.582031 -14.691406 6.84375 -13.671875 C 6.113281 -12.660156 5.75 -11.160156 5.75 -9.171875 C 5.75 -7.023438 6.109375 -5.425781 6.828125 -4.375 C 7.554688 -3.332031 8.539062 -2.8125 9.78125 -2.8125 C 10.707031 -2.8125 11.492188 -3.101562 12.140625 -3.6875 C 12.785156 -4.28125 13.21875 -5.128906 13.4375 -6.234375 L 18.109375 -6.234375 C 17.734375 -4.066406 16.78125 -2.40625 15.25 -1.25 C 13.726562 -0.101562 11.816406 0.46875 9.515625 0.46875 C 6.960938 0.46875 4.890625 -0.335938 3.296875 -1.953125 C 1.710938 -3.566406 0.921875 -5.875 0.921875 -8.875 C 0.921875 -11.851562 1.773438 -14.195312 3.484375 -15.90625 C 5.203125 -17.625 7.347656 -18.484375 9.921875 -18.484375 Z M 9.921875 -18.484375" transform="translate(144.789 308.586)"/></g></g></g><g fill="#001392"><g><g><path d="M 8.296875 -7.109375 L 6.8125 -5.484375 L 6.8125 0 L 2.140625 0 L 2.140625 -24.890625 L 6.8125 -24.890625 L 6.8125 -9.78125 L 14.046875 -18.015625 L 19.671875 -18.015625 L 11.6875 -9.65625 L 19.78125 0 L 13.875 0 Z M 8.296875 -7.109375" transform="translate(165.136 308.586)"/></g></g></g><g fill="#001392"><g><g><path d="M 8.5625 -18.484375 C 10.644531 -18.484375 12.304688 -17.960938 13.546875 -16.921875 C 14.785156 -15.890625 15.503906 -14.515625 15.703125 -12.796875 L 11.03125 -12.796875 C 10.71875 -14.535156 9.796875 -15.40625 8.265625 -15.40625 C 7.585938 -15.40625 7.0625 -15.226562 6.6875 -14.875 C 6.3125 -14.53125 6.125 -14.0625 6.125 -13.46875 C 6.125 -12.789062 6.425781 -12.25 7.03125 -11.84375 C 7.644531 -11.4375 8.707031 -11.046875 10.21875 -10.671875 C 12.1875 -10.171875 13.65625 -9.476562 14.625 -8.59375 C 15.59375 -7.71875 16.078125 -6.488281 16.078125 -4.90625 C 16.078125 -3.164062 15.382812 -1.832031 14 -0.90625 C 12.613281 0.0078125 10.835938 0.46875 8.671875 0.46875 C 6.410156 0.46875 4.578125 -0.0234375 3.171875 -1.015625 C 1.773438 -2.003906 0.957031 -3.492188 0.71875 -5.484375 L 5.390625 -5.484375 C 5.566406 -4.535156 5.953125 -3.816406 6.546875 -3.328125 C 7.148438 -2.847656 7.878906 -2.609375 8.734375 -2.609375 C 9.523438 -2.609375 10.160156 -2.773438 10.640625 -3.109375 C 11.128906 -3.453125 11.375 -3.941406 11.375 -4.578125 C 11.375 -5.273438 11.046875 -5.84375 10.390625 -6.28125 C 9.734375 -6.71875 8.628906 -7.128906 7.078125 -7.515625 C 5.242188 -7.960938 3.84375 -8.609375 2.875 -9.453125 C 1.90625 -10.304688 1.421875 -11.46875 1.421875 -12.9375 C 1.421875 -14.644531 2.066406 -15.992188 3.359375 -16.984375 C 4.660156 -17.984375 6.394531 -18.484375 8.5625 -18.484375 Z M 8.5625 -18.484375" transform="translate(194.152 308.586)"/></g></g></g><g fill="#001392"><g><g><path d="M 12.828125 -18.484375 C 15.316406 -18.484375 17.273438 -17.632812 18.703125 -15.9375 C 20.140625 -14.25 20.859375 -12.050781 20.859375 -9.34375 C 20.859375 -6.226562 20.03125 -3.8125 18.375 -2.09375 C 16.726562 -0.382812 14.675781 0.46875 12.21875 0.46875 C 10.375 0.46875 8.960938 0.128906 7.984375 -0.546875 L 6.8125 -2.40625 L 6.8125 6.640625 L 2.140625 6.640625 L 2.140625 -18.015625 L 6.8125 -18.015625 L 6.8125 -15.265625 L 8.15625 -17.234375 C 9.195312 -18.066406 10.753906 -18.484375 12.828125 -18.484375 Z M 11.3125 -2.8125 C 12.707031 -2.8125 13.835938 -3.347656 14.703125 -4.421875 C 15.578125 -5.492188 16.015625 -7.035156 16.015625 -9.046875 C 16.015625 -10.890625 15.601562 -12.375 14.78125 -13.5 C 13.957031 -14.632812 12.859375 -15.203125 11.484375 -15.203125 C 10.078125 -15.203125 8.945312 -14.722656 8.09375 -13.765625 C 7.238281 -12.804688 6.8125 -11.285156 6.8125 -9.203125 L 6.8125 -8.359375 C 6.8125 -6.460938 7.25 -5.0625 8.125 -4.15625 C 9.007812 -3.257812 10.070312 -2.8125 11.3125 -2.8125 Z M 11.3125 -2.8125" transform="translate(212.332 308.586)"/></g></g></g><g fill="#001392"><g><g><path d="M 18.484375 -9.375 C 18.484375 -8.71875 18.460938 -8.1875 18.421875 -7.78125 L 5.625 -7.78125 C 5.894531 -4.46875 7.28125 -2.8125 9.78125 -2.8125 C 10.800781 -2.8125 11.644531 -3.082031 12.3125 -3.625 C 12.976562 -4.164062 13.390625 -4.910156 13.546875 -5.859375 L 18.21875 -5.859375 C 17.769531 -3.804688 16.78125 -2.238281 15.25 -1.15625 C 13.726562 -0.0703125 11.875 0.46875 9.6875 0.46875 C 7.09375 0.46875 4.984375 -0.335938 3.359375 -1.953125 C 1.734375 -3.566406 0.921875 -5.894531 0.921875 -8.9375 C 0.921875 -11.738281 1.757812 -14.03125 3.4375 -15.8125 C 5.113281 -17.59375 7.320312 -18.484375 10.0625 -18.484375 C 12.695312 -18.484375 14.757812 -17.613281 16.25 -15.875 C 17.738281 -14.132812 18.484375 -11.96875 18.484375 -9.375 Z M 9.859375 -15.203125 C 7.523438 -15.203125 6.15625 -13.742188 5.75 -10.828125 L 13.671875 -10.828125 C 13.359375 -13.742188 12.085938 -15.203125 9.859375 -15.203125 Z M 9.859375 -15.203125" transform="translate(235.456 308.586)"/></g></g></g><g fill="#001392"><g><g><path d="M 9.921875 -18.484375 C 12.285156 -18.484375 14.203125 -17.832031 15.671875 -16.53125 C 17.140625 -15.238281 17.96875 -13.566406 18.15625 -11.515625 L 13.546875 -11.515625 C 13.140625 -13.972656 11.894531 -15.203125 9.8125 -15.203125 C 8.570312 -15.203125 7.582031 -14.691406 6.84375 -13.671875 C 6.113281 -12.660156 5.75 -11.160156 5.75 -9.171875 C 5.75 -7.023438 6.109375 -5.425781 6.828125 -4.375 C 7.554688 -3.332031 8.539062 -2.8125 9.78125 -2.8125 C 10.707031 -2.8125 11.492188 -3.101562 12.140625 -3.6875 C 12.785156 -4.28125 13.21875 -5.128906 13.4375 -6.234375 L 18.109375 -6.234375 C 17.734375 -4.066406 16.78125 -2.40625 15.25 -1.25 C 13.726562 -0.101562 11.816406 0.46875 9.515625 0.46875 C 6.960938 0.46875 4.890625 -0.335938 3.296875 -1.953125 C 1.710938 -3.566406 0.921875 -5.875 0.921875 -8.875 C 0.921875 -11.851562 1.773438 -14.195312 3.484375 -15.90625 C 5.203125 -17.625 7.347656 -18.484375 9.921875 -18.484375 Z M 9.921875 -18.484375" transform="translate(256.38 308.586)"/></g></g></g><g fill="#001392"><g><g><path d="M 2.59375 -24.015625 C 3.070312 -24.484375 3.695312 -24.71875 4.46875 -24.71875 C 5.238281 -24.71875 5.859375 -24.484375 6.328125 -24.015625 C 6.804688 -23.554688 7.046875 -22.96875 7.046875 -22.25 C 7.046875 -21.5 6.804688 -20.898438 6.328125 -20.453125 C 5.859375 -20.003906 5.238281 -19.78125 4.46875 -19.78125 C 3.695312 -19.78125 3.070312 -20.003906 2.59375 -20.453125 C 2.125 -20.898438 1.890625 -21.5 1.890625 -22.25 C 1.890625 -22.96875 2.125 -23.554688 2.59375 -24.015625 Z M 6.8125 0 L 2.140625 0 L 2.140625 -18.015625 L 6.8125 -18.015625 Z M 6.8125 0" transform="translate(276.727 308.586)"/></g></g></g><g fill="#001392"><g><g><path d="M 12.59375 0 L 12.25 -2.640625 L 11.375 -0.71875 C 10.195312 0.0703125 8.707031 0.46875 6.90625 0.46875 C 5.257812 0.46875 3.882812 0.0078125 2.78125 -0.90625 C 1.675781 -1.832031 1.125 -3.125 1.125 -4.78125 C 1.125 -6.757812 1.960938 -8.285156 3.640625 -9.359375 C 5.316406 -10.429688 7.78125 -10.96875 11.03125 -10.96875 L 12.1875 -10.96875 L 12.1875 -11.34375 C 12.1875 -12.0625 12.164062 -12.625 12.125 -13.03125 C 11.96875 -14.476562 11.039062 -15.203125 9.34375 -15.203125 C 7.46875 -15.203125 6.460938 -14.1875 6.328125 -12.15625 L 1.796875 -12.125 C 1.859375 -14.101562 2.609375 -15.65625 4.046875 -16.78125 C 5.484375 -17.914062 7.304688 -18.484375 9.515625 -18.484375 C 14.003906 -18.484375 16.410156 -16.710938 16.734375 -13.171875 C 16.796875 -12.316406 16.828125 -11.390625 16.828125 -10.390625 L 16.828125 -4.578125 C 16.828125 -3.191406 16.941406 -1.664062 17.171875 0 Z M 8.703125 -2.8125 C 9.691406 -2.8125 10.519531 -3.148438 11.1875 -3.828125 C 11.851562 -4.503906 12.1875 -5.441406 12.1875 -6.640625 L 12.1875 -8.09375 C 8.03125 -8.382812 5.953125 -7.398438 5.953125 -5.140625 C 5.953125 -3.585938 6.867188 -2.8125 8.703125 -2.8125 Z M 8.703125 -2.8125" transform="translate(287.087 308.586)"/></g></g></g><g fill="#001392"><g><g><path d="M 6.671875 -24.890625 L 6.671875 -5.890625 C 6.671875 -5.097656 6.679688 -4.546875 6.703125 -4.234375 C 6.742188 -3.753906 6.910156 -3.4375 7.203125 -3.28125 C 7.503906 -3.125 8.035156 -3.066406 8.796875 -3.109375 L 8.796875 0.109375 C 7.984375 0.191406 7.023438 0.234375 5.921875 0.234375 C 3.441406 0.234375 2.15625 -0.828125 2.0625 -2.953125 C 2.019531 -3.492188 2 -4.441406 2 -5.796875 L 2 -24.890625 Z M 6.671875 -24.890625" transform="translate(307.469 308.586)"/></g></g></g><g fill="#001392"><g><g><path d="M 2.59375 -24.015625 C 3.070312 -24.484375 3.695312 -24.71875 4.46875 -24.71875 C 5.238281 -24.71875 5.859375 -24.484375 6.328125 -24.015625 C 6.804688 -23.554688 7.046875 -22.96875 7.046875 -22.25 C 7.046875 -21.5 6.804688 -20.898438 6.328125 -20.453125 C 5.859375 -20.003906 5.238281 -19.78125 4.46875 -19.78125 C 3.695312 -19.78125 3.070312 -20.003906 2.59375 -20.453125 C 2.125 -20.898438 1.890625 -21.5 1.890625 -22.25 C 1.890625 -22.96875 2.125 -23.554688 2.59375 -24.015625 Z M 6.8125 0 L 2.140625 0 L 2.140625 -18.015625 L 6.8125 -18.015625 Z M 6.8125 0" transform="translate(318.27 308.586)"/></g></g></g><g fill="#001392"><g><g><path d="M 8.5625 -18.484375 C 10.644531 -18.484375 12.304688 -17.960938 13.546875 -16.921875 C 14.785156 -15.890625 15.503906 -14.515625 15.703125 -12.796875 L 11.03125 -12.796875 C 10.71875 -14.535156 9.796875 -15.40625 8.265625 -15.40625 C 7.585938 -15.40625 7.0625 -15.226562 6.6875 -14.875 C 6.3125 -14.53125 6.125 -14.0625 6.125 -13.46875 C 6.125 -12.789062 6.425781 -12.25 7.03125 -11.84375 C 7.644531 -11.4375 8.707031 -11.046875 10.21875 -10.671875 C 12.1875 -10.171875 13.65625 -9.476562 14.625 -8.59375 C 15.59375 -7.71875 16.078125 -6.488281 16.078125 -4.90625 C 16.078125 -3.164062 15.382812 -1.832031 14 -0.90625 C 12.613281 0.0078125 10.835938 0.46875 8.671875 0.46875 C 6.410156 0.46875 4.578125 -0.0234375 3.171875 -1.015625 C 1.773438 -2.003906 0.957031 -3.492188 0.71875 -5.484375 L 5.390625 -5.484375 C 5.566406 -4.535156 5.953125 -3.816406 6.546875 -3.328125 C 7.148438 -2.847656 7.878906 -2.609375 8.734375 -2.609375 C 9.523438 -2.609375 10.160156 -2.773438 10.640625 -3.109375 C 11.128906 -3.453125 11.375 -3.941406 11.375 -4.578125 C 11.375 -5.273438 11.046875 -5.84375 10.390625 -6.28125 C 9.734375 -6.71875 8.628906 -7.128906 7.078125 -7.515625 C 5.242188 -7.960938 3.84375 -8.609375 2.875 -9.453125 C 1.90625 -10.304688 1.421875 -11.46875 1.421875 -12.9375 C 1.421875 -14.644531 2.066406 -15.992188 3.359375 -16.984375 C 4.660156 -17.984375 6.394531 -18.484375 8.5625 -18.484375 Z M 8.5625 -18.484375" transform="translate(328.63 308.586)"/></g></g></g><g fill="#001392"><g><g><path d="M 7.71875 -14.796875 L 7.71875 -6.46875 C 7.71875 -5.71875 7.726562 -5.1875 7.75 -4.875 C 7.820312 -4 8.082031 -3.429688 8.53125 -3.171875 C 8.976562 -2.910156 9.847656 -2.820312 11.140625 -2.90625 L 11.140625 0.140625 C 10.171875 0.296875 9.144531 0.375 8.0625 0.375 C 6.34375 0.375 5.113281 0.0859375 4.375 -0.484375 C 3.644531 -1.066406 3.222656 -2.007812 3.109375 -3.3125 C 3.066406 -3.851562 3.046875 -4.722656 3.046875 -5.921875 L 3.046875 -14.796875 L 0.40625 -14.796875 L 0.40625 -17.875 L 3.046875 -17.875 L 3.046875 -22.3125 L 7.71875 -22.3125 L 7.71875 -17.875 L 11.4375 -17.875 L 11.4375 -14.796875 Z M 7.71875 -14.796875" transform="translate(346.81 308.586)"/></g></g></g></svg>