<svg xmlns="http://www.w3.org/2000/svg" width="375" viewBox="0 0 375 93.75" height="93.75" version="1.0"><defs><clipPath id="a"><path d="M 97.953125 0 L 374.5 0 L 374.5 93.3125 L 97.953125 93.3125 Z M 97.953125 0"/></clipPath><clipPath id="b"><path d="M 15.085938 12.347656 L 42 12.347656 L 42 34 L 15.085938 34 Z M 15.085938 12.347656"/></clipPath></defs><g clip-path="url(#a)"><path fill="#BFCAF4" d="M 97.953125 -0.191406 L 374.714844 -0.191406 L 374.714844 93.3125 L 97.953125 93.3125 Z M 97.953125 -0.191406"/></g><g fill="#001392" fill-opacity=".4"><g><g><path d="M 11.5 -19.015625 C 13.863281 -18.734375 15.765625 -17.828125 17.203125 -16.296875 C 18.648438 -14.765625 19.375 -12.601562 19.375 -9.8125 C 19.375 -7 18.632812 -4.75 17.15625 -3.0625 C 15.675781 -1.375 13.773438 -0.390625 11.453125 -0.109375 C 10.804688 -0.0351562 9.992188 0 9.015625 0 L 2.46875 0 L 2.46875 -19.125 L 9.0625 -19.125 C 10.039062 -19.125 10.851562 -19.085938 11.5 -19.015625 Z M 10.59375 -3.109375 C 12.050781 -3.285156 13.203125 -3.957031 14.046875 -5.125 C 14.898438 -6.289062 15.328125 -7.832031 15.328125 -9.75 C 15.328125 -11.601562 14.910156 -13.066406 14.078125 -14.140625 C 13.242188 -15.210938 12.109375 -15.835938 10.671875 -16.015625 C 10.097656 -16.085938 9.414062 -16.125 8.625 -16.125 L 6.296875 -16.125 L 6.296875 -3.015625 L 8.5625 -3.015625 C 9.507812 -3.015625 10.1875 -3.046875 10.59375 -3.109375 Z M 10.59375 -3.109375" transform="translate(119.63 47.381)"/></g></g></g><g fill="#001392" fill-opacity=".4"><g><g><path d="M 15.140625 -7.671875 C 15.140625 -7.140625 15.117188 -6.707031 15.078125 -6.375 L 4.59375 -6.375 C 4.820312 -3.65625 5.960938 -2.296875 8.015625 -2.296875 C 8.847656 -2.296875 9.535156 -2.515625 10.078125 -2.953125 C 10.617188 -3.398438 10.957031 -4.015625 11.09375 -4.796875 L 14.90625 -4.796875 C 14.539062 -3.109375 13.734375 -1.820312 12.484375 -0.9375 C 11.234375 -0.0507812 9.710938 0.390625 7.921875 0.390625 C 5.796875 0.390625 4.066406 -0.269531 2.734375 -1.59375 C 1.410156 -2.914062 0.75 -4.820312 0.75 -7.3125 C 0.75 -9.601562 1.4375 -11.476562 2.8125 -12.9375 C 4.1875 -14.40625 5.992188 -15.140625 8.234375 -15.140625 C 10.390625 -15.140625 12.078125 -14.425781 13.296875 -13 C 14.523438 -11.570312 15.140625 -9.796875 15.140625 -7.671875 Z M 8.0625 -12.453125 C 6.164062 -12.453125 5.050781 -11.257812 4.71875 -8.875 L 11.203125 -8.875 C 10.941406 -11.257812 9.894531 -12.453125 8.0625 -12.453125 Z M 8.0625 -12.453125" transform="translate(140.996 47.381)"/></g></g></g><g fill="#001392" fill-opacity=".4"><g><g><path d="M 15.140625 -7.671875 C 15.140625 -7.140625 15.117188 -6.707031 15.078125 -6.375 L 4.59375 -6.375 C 4.820312 -3.65625 5.960938 -2.296875 8.015625 -2.296875 C 8.847656 -2.296875 9.535156 -2.515625 10.078125 -2.953125 C 10.617188 -3.398438 10.957031 -4.015625 11.09375 -4.796875 L 14.90625 -4.796875 C 14.539062 -3.109375 13.734375 -1.820312 12.484375 -0.9375 C 11.234375 -0.0507812 9.710938 0.390625 7.921875 0.390625 C 5.796875 0.390625 4.066406 -0.269531 2.734375 -1.59375 C 1.410156 -2.914062 0.75 -4.820312 0.75 -7.3125 C 0.75 -9.601562 1.4375 -11.476562 2.8125 -12.9375 C 4.1875 -14.40625 5.992188 -15.140625 8.234375 -15.140625 C 10.390625 -15.140625 12.078125 -14.425781 13.296875 -13 C 14.523438 -11.570312 15.140625 -9.796875 15.140625 -7.671875 Z M 8.0625 -12.453125 C 6.164062 -12.453125 5.050781 -11.257812 4.71875 -8.875 L 11.203125 -8.875 C 10.941406 -11.257812 9.894531 -12.453125 8.0625 -12.453125 Z M 8.0625 -12.453125" transform="translate(158.122 47.381)"/></g></g></g><g fill="#001392" fill-opacity=".4"><g><g><path d="M 15.71875 -14.75 L 10 0 L 5.734375 0 L 0 -14.75 L 4.234375 -14.75 L 7.953125 -2.875 L 11.59375 -14.75 Z M 15.71875 -14.75" transform="translate(175.248 47.381)"/></g></g></g><g fill="#001392" fill-opacity=".4"><g><g><path d="M 11.5 -19.015625 C 13.863281 -18.734375 15.765625 -17.828125 17.203125 -16.296875 C 18.648438 -14.765625 19.375 -12.601562 19.375 -9.8125 C 19.375 -7 18.632812 -4.75 17.15625 -3.0625 C 15.675781 -1.375 13.773438 -0.390625 11.453125 -0.109375 C 10.804688 -0.0351562 9.992188 0 9.015625 0 L 2.46875 0 L 2.46875 -19.125 L 9.0625 -19.125 C 10.039062 -19.125 10.851562 -19.085938 11.5 -19.015625 Z M 10.59375 -3.109375 C 12.050781 -3.285156 13.203125 -3.957031 14.046875 -5.125 C 14.898438 -6.289062 15.328125 -7.832031 15.328125 -9.75 C 15.328125 -11.601562 14.910156 -13.066406 14.078125 -14.140625 C 13.242188 -15.210938 12.109375 -15.835938 10.671875 -16.015625 C 10.097656 -16.085938 9.414062 -16.125 8.625 -16.125 L 6.296875 -16.125 L 6.296875 -3.015625 L 8.5625 -3.015625 C 9.507812 -3.015625 10.1875 -3.046875 10.59375 -3.109375 Z M 10.59375 -3.109375" transform="translate(192.041 47.381)"/></g></g></g><g fill="#001392" fill-opacity=".4"><g><g><path d="M 15.140625 -7.671875 C 15.140625 -7.140625 15.117188 -6.707031 15.078125 -6.375 L 4.59375 -6.375 C 4.820312 -3.65625 5.960938 -2.296875 8.015625 -2.296875 C 8.847656 -2.296875 9.535156 -2.515625 10.078125 -2.953125 C 10.617188 -3.398438 10.957031 -4.015625 11.09375 -4.796875 L 14.90625 -4.796875 C 14.539062 -3.109375 13.734375 -1.820312 12.484375 -0.9375 C 11.234375 -0.0507812 9.710938 0.390625 7.921875 0.390625 C 5.796875 0.390625 4.066406 -0.269531 2.734375 -1.59375 C 1.410156 -2.914062 0.75 -4.820312 0.75 -7.3125 C 0.75 -9.601562 1.4375 -11.476562 2.8125 -12.9375 C 4.1875 -14.40625 5.992188 -15.140625 8.234375 -15.140625 C 10.390625 -15.140625 12.078125 -14.425781 13.296875 -13 C 14.523438 -11.570312 15.140625 -9.796875 15.140625 -7.671875 Z M 8.0625 -12.453125 C 6.164062 -12.453125 5.050781 -11.257812 4.71875 -8.875 L 11.203125 -8.875 C 10.941406 -11.257812 9.894531 -12.453125 8.0625 -12.453125 Z M 8.0625 -12.453125" transform="translate(213.407 47.381)"/></g></g></g><g fill="#001392" fill-opacity=".4"><g><g><path d="M 15.71875 -14.75 L 10 0 L 5.734375 0 L 0 -14.75 L 4.234375 -14.75 L 7.953125 -2.875 L 11.59375 -14.75 Z M 15.71875 -14.75" transform="translate(230.533 47.381)"/></g></g></g><g fill="#001392" fill-opacity=".4"><g><g><path d="M 7.015625 -15.140625 C 8.710938 -15.140625 10.066406 -14.710938 11.078125 -13.859375 C 12.097656 -13.003906 12.691406 -11.878906 12.859375 -10.484375 L 9.03125 -10.484375 C 8.769531 -11.898438 8.015625 -12.609375 6.765625 -12.609375 C 6.210938 -12.609375 5.78125 -12.460938 5.46875 -12.171875 C 5.164062 -11.890625 5.015625 -11.507812 5.015625 -11.03125 C 5.015625 -10.476562 5.265625 -10.035156 5.765625 -9.703125 C 6.265625 -9.367188 7.132812 -9.046875 8.375 -8.734375 C 9.976562 -8.328125 11.175781 -7.757812 11.96875 -7.03125 C 12.769531 -6.3125 13.171875 -5.304688 13.171875 -4.015625 C 13.171875 -2.597656 12.597656 -1.507812 11.453125 -0.75 C 10.316406 0.0078125 8.863281 0.390625 7.09375 0.390625 C 5.25 0.390625 3.753906 -0.015625 2.609375 -0.828125 C 1.460938 -1.640625 0.785156 -2.859375 0.578125 -4.484375 L 4.40625 -4.484375 C 4.550781 -3.710938 4.867188 -3.128906 5.359375 -2.734375 C 5.847656 -2.335938 6.445312 -2.140625 7.15625 -2.140625 C 7.800781 -2.140625 8.320312 -2.273438 8.71875 -2.546875 C 9.113281 -2.828125 9.3125 -3.222656 9.3125 -3.734375 C 9.3125 -4.304688 9.039062 -4.773438 8.5 -5.140625 C 7.96875 -5.503906 7.066406 -5.84375 5.796875 -6.15625 C 4.296875 -6.519531 3.148438 -7.046875 2.359375 -7.734375 C 1.566406 -8.429688 1.171875 -9.382812 1.171875 -10.59375 C 1.171875 -11.988281 1.703125 -13.09375 2.765625 -13.90625 C 3.828125 -14.726562 5.242188 -15.140625 7.015625 -15.140625 Z M 7.015625 -15.140625" transform="translate(247.327 47.381)"/></g></g></g><g fill="#001392"><g><g><path d="M 11.5 -19.015625 C 13.863281 -18.734375 15.765625 -17.828125 17.203125 -16.296875 C 18.648438 -14.765625 19.375 -12.601562 19.375 -9.8125 C 19.375 -7 18.632812 -4.75 17.15625 -3.0625 C 15.675781 -1.375 13.773438 -0.390625 11.453125 -0.109375 C 10.804688 -0.0351562 9.992188 0 9.015625 0 L 2.46875 0 L 2.46875 -19.125 L 9.0625 -19.125 C 10.039062 -19.125 10.851562 -19.085938 11.5 -19.015625 Z M 10.59375 -3.109375 C 12.050781 -3.285156 13.203125 -3.957031 14.046875 -5.125 C 14.898438 -6.289062 15.328125 -7.832031 15.328125 -9.75 C 15.328125 -11.601562 14.910156 -13.066406 14.078125 -14.140625 C 13.242188 -15.210938 12.109375 -15.835938 10.671875 -16.015625 C 10.097656 -16.085938 9.414062 -16.125 8.625 -16.125 L 6.296875 -16.125 L 6.296875 -3.015625 L 8.5625 -3.015625 C 9.507812 -3.015625 10.1875 -3.046875 10.59375 -3.109375 Z M 10.59375 -3.109375" transform="translate(118.404 46.156)"/></g></g></g><g fill="#001392"><g><g><path d="M 15.140625 -7.671875 C 15.140625 -7.140625 15.117188 -6.707031 15.078125 -6.375 L 4.59375 -6.375 C 4.820312 -3.65625 5.960938 -2.296875 8.015625 -2.296875 C 8.847656 -2.296875 9.535156 -2.515625 10.078125 -2.953125 C 10.617188 -3.398438 10.957031 -4.015625 11.09375 -4.796875 L 14.90625 -4.796875 C 14.539062 -3.109375 13.734375 -1.820312 12.484375 -0.9375 C 11.234375 -0.0507812 9.710938 0.390625 7.921875 0.390625 C 5.796875 0.390625 4.066406 -0.269531 2.734375 -1.59375 C 1.410156 -2.914062 0.75 -4.820312 0.75 -7.3125 C 0.75 -9.601562 1.4375 -11.476562 2.8125 -12.9375 C 4.1875 -14.40625 5.992188 -15.140625 8.234375 -15.140625 C 10.390625 -15.140625 12.078125 -14.425781 13.296875 -13 C 14.523438 -11.570312 15.140625 -9.796875 15.140625 -7.671875 Z M 8.0625 -12.453125 C 6.164062 -12.453125 5.050781 -11.257812 4.71875 -8.875 L 11.203125 -8.875 C 10.941406 -11.257812 9.894531 -12.453125 8.0625 -12.453125 Z M 8.0625 -12.453125" transform="translate(139.77 46.156)"/></g></g></g><g fill="#001392"><g><g><path d="M 15.140625 -7.671875 C 15.140625 -7.140625 15.117188 -6.707031 15.078125 -6.375 L 4.59375 -6.375 C 4.820312 -3.65625 5.960938 -2.296875 8.015625 -2.296875 C 8.847656 -2.296875 9.535156 -2.515625 10.078125 -2.953125 C 10.617188 -3.398438 10.957031 -4.015625 11.09375 -4.796875 L 14.90625 -4.796875 C 14.539062 -3.109375 13.734375 -1.820312 12.484375 -0.9375 C 11.234375 -0.0507812 9.710938 0.390625 7.921875 0.390625 C 5.796875 0.390625 4.066406 -0.269531 2.734375 -1.59375 C 1.410156 -2.914062 0.75 -4.820312 0.75 -7.3125 C 0.75 -9.601562 1.4375 -11.476562 2.8125 -12.9375 C 4.1875 -14.40625 5.992188 -15.140625 8.234375 -15.140625 C 10.390625 -15.140625 12.078125 -14.425781 13.296875 -13 C 14.523438 -11.570312 15.140625 -9.796875 15.140625 -7.671875 Z M 8.0625 -12.453125 C 6.164062 -12.453125 5.050781 -11.257812 4.71875 -8.875 L 11.203125 -8.875 C 10.941406 -11.257812 9.894531 -12.453125 8.0625 -12.453125 Z M 8.0625 -12.453125" transform="translate(156.896 46.156)"/></g></g></g><g fill="#001392"><g><g><path d="M 15.71875 -14.75 L 10 0 L 5.734375 0 L 0 -14.75 L 4.234375 -14.75 L 7.953125 -2.875 L 11.59375 -14.75 Z M 15.71875 -14.75" transform="translate(174.022 46.156)"/></g></g></g><g fill="#001392"><g><g><path d="M 11.5 -19.015625 C 13.863281 -18.734375 15.765625 -17.828125 17.203125 -16.296875 C 18.648438 -14.765625 19.375 -12.601562 19.375 -9.8125 C 19.375 -7 18.632812 -4.75 17.15625 -3.0625 C 15.675781 -1.375 13.773438 -0.390625 11.453125 -0.109375 C 10.804688 -0.0351562 9.992188 0 9.015625 0 L 2.46875 0 L 2.46875 -19.125 L 9.0625 -19.125 C 10.039062 -19.125 10.851562 -19.085938 11.5 -19.015625 Z M 10.59375 -3.109375 C 12.050781 -3.285156 13.203125 -3.957031 14.046875 -5.125 C 14.898438 -6.289062 15.328125 -7.832031 15.328125 -9.75 C 15.328125 -11.601562 14.910156 -13.066406 14.078125 -14.140625 C 13.242188 -15.210938 12.109375 -15.835938 10.671875 -16.015625 C 10.097656 -16.085938 9.414062 -16.125 8.625 -16.125 L 6.296875 -16.125 L 6.296875 -3.015625 L 8.5625 -3.015625 C 9.507812 -3.015625 10.1875 -3.046875 10.59375 -3.109375 Z M 10.59375 -3.109375" transform="translate(190.816 46.156)"/></g></g></g><g fill="#001392"><g><g><path d="M 15.140625 -7.671875 C 15.140625 -7.140625 15.117188 -6.707031 15.078125 -6.375 L 4.59375 -6.375 C 4.820312 -3.65625 5.960938 -2.296875 8.015625 -2.296875 C 8.847656 -2.296875 9.535156 -2.515625 10.078125 -2.953125 C 10.617188 -3.398438 10.957031 -4.015625 11.09375 -4.796875 L 14.90625 -4.796875 C 14.539062 -3.109375 13.734375 -1.820312 12.484375 -0.9375 C 11.234375 -0.0507812 9.710938 0.390625 7.921875 0.390625 C 5.796875 0.390625 4.066406 -0.269531 2.734375 -1.59375 C 1.410156 -2.914062 0.75 -4.820312 0.75 -7.3125 C 0.75 -9.601562 1.4375 -11.476562 2.8125 -12.9375 C 4.1875 -14.40625 5.992188 -15.140625 8.234375 -15.140625 C 10.390625 -15.140625 12.078125 -14.425781 13.296875 -13 C 14.523438 -11.570312 15.140625 -9.796875 15.140625 -7.671875 Z M 8.0625 -12.453125 C 6.164062 -12.453125 5.050781 -11.257812 4.71875 -8.875 L 11.203125 -8.875 C 10.941406 -11.257812 9.894531 -12.453125 8.0625 -12.453125 Z M 8.0625 -12.453125" transform="translate(212.182 46.156)"/></g></g></g><g fill="#001392"><g><g><path d="M 15.71875 -14.75 L 10 0 L 5.734375 0 L 0 -14.75 L 4.234375 -14.75 L 7.953125 -2.875 L 11.59375 -14.75 Z M 15.71875 -14.75" transform="translate(229.308 46.156)"/></g></g></g><g fill="#001392"><g><g><path d="M 7.015625 -15.140625 C 8.710938 -15.140625 10.066406 -14.710938 11.078125 -13.859375 C 12.097656 -13.003906 12.691406 -11.878906 12.859375 -10.484375 L 9.03125 -10.484375 C 8.769531 -11.898438 8.015625 -12.609375 6.765625 -12.609375 C 6.210938 -12.609375 5.78125 -12.460938 5.46875 -12.171875 C 5.164062 -11.890625 5.015625 -11.507812 5.015625 -11.03125 C 5.015625 -10.476562 5.265625 -10.035156 5.765625 -9.703125 C 6.265625 -9.367188 7.132812 -9.046875 8.375 -8.734375 C 9.976562 -8.328125 11.175781 -7.757812 11.96875 -7.03125 C 12.769531 -6.3125 13.171875 -5.304688 13.171875 -4.015625 C 13.171875 -2.597656 12.597656 -1.507812 11.453125 -0.75 C 10.316406 0.0078125 8.863281 0.390625 7.09375 0.390625 C 5.25 0.390625 3.753906 -0.015625 2.609375 -0.828125 C 1.460938 -1.640625 0.785156 -2.859375 0.578125 -4.484375 L 4.40625 -4.484375 C 4.550781 -3.710938 4.867188 -3.128906 5.359375 -2.734375 C 5.847656 -2.335938 6.445312 -2.140625 7.15625 -2.140625 C 7.800781 -2.140625 8.320312 -2.273438 8.71875 -2.546875 C 9.113281 -2.828125 9.3125 -3.222656 9.3125 -3.734375 C 9.3125 -4.304688 9.039062 -4.773438 8.5 -5.140625 C 7.96875 -5.503906 7.066406 -5.84375 5.796875 -6.15625 C 4.296875 -6.519531 3.148438 -7.046875 2.359375 -7.734375 C 1.566406 -8.429688 1.171875 -9.382812 1.171875 -10.59375 C 1.171875 -11.988281 1.703125 -13.09375 2.765625 -13.90625 C 3.828125 -14.726562 5.242188 -15.140625 7.015625 -15.140625 Z M 7.015625 -15.140625" transform="translate(246.101 46.156)"/></g></g></g><g fill="#001392" fill-opacity=".4"><g><g><path d="M 2.148438 -7.160156 L 6.339844 -7.160156 L 6.339844 -7.96875 L 1.15625 -7.96875 L 1.15625 0 L 2.148438 0 L 2.148438 -3.578125 L 5.878906 -3.578125 L 5.878906 -4.386719 L 2.148438 -4.386719 Z M 2.148438 -7.160156" transform="translate(118.404 70.172)"/></g></g></g><g fill="#001392" fill-opacity=".4"><g><g><path d="M 7.066406 -7.96875 L 6.074219 -7.96875 L 6.074219 -3.039062 C 6.074219 -2.78125 6.074219 -2.539062 6.050781 -2.332031 C 5.957031 -1.328125 5.300781 -0.625 4.078125 -0.625 C 2.851562 -0.625 2.195312 -1.328125 2.101562 -2.332031 C 2.078125 -2.539062 2.078125 -2.78125 2.078125 -3.039062 L 2.078125 -7.96875 L 1.085938 -7.96875 L 1.085938 -2.945312 C 1.085938 -2.691406 1.085938 -2.460938 1.109375 -2.230469 C 1.222656 -0.902344 2.125 0.160156 4.078125 0.160156 C 6.027344 0.160156 6.929688 -0.902344 7.042969 -2.230469 C 7.066406 -2.460938 7.066406 -2.691406 7.066406 -2.945312 Z M 7.066406 -7.96875" transform="translate(125.183 70.172)"/></g></g></g><g fill="#001392" fill-opacity=".4"><g><g><path d="M 6.457031 -0.808594 L 2.148438 -0.808594 L 2.148438 -7.96875 L 1.15625 -7.96875 L 1.15625 0 L 6.457031 0 Z M 6.457031 -0.808594" transform="translate(133.288 70.172)"/></g></g></g><g fill="#001392" fill-opacity=".4"><g><g><path d="M 6.457031 -0.808594 L 2.148438 -0.808594 L 2.148438 -7.96875 L 1.15625 -7.96875 L 1.15625 0 L 6.457031 0 Z M 6.457031 -0.808594" transform="translate(140.159 70.172)"/></g></g></g><g fill="#001392" fill-opacity=".4"><g><g><path d="M 2.792969 -2.945312 L 2.792969 -3.589844 L 0.371094 -3.589844 L 0.371094 -2.945312 Z M 2.792969 -2.945312" transform="translate(147.03 70.172)"/></g></g></g><g fill="#001392" fill-opacity=".4"><g><g><path d="M 3.625 -8.128906 C 2.160156 -8.128906 0.96875 -7.265625 0.96875 -5.890625 C 0.96875 -4.574219 1.953125 -4.007812 3.359375 -3.683594 C 4.757812 -3.359375 5.3125 -2.921875 5.3125 -1.953125 C 5.3125 -1.121094 4.574219 -0.625 3.660156 -0.625 C 2.621094 -0.625 1.894531 -1.210938 1.664062 -2.261719 L 0.601562 -2.261719 C 0.773438 -0.726562 1.882812 0.160156 3.636719 0.160156 C 5.171875 0.160156 6.375 -0.738281 6.375 -2.136719 C 6.375 -3.488281 5.496094 -4.203125 3.742188 -4.609375 C 2.527344 -4.886719 2.03125 -5.253906 2.03125 -6.121094 C 2.03125 -6.953125 2.703125 -7.34375 3.546875 -7.34375 C 4.550781 -7.34375 5.140625 -6.765625 5.230469 -5.761719 L 6.292969 -5.761719 C 6.144531 -7.125 5.277344 -8.128906 3.625 -8.128906 Z M 3.625 -8.128906" transform="translate(150.424 70.172)"/></g></g></g><g fill="#001392" fill-opacity=".4"><g><g><path d="M 7.066406 -7.160156 L 7.066406 -7.96875 L 0.394531 -7.96875 L 0.394531 -7.160156 L 3.234375 -7.160156 L 3.234375 0 L 4.226562 0 L 4.226562 -7.160156 Z M 7.066406 -7.160156" transform="translate(157.41 70.172)"/></g></g></g><g fill="#001392" fill-opacity=".4"><g><g><path d="M 5.265625 -2.816406 L 6.214844 0 L 7.285156 0 L 4.539062 -7.96875 L 3.199219 -7.96875 L 0.335938 0 L 1.398438 0 L 2.332031 -2.816406 Z M 2.609375 -3.625 L 3.84375 -7.183594 L 5 -3.625 Z M 2.609375 -3.625" transform="translate(164.708 70.172)"/></g></g></g><g fill="#001392" fill-opacity=".4"><g><g><path d="M 4.308594 -8.128906 C 2.042969 -8.128906 0.542969 -6.375 0.542969 -3.949219 C 0.542969 -1.617188 1.835938 0.160156 4.15625 0.160156 C 6.257812 0.160156 7.332031 -1.097656 7.484375 -2.539062 L 7.496094 -2.65625 L 6.5 -2.65625 L 6.480469 -2.539062 C 6.246094 -1.398438 5.542969 -0.625 4.214844 -0.625 C 2.644531 -0.625 1.652344 -2.03125 1.652344 -3.996094 C 1.652344 -5.925781 2.65625 -7.34375 4.285156 -7.34375 C 5.613281 -7.34375 6.316406 -6.570312 6.546875 -5.429688 L 6.570312 -5.3125 L 7.5625 -5.3125 L 7.550781 -5.429688 C 7.390625 -6.988281 6.328125 -8.128906 4.308594 -8.128906 Z M 4.308594 -8.128906" transform="translate(172.317 70.172)"/></g></g></g><g fill="#001392" fill-opacity=".4"><g><g><path d="M 3.636719 -4.078125 L 7.253906 -7.96875 L 6.085938 -7.96875 L 2.148438 -3.730469 L 2.148438 -7.96875 L 1.15625 -7.96875 L 1.15625 0 L 2.148438 0 L 2.148438 -2.585938 L 2.910156 -3.40625 L 5.648438 0 L 7.042969 0 Z M 3.636719 -4.078125" transform="translate(180.62 70.172)"/></g></g></g><g fill="#001392" fill-opacity=".4"><g><g><path d="M 3.625 -8.128906 C 2.160156 -8.128906 0.96875 -7.265625 0.96875 -5.890625 C 0.96875 -4.574219 1.953125 -4.007812 3.359375 -3.683594 C 4.757812 -3.359375 5.3125 -2.921875 5.3125 -1.953125 C 5.3125 -1.121094 4.574219 -0.625 3.660156 -0.625 C 2.621094 -0.625 1.894531 -1.210938 1.664062 -2.261719 L 0.601562 -2.261719 C 0.773438 -0.726562 1.882812 0.160156 3.636719 0.160156 C 5.171875 0.160156 6.375 -0.738281 6.375 -2.136719 C 6.375 -3.488281 5.496094 -4.203125 3.742188 -4.609375 C 2.527344 -4.886719 2.03125 -5.253906 2.03125 -6.121094 C 2.03125 -6.953125 2.703125 -7.34375 3.546875 -7.34375 C 4.550781 -7.34375 5.140625 -6.765625 5.230469 -5.761719 L 6.292969 -5.761719 C 6.144531 -7.125 5.277344 -8.128906 3.625 -8.128906 Z M 3.625 -8.128906" transform="translate(190.607 70.172)"/></g></g></g><g fill="#001392" fill-opacity=".4"><g><g><path d="M 4.664062 -7.921875 C 4.308594 -7.96875 4.03125 -7.96875 3.625 -7.96875 L 1.15625 -7.96875 L 1.15625 0 L 2.148438 0 L 2.148438 -3.257812 L 3.625 -3.257812 C 4.03125 -3.257812 4.308594 -3.257812 4.664062 -3.304688 C 5.820312 -3.453125 6.734375 -4.261719 6.734375 -5.613281 C 6.734375 -6.964844 5.9375 -7.761719 4.664062 -7.921875 Z M 4.609375 -4.144531 C 4.386719 -4.101562 4.078125 -4.089844 3.71875 -4.089844 L 2.148438 -4.089844 L 2.148438 -7.136719 L 3.71875 -7.136719 C 4.078125 -7.136719 4.386719 -7.125 4.609375 -7.078125 C 5.171875 -6.953125 5.671875 -6.535156 5.671875 -5.613281 C 5.671875 -4.6875 5.171875 -4.273438 4.609375 -4.144531 Z M 4.609375 -4.144531" transform="translate(197.593 70.172)"/></g></g></g><g fill="#001392" fill-opacity=".4"><g><g><path d="M 6.457031 -0.808594 L 2.148438 -0.808594 L 2.148438 -3.578125 L 5.992188 -3.578125 L 5.992188 -4.386719 L 2.148438 -4.386719 L 2.148438 -7.160156 L 6.339844 -7.160156 L 6.339844 -7.96875 L 1.15625 -7.96875 L 1.15625 0 L 6.457031 0 Z M 6.457031 -0.808594" transform="translate(204.73 70.172)"/></g></g></g><g fill="#001392" fill-opacity=".4"><g><g><path d="M 4.308594 -8.128906 C 2.042969 -8.128906 0.542969 -6.375 0.542969 -3.949219 C 0.542969 -1.617188 1.835938 0.160156 4.15625 0.160156 C 6.257812 0.160156 7.332031 -1.097656 7.484375 -2.539062 L 7.496094 -2.65625 L 6.5 -2.65625 L 6.480469 -2.539062 C 6.246094 -1.398438 5.542969 -0.625 4.214844 -0.625 C 2.644531 -0.625 1.652344 -2.03125 1.652344 -3.996094 C 1.652344 -5.925781 2.65625 -7.34375 4.285156 -7.34375 C 5.613281 -7.34375 6.316406 -6.570312 6.546875 -5.429688 L 6.570312 -5.3125 L 7.5625 -5.3125 L 7.550781 -5.429688 C 7.390625 -6.988281 6.328125 -8.128906 4.308594 -8.128906 Z M 4.308594 -8.128906" transform="translate(211.738 70.172)"/></g></g></g><g fill="#001392" fill-opacity=".4"><g><g><path d="M 2.148438 0 L 2.148438 -7.96875 L 1.15625 -7.96875 L 1.15625 0 Z M 2.148438 0" transform="translate(220.04 70.172)"/></g></g></g><g fill="#001392" fill-opacity=".4"><g><g><path d="M 5.265625 -2.816406 L 6.214844 0 L 7.285156 0 L 4.539062 -7.96875 L 3.199219 -7.96875 L 0.335938 0 L 1.398438 0 L 2.332031 -2.816406 Z M 2.609375 -3.625 L 3.84375 -7.183594 L 5 -3.625 Z M 2.609375 -3.625" transform="translate(223.32 70.172)"/></g></g></g><g fill="#001392" fill-opacity=".4"><g><g><path d="M 6.457031 -0.808594 L 2.148438 -0.808594 L 2.148438 -7.96875 L 1.15625 -7.96875 L 1.15625 0 L 6.457031 0 Z M 6.457031 -0.808594" transform="translate(230.929 70.172)"/></g></g></g><g fill="#001392" fill-opacity=".4"><g><g><path d="M 2.148438 0 L 2.148438 -7.96875 L 1.15625 -7.96875 L 1.15625 0 Z M 2.148438 0" transform="translate(237.8 70.172)"/></g></g></g><g fill="#001392" fill-opacity=".4"><g><g><path d="M 3.625 -8.128906 C 2.160156 -8.128906 0.96875 -7.265625 0.96875 -5.890625 C 0.96875 -4.574219 1.953125 -4.007812 3.359375 -3.683594 C 4.757812 -3.359375 5.3125 -2.921875 5.3125 -1.953125 C 5.3125 -1.121094 4.574219 -0.625 3.660156 -0.625 C 2.621094 -0.625 1.894531 -1.210938 1.664062 -2.261719 L 0.601562 -2.261719 C 0.773438 -0.726562 1.882812 0.160156 3.636719 0.160156 C 5.171875 0.160156 6.375 -0.738281 6.375 -2.136719 C 6.375 -3.488281 5.496094 -4.203125 3.742188 -4.609375 C 2.527344 -4.886719 2.03125 -5.253906 2.03125 -6.121094 C 2.03125 -6.953125 2.703125 -7.34375 3.546875 -7.34375 C 4.550781 -7.34375 5.140625 -6.765625 5.230469 -5.761719 L 6.292969 -5.761719 C 6.144531 -7.125 5.277344 -8.128906 3.625 -8.128906 Z M 3.625 -8.128906" transform="translate(241.079 70.172)"/></g></g></g><g fill="#001392" fill-opacity=".4"><g><g><path d="M 7.066406 -7.160156 L 7.066406 -7.96875 L 0.394531 -7.96875 L 0.394531 -7.160156 L 3.234375 -7.160156 L 3.234375 0 L 4.226562 0 L 4.226562 -7.160156 Z M 7.066406 -7.160156" transform="translate(248.065 70.172)"/></g></g></g><g fill="#001392"><g><g><path d="M 2.148438 -7.160156 L 6.339844 -7.160156 L 6.339844 -7.96875 L 1.15625 -7.96875 L 1.15625 0 L 2.148438 0 L 2.148438 -3.578125 L 5.878906 -3.578125 L 5.878906 -4.386719 L 2.148438 -4.386719 Z M 2.148438 -7.160156" transform="translate(118.404 70.893)"/></g></g></g><g fill="#001392"><g><g><path d="M 7.066406 -7.96875 L 6.074219 -7.96875 L 6.074219 -3.039062 C 6.074219 -2.78125 6.074219 -2.539062 6.050781 -2.332031 C 5.957031 -1.328125 5.300781 -0.625 4.078125 -0.625 C 2.851562 -0.625 2.195312 -1.328125 2.101562 -2.332031 C 2.078125 -2.539062 2.078125 -2.78125 2.078125 -3.039062 L 2.078125 -7.96875 L 1.085938 -7.96875 L 1.085938 -2.945312 C 1.085938 -2.691406 1.085938 -2.460938 1.109375 -2.230469 C 1.222656 -0.902344 2.125 0.160156 4.078125 0.160156 C 6.027344 0.160156 6.929688 -0.902344 7.042969 -2.230469 C 7.066406 -2.460938 7.066406 -2.691406 7.066406 -2.945312 Z M 7.066406 -7.96875" transform="translate(125.183 70.893)"/></g></g></g><g fill="#001392"><g><g><path d="M 6.457031 -0.808594 L 2.148438 -0.808594 L 2.148438 -7.96875 L 1.15625 -7.96875 L 1.15625 0 L 6.457031 0 Z M 6.457031 -0.808594" transform="translate(133.288 70.893)"/></g></g></g><g fill="#001392"><g><g><path d="M 6.457031 -0.808594 L 2.148438 -0.808594 L 2.148438 -7.96875 L 1.15625 -7.96875 L 1.15625 0 L 6.457031 0 Z M 6.457031 -0.808594" transform="translate(140.159 70.893)"/></g></g></g><g fill="#001392"><g><g><path d="M 2.792969 -2.945312 L 2.792969 -3.589844 L 0.371094 -3.589844 L 0.371094 -2.945312 Z M 2.792969 -2.945312" transform="translate(147.03 70.893)"/></g></g></g><g fill="#001392"><g><g><path d="M 3.625 -8.128906 C 2.160156 -8.128906 0.96875 -7.265625 0.96875 -5.890625 C 0.96875 -4.574219 1.953125 -4.007812 3.359375 -3.683594 C 4.757812 -3.359375 5.3125 -2.921875 5.3125 -1.953125 C 5.3125 -1.121094 4.574219 -0.625 3.660156 -0.625 C 2.621094 -0.625 1.894531 -1.210938 1.664062 -2.261719 L 0.601562 -2.261719 C 0.773438 -0.726562 1.882812 0.160156 3.636719 0.160156 C 5.171875 0.160156 6.375 -0.738281 6.375 -2.136719 C 6.375 -3.488281 5.496094 -4.203125 3.742188 -4.609375 C 2.527344 -4.886719 2.03125 -5.253906 2.03125 -6.121094 C 2.03125 -6.953125 2.703125 -7.34375 3.546875 -7.34375 C 4.550781 -7.34375 5.140625 -6.765625 5.230469 -5.761719 L 6.292969 -5.761719 C 6.144531 -7.125 5.277344 -8.128906 3.625 -8.128906 Z M 3.625 -8.128906" transform="translate(150.424 70.893)"/></g></g></g><g fill="#001392"><g><g><path d="M 7.066406 -7.160156 L 7.066406 -7.96875 L 0.394531 -7.96875 L 0.394531 -7.160156 L 3.234375 -7.160156 L 3.234375 0 L 4.226562 0 L 4.226562 -7.160156 Z M 7.066406 -7.160156" transform="translate(157.41 70.893)"/></g></g></g><g fill="#001392"><g><g><path d="M 5.265625 -2.816406 L 6.214844 0 L 7.285156 0 L 4.539062 -7.96875 L 3.199219 -7.96875 L 0.335938 0 L 1.398438 0 L 2.332031 -2.816406 Z M 2.609375 -3.625 L 3.84375 -7.183594 L 5 -3.625 Z M 2.609375 -3.625" transform="translate(164.708 70.893)"/></g></g></g><g fill="#001392"><g><g><path d="M 4.308594 -8.128906 C 2.042969 -8.128906 0.542969 -6.375 0.542969 -3.949219 C 0.542969 -1.617188 1.835938 0.160156 4.15625 0.160156 C 6.257812 0.160156 7.332031 -1.097656 7.484375 -2.539062 L 7.496094 -2.65625 L 6.5 -2.65625 L 6.480469 -2.539062 C 6.246094 -1.398438 5.542969 -0.625 4.214844 -0.625 C 2.644531 -0.625 1.652344 -2.03125 1.652344 -3.996094 C 1.652344 -5.925781 2.65625 -7.34375 4.285156 -7.34375 C 5.613281 -7.34375 6.316406 -6.570312 6.546875 -5.429688 L 6.570312 -5.3125 L 7.5625 -5.3125 L 7.550781 -5.429688 C 7.390625 -6.988281 6.328125 -8.128906 4.308594 -8.128906 Z M 4.308594 -8.128906" transform="translate(172.317 70.893)"/></g></g></g><g fill="#001392"><g><g><path d="M 3.636719 -4.078125 L 7.253906 -7.96875 L 6.085938 -7.96875 L 2.148438 -3.730469 L 2.148438 -7.96875 L 1.15625 -7.96875 L 1.15625 0 L 2.148438 0 L 2.148438 -2.585938 L 2.910156 -3.40625 L 5.648438 0 L 7.042969 0 Z M 3.636719 -4.078125" transform="translate(180.62 70.893)"/></g></g></g><g fill="#001392"><g><g><path d="M 3.625 -8.128906 C 2.160156 -8.128906 0.96875 -7.265625 0.96875 -5.890625 C 0.96875 -4.574219 1.953125 -4.007812 3.359375 -3.683594 C 4.757812 -3.359375 5.3125 -2.921875 5.3125 -1.953125 C 5.3125 -1.121094 4.574219 -0.625 3.660156 -0.625 C 2.621094 -0.625 1.894531 -1.210938 1.664062 -2.261719 L 0.601562 -2.261719 C 0.773438 -0.726562 1.882812 0.160156 3.636719 0.160156 C 5.171875 0.160156 6.375 -0.738281 6.375 -2.136719 C 6.375 -3.488281 5.496094 -4.203125 3.742188 -4.609375 C 2.527344 -4.886719 2.03125 -5.253906 2.03125 -6.121094 C 2.03125 -6.953125 2.703125 -7.34375 3.546875 -7.34375 C 4.550781 -7.34375 5.140625 -6.765625 5.230469 -5.761719 L 6.292969 -5.761719 C 6.144531 -7.125 5.277344 -8.128906 3.625 -8.128906 Z M 3.625 -8.128906" transform="translate(190.607 70.893)"/></g></g></g><g fill="#001392"><g><g><path d="M 4.664062 -7.921875 C 4.308594 -7.96875 4.03125 -7.96875 3.625 -7.96875 L 1.15625 -7.96875 L 1.15625 0 L 2.148438 0 L 2.148438 -3.257812 L 3.625 -3.257812 C 4.03125 -3.257812 4.308594 -3.257812 4.664062 -3.304688 C 5.820312 -3.453125 6.734375 -4.261719 6.734375 -5.613281 C 6.734375 -6.964844 5.9375 -7.761719 4.664062 -7.921875 Z M 4.609375 -4.144531 C 4.386719 -4.101562 4.078125 -4.089844 3.71875 -4.089844 L 2.148438 -4.089844 L 2.148438 -7.136719 L 3.71875 -7.136719 C 4.078125 -7.136719 4.386719 -7.125 4.609375 -7.078125 C 5.171875 -6.953125 5.671875 -6.535156 5.671875 -5.613281 C 5.671875 -4.6875 5.171875 -4.273438 4.609375 -4.144531 Z M 4.609375 -4.144531" transform="translate(197.593 70.893)"/></g></g></g><g fill="#001392"><g><g><path d="M 6.457031 -0.808594 L 2.148438 -0.808594 L 2.148438 -3.578125 L 5.992188 -3.578125 L 5.992188 -4.386719 L 2.148438 -4.386719 L 2.148438 -7.160156 L 6.339844 -7.160156 L 6.339844 -7.96875 L 1.15625 -7.96875 L 1.15625 0 L 6.457031 0 Z M 6.457031 -0.808594" transform="translate(204.73 70.893)"/></g></g></g><g fill="#001392"><g><g><path d="M 4.308594 -8.128906 C 2.042969 -8.128906 0.542969 -6.375 0.542969 -3.949219 C 0.542969 -1.617188 1.835938 0.160156 4.15625 0.160156 C 6.257812 0.160156 7.332031 -1.097656 7.484375 -2.539062 L 7.496094 -2.65625 L 6.5 -2.65625 L 6.480469 -2.539062 C 6.246094 -1.398438 5.542969 -0.625 4.214844 -0.625 C 2.644531 -0.625 1.652344 -2.03125 1.652344 -3.996094 C 1.652344 -5.925781 2.65625 -7.34375 4.285156 -7.34375 C 5.613281 -7.34375 6.316406 -6.570312 6.546875 -5.429688 L 6.570312 -5.3125 L 7.5625 -5.3125 L 7.550781 -5.429688 C 7.390625 -6.988281 6.328125 -8.128906 4.308594 -8.128906 Z M 4.308594 -8.128906" transform="translate(211.738 70.893)"/></g></g></g><g fill="#001392"><g><g><path d="M 2.148438 0 L 2.148438 -7.96875 L 1.15625 -7.96875 L 1.15625 0 Z M 2.148438 0" transform="translate(220.04 70.893)"/></g></g></g><g fill="#001392"><g><g><path d="M 5.265625 -2.816406 L 6.214844 0 L 7.285156 0 L 4.539062 -7.96875 L 3.199219 -7.96875 L 0.335938 0 L 1.398438 0 L 2.332031 -2.816406 Z M 2.609375 -3.625 L 3.84375 -7.183594 L 5 -3.625 Z M 2.609375 -3.625" transform="translate(223.32 70.893)"/></g></g></g><g fill="#001392"><g><g><path d="M 6.457031 -0.808594 L 2.148438 -0.808594 L 2.148438 -7.96875 L 1.15625 -7.96875 L 1.15625 0 L 6.457031 0 Z M 6.457031 -0.808594" transform="translate(230.929 70.893)"/></g></g></g><g fill="#001392"><g><g><path d="M 2.148438 0 L 2.148438 -7.96875 L 1.15625 -7.96875 L 1.15625 0 Z M 2.148438 0" transform="translate(237.8 70.893)"/></g></g></g><g fill="#001392"><g><g><path d="M 3.625 -8.128906 C 2.160156 -8.128906 0.96875 -7.265625 0.96875 -5.890625 C 0.96875 -4.574219 1.953125 -4.007812 3.359375 -3.683594 C 4.757812 -3.359375 5.3125 -2.921875 5.3125 -1.953125 C 5.3125 -1.121094 4.574219 -0.625 3.660156 -0.625 C 2.621094 -0.625 1.894531 -1.210938 1.664062 -2.261719 L 0.601562 -2.261719 C 0.773438 -0.726562 1.882812 0.160156 3.636719 0.160156 C 5.171875 0.160156 6.375 -0.738281 6.375 -2.136719 C 6.375 -3.488281 5.496094 -4.203125 3.742188 -4.609375 C 2.527344 -4.886719 2.03125 -5.253906 2.03125 -6.121094 C 2.03125 -6.953125 2.703125 -7.34375 3.546875 -7.34375 C 4.550781 -7.34375 5.140625 -6.765625 5.230469 -5.761719 L 6.292969 -5.761719 C 6.144531 -7.125 5.277344 -8.128906 3.625 -8.128906 Z M 3.625 -8.128906" transform="translate(241.079 70.893)"/></g></g></g><g fill="#001392"><g><g><path d="M 7.066406 -7.160156 L 7.066406 -7.96875 L 0.394531 -7.96875 L 0.394531 -7.160156 L 3.234375 -7.160156 L 3.234375 0 L 4.226562 0 L 4.226562 -7.160156 Z M 7.066406 -7.160156" transform="translate(248.065 70.893)"/></g></g></g><path fill="#001392" d="M 42.230469 24.363281 C 51.351562 19.789062 62.660156 23.101562 67.824219 32.0625 L 71.484375 38.410156 C 69.714844 44.863281 65.636719 50.6875 59.605469 54.519531 L 57.851562 51.476562 C 58.84375 50.335938 59.058594 48.640625 58.265625 47.261719 L 50.261719 33.367188 C 49.46875 31.988281 47.894531 31.328125 46.414062 31.621094 Z M 57.589844 55.683594 C 51.261719 59.003906 44.191406 59.632812 37.730469 57.941406 L 34.074219 51.589844 C 28.910156 42.628906 31.703125 31.160156 40.214844 25.53125 L 44.398438 32.789062 C 43.40625 33.925781 43.191406 35.621094 43.984375 37 L 51.988281 50.894531 C 52.78125 52.273438 54.355469 52.933594 55.835938 52.640625 Z M 73.0625 41.152344 L 77.621094 49.070312 C 82.980469 58.371094 79.769531 70.375 70.492188 75.746094 C 61.207031 81.117188 49.230469 77.898438 43.871094 68.597656 L 39.308594 60.683594 C 46.089844 61.933594 53.332031 60.871094 59.773438 57.144531 C 66.210938 53.417969 70.753906 47.664062 73.0625 41.152344 Z M 73.0625 41.152344" fill-rule="evenodd"/><g clip-path="url(#b)"><path fill="#001392" d="M 39.121094 23.625 C 38.441406 22.445312 37.730469 21.292969 37.082031 20.238281 C 36.453125 19.214844 35.871094 18.273438 35.558594 17.730469 C 34.300781 15.546875 32.6875 14.679688 31.28125 14.742188 C 30.753906 14.765625 30.253906 14.921875 29.816406 15.179688 C 29.371094 15.441406 28.984375 15.816406 28.691406 16.28125 C 27.875 17.574219 27.789062 19.574219 29.113281 21.871094 C 31.035156 25.210938 30.792969 28.226562 29.449219 30.296875 C 28.914062 31.121094 28.199219 31.792969 27.371094 32.269531 C 26.542969 32.75 25.605469 33.035156 24.628906 33.089844 C 22.171875 33.226562 19.453125 31.9375 17.550781 28.636719 C 17.183594 28 16.882812 27.503906 16.5625 26.976562 C 16.085938 26.195312 15.574219 25.355469 15.230469 24.757812 L 17.246094 23.589844 C 17.757812 24.476562 18.164062 25.144531 18.542969 25.765625 C 18.96875 26.464844 19.363281 27.117188 19.570312 27.46875 C 20.96875 29.898438 22.847656 30.855469 24.496094 30.765625 C 25.113281 30.730469 25.699219 30.554688 26.210938 30.257812 C 26.722656 29.960938 27.167969 29.539062 27.507812 29.019531 C 28.410156 27.628906 28.519531 25.507812 27.097656 23.039062 C 25.28125 19.886719 25.492188 17 26.734375 15.035156 C 27.226562 14.257812 27.882812 13.625 28.636719 13.175781 C 29.402344 12.726562 30.265625 12.460938 31.171875 12.417969 C 33.378906 12.316406 35.820312 13.515625 37.574219 16.5625 C 38.015625 17.328125 38.515625 18.140625 39.058594 19.019531 C 39.789062 20.207031 40.582031 21.5 41.136719 22.457031 Z M 39.121094 23.625"/></g><path fill="#001392" d="M 48.089844 36.863281 C 48.992188 36.34375 50.152344 36.65625 50.671875 37.558594 L 54.851562 44.808594 C 55.371094 45.710938 55.058594 46.875 54.160156 47.398438 C 53.257812 47.917969 52.097656 47.605469 51.574219 46.703125 L 47.398438 39.453125 C 46.878906 38.550781 47.191406 37.386719 48.089844 36.863281 Z M 48.089844 36.863281" fill-rule="evenodd"/></svg>