<svg xmlns="http://www.w3.org/2000/svg" width="375" viewBox="0 0 375 375" height="375" version="1.0"><path fill="#DBE8FF" d="M 187.5 0 C 84.113281 0 0 84.113281 0 187.5 C 0 290.886719 84.113281 375 187.5 375 C 290.886719 375 375 290.886719 375 187.5 C 375 84.113281 290.886719 0 187.5 0 Z M 74.46875 317.640625 C 74.78125 316.816406 75 315.9375 75 315 C 75 252.96875 125.46875 202.5 187.5 202.5 C 249.53125 202.5 300 252.96875 300 315 C 300 315.9375 300.21875 316.816406 300.53125 317.648438 C 270.234375 343.988281 230.714844 360 187.5 360 C 144.285156 360 104.765625 343.988281 74.46875 317.640625 Z M 314.453125 304.148438 C 309.921875 250.851562 272.519531 206.863281 222.621094 192.53125 C 242.003906 180.652344 255 159.34375 255 135 C 255 97.785156 224.722656 67.5 187.5 67.5 C 150.285156 67.5 120 97.785156 120 135 C 120 159.34375 132.996094 180.652344 152.378906 192.53125 C 102.472656 206.863281 65.070312 250.84375 60.546875 304.148438 C 32.296875 273.414062 15 232.441406 15 187.5 C 15 92.386719 92.386719 15 187.5 15 C 282.621094 15 360 92.386719 360 187.5 C 360 232.441406 342.703125 273.414062 314.453125 304.148438 Z M 187.5 187.5 C 158.550781 187.5 135 163.949219 135 135 C 135 106.050781 158.550781 82.5 187.5 82.5 C 216.441406 82.5 240 106.050781 240 135 C 240 163.949219 216.441406 187.5 187.5 187.5 Z M 187.5 187.5"/></svg>