<svg xmlns="http://www.w3.org/2000/svg" width="375" viewBox="0 0 375 375" height="375" version="1.0"><defs><clipPath id="a"><path d="M 151 224 L 304 224 L 304 341.765625 L 151 341.765625 Z M 151 224"/></clipPath><clipPath id="b"><path d="M 59 33.515625 L 335 33.515625 L 335 316 L 59 316 Z M 59 33.515625"/></clipPath></defs><g clip-path="url(#a)"><path fill="#DBE8FF" d="M 173.480469 224.660156 L 176.6875 237.976562 L 165.210938 237.976562 L 165.210938 311.695312 L 289.730469 311.695312 L 289.730469 237.976562 L 213.234375 237.976562 L 216.601562 224.496094 C 216.960938 224.496094 217.289062 224.300781 217.613281 224.136719 L 296.660156 224.136719 C 298 224.136719 299.011719 224.496094 300.191406 225.152344 C 301.203125 225.675781 302.054688 226.492188 302.707031 227.703125 C 303.394531 228.683594 303.558594 229.894531 303.558594 231.074219 L 303.558594 318.761719 C 303.558594 319.941406 303.394531 321.121094 302.707031 322.132812 C 302.054688 323.3125 301.203125 324 300.191406 324.652344 C 299.011719 325.339844 298 325.667969 296.660156 325.667969 L 243.078125 325.667969 L 248.636719 333.78125 L 275.574219 333.78125 L 279.953125 341.699219 L 175.148438 341.699219 L 179.367188 333.78125 L 206.171875 333.78125 L 211.894531 325.667969 L 158.3125 325.667969 C 157.136719 325.667969 155.960938 325.339844 154.945312 324.652344 C 153.769531 324 152.921875 323.3125 152.398438 322.132812 C 151.742188 321.121094 151.382812 319.941406 151.382812 318.761719 L 151.382812 231.074219 C 151.382812 229.894531 151.742188 228.683594 152.398438 227.703125 C 152.921875 226.492188 153.769531 225.675781 154.945312 225.152344 C 155.960938 224.496094 157.136719 224.136719 158.3125 224.136719 L 172.273438 224.136719 C 172.632812 224.300781 172.960938 224.496094 173.480469 224.660156"/></g><path fill="#DBE8FF" d="M 45.074219 166.8125 L 37.652344 210.132812 L 120.882812 223.972656 L 132.03125 158.207031 L 139.253906 165.4375 C 138.929688 167.988281 138.765625 170.507812 138.765625 173.027344 C 138.765625 175.21875 138.929688 177.414062 139.09375 179.605469 L 127.453125 191.253906 C 127.128906 191.582031 126.964844 191.941406 126.636719 192.265625 C 126.277344 192.953125 126.113281 193.773438 126.113281 194.625 C 126.113281 195.472656 126.277344 196.160156 126.636719 196.816406 L 136.574219 214.351562 L 133.371094 233.070312 C 133.207031 233.921875 133.011719 234.769531 132.519531 235.457031 C 131.835938 236.636719 131.179688 237.289062 130.003906 237.976562 C 128.992188 238.664062 127.8125 238.992188 126.636719 238.992188 C 126.113281 238.992188 125.789062 238.992188 125.460938 238.828125 L 28.566406 222.796875 C 27.714844 222.632812 27.03125 222.46875 26.375 221.945312 C 25.199219 221.289062 24.347656 220.4375 23.828125 219.425781 C 23.171875 218.246094 22.8125 217.234375 22.8125 215.890625 C 22.8125 215.53125 22.8125 215.203125 23.007812 214.875 L 33.4375 152.480469 C 37.328125 157.191406 41.183594 162.066406 45.074219 166.8125 Z M 38.832031 119.757812 L 45.730469 78.925781 C 45.925781 78.074219 46.089844 77.417969 46.578125 76.730469 C 47.265625 75.554688 47.917969 74.703125 49.097656 74.214844 C 50.109375 73.527344 51.285156 73.199219 52.496094 73.199219 C 52.984375 73.199219 53.3125 73.199219 53.671875 73.363281 L 150.730469 89.394531 C 151.578125 89.558594 152.234375 89.722656 152.921875 90.246094 C 154.097656 90.898438 154.945312 91.585938 155.4375 92.765625 C 156.125 93.78125 156.449219 94.957031 156.449219 96.136719 C 156.449219 96.625 156.449219 96.984375 156.289062 97.3125 L 151.578125 125.160156 L 145.335938 123.457031 C 144.8125 123.292969 144.484375 123.292969 143.964844 123.292969 C 143.144531 123.292969 142.460938 123.457031 141.804688 123.949219 C 140.957031 124.308594 140.433594 124.796875 140.105469 125.648438 L 136.410156 131.898438 L 141.445312 101.863281 L 58.214844 88.054688 L 50.46875 134.253906 C 46.578125 129.542969 42.722656 124.632812 38.832031 119.757812"/><path fill="#DBE8FF" d="M 262.433594 153.984375 C 262.433594 153.820312 262.597656 153.65625 262.792969 153.492188 C 265.996094 155.164062 269.363281 156.503906 272.894531 157.683594 C 280.640625 160.234375 289.074219 161.574219 298 161.574219 C 298.328125 161.574219 298.488281 161.574219 298.6875 161.574219 C 298.851562 161.574219 299.011719 161.574219 299.175781 161.574219 L 299.175781 168.480469 L 299.175781 161.574219 C 299.339844 161.574219 299.503906 161.574219 299.503906 161.574219 C 299.667969 161.574219 299.863281 161.574219 300.027344 161.574219 C 300.191406 161.574219 300.191406 161.574219 300.351562 161.574219 L 300.027344 168.480469 L 300.351562 161.574219 C 300.515625 161.574219 300.515625 161.574219 300.679688 161.574219 C 300.875 161.574219 301.203125 161.574219 301.367188 161.574219 L 300.515625 168.480469 L 301.367188 161.574219 C 301.53125 161.574219 301.53125 161.574219 301.695312 161.738281 L 300.875 168.480469 L 301.695312 161.738281 C 301.890625 161.738281 301.890625 161.738281 301.890625 161.738281 L 301.039062 168.480469 L 301.890625 161.738281 L 302.378906 161.738281 L 301.695312 168.644531 L 302.378906 161.738281 C 302.378906 161.738281 302.542969 161.738281 302.707031 161.738281 C 302.707031 161.738281 302.871094 161.738281 303.066406 161.738281 C 304.242188 161.902344 305.0625 162.066406 306.074219 162.753906 C 307.085938 163.246094 307.9375 164.09375 308.625 165.273438 C 308.625 165.4375 308.789062 165.632812 308.949219 165.960938 C 310.453125 169.492188 313.003906 172.863281 316.011719 175.90625 C 319.214844 179.113281 323.105469 181.992188 327.488281 184.347656 C 330.167969 186.019531 333.207031 187.390625 336.410156 188.570312 C 335.757812 187.71875 335.234375 187.03125 334.742188 186.214844 C 332.195312 182.648438 330.167969 178.949219 328.664062 175.417969 C 327.8125 173.386719 327.160156 171.523438 326.636719 169.492188 C 326.144531 167.464844 325.785156 165.4375 325.785156 163.441406 C 325.785156 162.425781 325.984375 161.414062 326.144531 160.398438 C 326.308594 159.382812 326.472656 158.695312 326.996094 157.878906 C 327.648438 156.863281 328.335938 156.011719 329.511719 155.328125 C 329.675781 155.164062 329.839844 155.164062 330.167969 155 C 334.742188 152.96875 338.960938 150.449219 342.65625 147.570312 C 346.183594 144.691406 349.390625 141.519531 352.101562 138.117188 C 354.621094 134.582031 356.484375 130.882812 357.824219 126.992188 C 359.164062 122.964844 360.011719 118.910156 360.011719 114.523438 C 360.011719 111.316406 359.488281 108.109375 358.835938 105.066406 C 357.988281 102.023438 356.972656 99.179688 355.46875 96.460938 C 353.933594 93.617188 352.265625 90.898438 350.074219 88.542969 C 348.046875 86.023438 345.53125 83.636719 342.816406 81.640625 C 337.261719 77.257812 330.527344 73.6875 323.105469 71.332031 C 315.523438 68.8125 307.085938 67.472656 298 67.472656 C 289.074219 67.472656 280.640625 68.8125 272.894531 71.332031 C 265.472656 73.6875 258.902344 77.257812 253.34375 81.445312 C 250.632812 83.636719 248.113281 86.023438 245.925781 88.542969 C 243.898438 90.898438 242.066406 93.617188 240.695312 96.460938 C 239.191406 99.179688 238.175781 102.023438 237.328125 105.066406 C 236.671875 108.109375 236.148438 111.316406 236.148438 114.523438 C 236.148438 117.730469 236.671875 120.9375 237.328125 123.785156 C 237.488281 124.308594 237.6875 124.796875 237.6875 125.320312 L 228.925781 127.839844 C 227.0625 126.5 225.199219 125.320312 223.171875 124.144531 C 222.679688 120.9375 222.355469 117.730469 222.355469 114.523438 C 222.355469 110.140625 222.84375 105.753906 223.859375 101.699219 C 224.871094 97.640625 226.375 93.78125 228.402344 89.886719 C 230.265625 86.351562 232.621094 82.816406 235.496094 79.613281 C 238.175781 76.242188 241.214844 73.363281 244.746094 70.679688 C 251.480469 65.28125 259.589844 61.058594 268.675781 58.015625 C 277.601562 55.136719 287.539062 53.632812 298 53.632812 C 308.625 53.632812 318.398438 55.136719 327.324219 58.015625 C 336.410156 61.058594 344.519531 65.28125 351.414062 70.679688 C 354.78125 73.363281 357.988281 76.242188 360.667969 79.449219 C 363.378906 82.816406 365.734375 86.351562 367.761719 89.886719 C 369.625 93.78125 371.128906 97.640625 372.304688 101.699219 C 373.316406 105.753906 373.839844 110.140625 373.839844 114.523438 C 373.839844 120.414062 372.828125 126.140625 370.964844 131.375 C 369.101562 136.773438 366.582031 141.683594 363.21875 146.394531 C 359.851562 150.777344 355.796875 155 351.089844 158.53125 C 347.722656 161.25 343.996094 163.605469 339.941406 165.632812 C 339.941406 165.960938 340.136719 166.125 340.136719 166.289062 C 340.464844 167.464844 340.792969 168.644531 341.3125 170.015625 C 342.492188 172.699219 344.160156 175.578125 346.183594 178.425781 C 350.238281 184.511719 355.46875 190.238281 359.488281 194.625 C 359.851562 194.984375 360.175781 195.472656 360.503906 195.964844 C 361.191406 196.980469 361.355469 198.15625 361.355469 199.367188 C 361.355469 200.710938 361.191406 201.722656 360.503906 202.902344 C 359.851562 203.914062 359 204.765625 357.988281 205.421875 C 356.808594 206.109375 355.796875 206.269531 354.457031 206.269531 L 354.292969 206.269531 C 348.703125 206.109375 342.980469 205.257812 337.097656 203.390625 C 331.375 201.722656 325.785156 199.367188 320.589844 196.488281 C 315.195312 193.445312 310.292969 189.746094 306.269531 185.691406 C 303.066406 182.484375 300.351562 179.113281 298.164062 175.417969 L 298 175.417969 C 287.539062 175.417969 277.601562 173.714844 268.675781 170.835938 C 262.957031 169.003906 257.398438 166.648438 252.496094 163.605469 L 262.433594 153.984375"/><path fill="#DBE8FF" d="M 172.796875 159.710938 C 165.539062 172.375 169.59375 187.71875 182.078125 194.984375 C 194.699219 202.214844 209.703125 198.15625 216.960938 185.363281 C 224.183594 172.699219 220.328125 157.519531 207.675781 150.289062 C 195.222656 143.023438 180.054688 146.882812 172.796875 159.710938 Z M 258.574219 194.296875 L 245.269531 217.234375 L 227.910156 212.324219 C 223.335938 216.054688 218.464844 219.261719 213.070312 221.125 L 208.199219 239.679688 L 182.078125 239.679688 L 177.699219 221.289062 C 174.660156 220.113281 171.945312 218.933594 169.265625 217.234375 C 166.550781 215.726562 164.035156 213.863281 161.84375 211.996094 L 143.472656 217.394531 L 130.65625 194.460938 L 143.964844 181.140625 C 143.308594 175.578125 143.144531 169.65625 144.324219 163.769531 L 131.019531 150.777344 L 143.964844 127.839844 L 162.007812 132.714844 C 166.550781 129.019531 171.617188 125.8125 177.011719 123.949219 L 181.882812 105.589844 L 207.675781 105.753906 L 212.382812 124.144531 C 215.097656 125.160156 217.777344 126.335938 220.492188 128.003906 C 223.007812 129.347656 225.722656 131.210938 227.910156 133.238281 L 227.910156 133.078125 L 246.085938 127.675781 L 259.066406 150.777344 L 245.761719 163.929688 C 246.609375 169.855469 246.445312 175.578125 245.433594 181.46875 L 258.574219 194.296875"/><path fill="#DBE8FF" d="M 23.664062 107.785156 C 42.035156 130.882812 60.40625 153.984375 78.777344 177.085938 C 80.445312 183.5 82.308594 190.074219 83.976562 196.488281 C 78.417969 193.117188 72.863281 189.910156 67.304688 186.703125 C 48.769531 163.769531 30.070312 140.832031 11.535156 117.894531 Z M 8.65625 114.359375 C 8.167969 113.671875 7.675781 113.183594 7.152344 112.496094 C 1.597656 106.082031 14.214844 95.613281 19.445312 102.710938 C 19.96875 103.203125 20.296875 103.726562 20.820312 104.21875 L 8.65625 114.359375"/><g clip-path="url(#b)"><path fill="#DBE8FF" d="M 75.574219 240.007812 C 81.785156 251.980469 89.566406 262.617188 98.816406 272.039062 C 110.617188 283.6875 124.773438 293.144531 140.628906 299.71875 C 141.609375 300.046875 142.621094 300.539062 143.800781 300.898438 L 143.800781 315.71875 C 140.957031 314.707031 138.078125 313.691406 135.398438 312.515625 C 117.875 305.28125 102.183594 294.8125 89.042969 281.824219 C 76.425781 269.191406 66.289062 254.171875 59.066406 237.289062 Z M 249.453125 59.03125 C 248.113281 58.34375 246.609375 57.6875 245.074219 57.164062 C 229.253906 50.589844 211.566406 47.054688 192.835938 47.054688 C 174.136719 47.054688 156.449219 50.589844 140.628906 57.164062 C 129.480469 61.714844 119.214844 67.800781 109.933594 74.867188 L 92.082031 72.019531 C 104.539062 60.371094 119.214844 50.917969 135.398438 44.339844 C 152.921875 37.109375 172.273438 33.214844 192.835938 33.214844 C 213.398438 33.214844 232.945312 37.109375 250.46875 44.339844 C 255.699219 46.53125 260.765625 48.921875 265.636719 51.601562 C 259.914062 53.632812 254.523438 56.152344 249.453125 59.03125 Z M 325.132812 207.941406 C 328.335938 209.804688 331.539062 211.34375 334.742188 212.847656 C 333.042969 220.765625 330.527344 228.359375 327.488281 235.621094 C 322.941406 246.582031 317.222656 256.855469 310.128906 266.3125 L 310.128906 240.167969 C 311.828125 236.964844 313.332031 233.757812 314.671875 230.386719 C 317.875 222.632812 320.425781 214.515625 322.09375 205.945312 C 323.105469 206.597656 324.121094 207.285156 325.132812 207.941406"/></g></svg>