<svg xmlns="http://www.w3.org/2000/svg" xmlns:xlink="http://www.w3.org/1999/xlink" width="500" zoomAndPan="magnify" viewBox="0 0 375 374.999991" height="500" preserveAspectRatio="xMidYMid meet" version="1.0"><path fill="rgb(47.059631%, 63.529968%, 82.348633%)" d="M 295.453125 369.316406 L 79.546875 369.316406 C 38.75 369.316406 5.683594 336.25 5.683594 295.453125 L 5.683594 79.546875 C 5.683594 38.75 38.75 5.683594 79.546875 5.683594 L 295.453125 5.683594 C 336.25 5.683594 369.316406 38.75 369.316406 79.546875 L 369.316406 295.453125 C 369.316406 336.25 336.25 369.316406 295.453125 369.316406 Z M 295.453125 369.316406 " fill-opacity="1" fill-rule="nonzero"/><path fill="rgb(12.159729%, 12.939453%, 16.859436%)" d="M 281.25 346.589844 L 93.75 346.589844 C 57.722656 346.589844 28.410156 317.277344 28.410156 281.25 L 28.410156 93.75 C 28.410156 57.722656 57.722656 28.410156 93.75 28.410156 L 281.25 28.410156 C 283.253906 28.410156 285.222656 28.535156 287.183594 28.710938 C 288.746094 28.847656 289.902344 30.234375 289.761719 31.789062 C 289.621094 33.359375 288.148438 34.4375 286.683594 34.371094 C 284.890625 34.210938 283.085938 34.089844 281.25 34.089844 L 93.75 34.089844 C 60.851562 34.089844 34.089844 60.851562 34.089844 93.75 L 34.089844 281.25 C 34.089844 314.148438 60.851562 340.910156 93.75 340.910156 L 281.25 340.910156 C 314.148438 340.910156 340.910156 314.148438 340.910156 281.25 L 340.910156 184.660156 C 340.910156 183.089844 342.183594 181.816406 343.75 181.816406 C 345.316406 181.816406 346.589844 183.089844 346.589844 184.660156 L 346.589844 281.25 C 346.589844 317.277344 317.277344 346.589844 281.25 346.589844 Z M 281.25 346.589844 " fill-opacity="1" fill-rule="nonzero"/><path fill="rgb(12.159729%, 12.939453%, 16.859436%)" d="M 343.75 130.683594 C 342.183594 130.683594 340.910156 129.410156 340.910156 127.839844 L 340.910156 116.476562 C 340.910156 114.910156 342.183594 113.636719 343.75 113.636719 C 345.316406 113.636719 346.589844 114.910156 346.589844 116.476562 L 346.589844 127.839844 C 346.589844 129.410156 345.316406 130.683594 343.75 130.683594 Z M 343.75 130.683594 " fill-opacity="1" fill-rule="nonzero"/><path fill="rgb(12.159729%, 12.939453%, 16.859436%)" d="M 343.75 170.453125 C 342.183594 170.453125 340.910156 169.183594 340.910156 167.613281 L 340.910156 144.886719 C 340.910156 143.316406 342.183594 142.046875 343.75 142.046875 C 345.316406 142.046875 346.589844 143.316406 346.589844 144.886719 L 346.589844 167.613281 C 346.589844 169.183594 345.316406 170.453125 343.75 170.453125 Z M 343.75 170.453125 " fill-opacity="1" fill-rule="nonzero"/><path fill="rgb(12.159729%, 12.939453%, 16.859436%)" d="M 295.453125 375 L 79.546875 375 C 35.683594 375 0 339.316406 0 295.453125 L 0 79.546875 C 0 35.683594 35.683594 0 79.546875 0 L 295.453125 0 C 339.316406 0 375 35.683594 375 79.546875 L 375 295.453125 C 375 339.316406 339.316406 375 295.453125 375 Z M 79.546875 11.363281 C 41.949219 11.363281 11.363281 41.949219 11.363281 79.546875 L 11.363281 295.453125 C 11.363281 333.050781 41.949219 363.636719 79.546875 363.636719 L 295.453125 363.636719 C 333.050781 363.636719 363.636719 333.050781 363.636719 295.453125 L 363.636719 79.546875 C 363.636719 41.949219 333.050781 11.363281 295.453125 11.363281 Z M 79.546875 11.363281 " fill-opacity="1" fill-rule="nonzero"/><path stroke-linecap="round" transform="matrix(5.681818, 0, 0, 5.681818, -96.590893, -96.590898)" fill-opacity="1" fill="rgb(100%, 100%, 100%)" fill-rule="nonzero" stroke-linejoin="miter" d="M 68.403003 41.092751 C 68.47519 40.865189 68.504753 40.650001 68.499253 40.458189 C 68.47519 39.901314 68.088815 39.499814 67.186128 39.499814 L 63.15119 39.499814 C 62.133002 39.499814 61.664127 40.111001 61.387065 40.727689 C 61.387065 40.727689 59.156127 45.600002 56.454939 48.99969 C 56.307814 49.185315 55.249752 50.499815 53.500064 50.499815 C 53.249814 50.499815 52.499752 50.37469 52.499752 49.24994 L 52.499752 41.057001 C 52.499752 39.990689 52.235064 39.499814 51.374314 39.499814 L 44.500001 39.499814 C 43.873688 39.499814 43.499688 40.009251 43.499688 40.500126 C 43.499688 41.523814 45.500313 41.499751 45.496876 44.348064 L 45.496876 49.905815 C 45.496876 51.254002 45.261751 51.498752 44.750251 51.498752 C 43.382813 51.498752 40.557188 47.166127 38.751125 41.134001 C 38.359938 39.948064 37.968063 39.499126 36.943688 39.499126 L 32.873 39.499126 C 31.69875 39.499126 31.500062 40.073876 31.500062 40.685064 C 31.500062 41.793314 32.426812 47.771127 37.47375 54.641315 C 41.134688 59.624315 45.958876 62.498753 50.228939 62.498753 C 51.500814 62.498753 52.501127 61.873816 52.501127 60.498816 L 52.501127 55.931065 C 52.499752 55.00019 53.174877 54.49969 53.999877 54.49969 C 55.000189 54.49969 55.973002 55.216753 58.285752 57.900065 C 60.95394 60.997253 61.435877 62.500128 62.964877 62.500128 L 66.999815 62.500128 C 67.93894 62.500128 68.47519 62.111003 68.499253 61.349941 C 68.504753 61.158128 68.47519 60.942941 68.41469 60.696816 C 68.114253 59.816815 66.90769 57.660128 65.197878 55.59969 C 64.253253 54.461878 63.312752 53.330252 62.885815 52.719065 C 62.597065 52.318252 62.489127 52.03569 62.500815 51.766877 C 62.51319 51.485002 62.663752 51.21619 62.885815 50.838752 C 62.84319 50.838065 67.890815 43.549189 68.403003 41.092751 Z M 68.403003 41.092751 " stroke="rgb(12.159729%, 12.939453%, 16.859436%)" stroke-width="1" stroke-opacity="1" stroke-miterlimit="10"/></svg>