<svg xmlns="http://www.w3.org/2000/svg" xmlns:xlink="http://www.w3.org/1999/xlink" width="500" zoomAndPan="magnify" viewBox="0 0 375 374.999991" height="500" preserveAspectRatio="xMidYMid meet" version="1.0"><defs><clipPath id="id1"><path d="M 0 38 L 375 38 L 375 105.75 L 0 105.75 Z M 0 38 " clip-rule="nonzero"/></clipPath><clipPath id="id2"><path d="M 0 153.410156 L 375 153.410156 L 375 221.660156 L 0 221.660156 Z M 0 153.410156 " clip-rule="nonzero"/></clipPath><clipPath id="id3"><path d="M 0 269.316406 L 375 269.316406 L 375 337 L 0 337 Z M 0 269.316406 " clip-rule="nonzero"/></clipPath></defs><g clip-path="url(#id1)"><path fill="#001392" d="M 374.980469 38.027344 L 374.980469 105.164062 L 0.0195312 105.164062 L 0.0195312 38.027344 Z M 374.980469 38.027344 " fill-opacity="1" fill-rule="nonzero"/></g><path stroke-linecap="butt" transform="matrix(1.939989, 0, 0, 1.94199, 0.0000045, 38.028568)" fill-opacity="1" fill="#001392" fill-rule="nonzero" stroke-linejoin="miter" d="M 1.999445 2.00078 L 191.280431 2.00078 L 191.280431 32.569051 L 1.999445 32.569051 Z M 1.999445 2.00078 " stroke="#ffffff" stroke-width="0.5" stroke-opacity="1" stroke-miterlimit="10"/><path fill="#ffffff" d="M 2.910156 40.941406 L 2.910156 102.25 L 372.050781 102.25 L 372.050781 40.941406 Z M 370.109375 100.308594 L 4.851562 100.308594 L 4.851562 42.882812 L 370.109375 42.882812 Z M 370.109375 100.308594 " fill-opacity="1" fill-rule="nonzero"/><g clip-path="url(#id2)"><path fill="#001392" d="M 374.980469 153.9375 L 374.980469 221.070312 L 0.0195312 221.070312 L 0.0195312 153.9375 Z M 374.980469 153.9375 " fill-opacity="1" fill-rule="nonzero"/></g><path stroke-linecap="butt" transform="matrix(1.939989, 0, 0, 1.94199, 0.0000045, 153.937651)" fill-opacity="1" fill="#001392" fill-rule="nonzero" stroke-linejoin="miter" d="M 1.999445 1.999321 L 191.280431 1.999321 L 191.280431 32.569603 L 1.999445 32.569603 Z M 1.999445 1.999321 " stroke="#ffffff" stroke-width="0.5" stroke-opacity="1" stroke-miterlimit="10"/><path fill="#ffffff" d="M 2.910156 156.851562 L 2.910156 218.160156 L 372.050781 218.160156 L 372.050781 156.851562 Z M 370.109375 216.21875 L 4.851562 216.21875 L 4.851562 158.792969 L 370.109375 158.792969 Z M 370.109375 216.21875 " fill-opacity="1" fill-rule="nonzero"/><g clip-path="url(#id3)"><path fill="#001392" d="M 374.980469 269.847656 L 374.980469 336.980469 L 0.0195312 336.980469 L 0.0195312 269.847656 Z M 374.980469 269.847656 " fill-opacity="1" fill-rule="nonzero"/></g><path stroke-linecap="butt" transform="matrix(1.939989, 0, 0, 1.94199, 0.0000045, 269.84673)" fill-opacity="1" fill="#001392" fill-rule="nonzero" stroke-linejoin="miter" d="M 1.999445 1.999875 L 191.280431 1.999875 L 191.280431 32.570158 L 1.999445 32.570158 Z M 1.999445 1.999875 " stroke="#ffffff" stroke-width="0.5" stroke-opacity="1" stroke-miterlimit="10"/><path fill="#ffffff" d="M 2.910156 272.757812 L 2.910156 334.066406 L 372.050781 334.066406 L 372.050781 272.757812 Z M 370.109375 332.125 L 4.851562 332.125 L 4.851562 274.703125 L 370.109375 274.703125 Z M 370.109375 332.125 " fill-opacity="1" fill-rule="nonzero"/></svg>